<svg width="77" height="77" viewBox="0 0 77 77" fill="none" xmlns="http://www.w3.org/2000/svg">
<path d="M48.728 35.7837C47.7094 35.7837 46.8682 36.1366 46.204 36.8419C45.5402 37.5477 45.2132 38.5065 45.2249 39.7171H52.1963C52.1627 38.4322 51.8142 37.4552 51.1505 36.7863C50.4868 36.1174 49.6787 35.7837 48.728 35.7837Z" fill="#54BEA5"/>
<path d="M32.4948 40.3171C31.8572 40.0957 30.4763 39.9861 28.3488 39.9861H24.5742V46.1792H28.9019C30.5853 46.1792 31.6541 46.1322 32.1073 46.037C32.8026 45.9108 33.368 45.6023 33.8057 45.1125C34.2418 44.6227 34.4603 43.9666 34.4603 43.1458C34.4603 42.4501 34.2925 41.8603 33.9553 41.3753C33.6181 40.8903 33.1318 40.539 32.4948 40.3171Z" fill="#54BEA5"/>
<path d="M38.5 7.57495C21.4308 7.57495 7.59375 21.421 7.59375 38.5001C7.59375 55.5791 21.4313 69.4252 38.5 69.4252C55.5697 69.4252 69.4084 55.5786 69.4084 38.5001C69.4078 21.421 55.5697 7.57495 38.5 7.57495ZM43.9836 27.9088H53.3236V30.1691H43.9836V27.9088ZM38.5593 46.4407C38.0698 47.4358 37.4007 48.232 36.5531 48.8272C35.7055 49.4212 34.6608 49.7881 33.4188 49.9249C32.6391 50.0094 30.7601 50.0618 27.7802 50.0838H19.9008V26.918H29.1547C30.9867 26.918 32.3526 26.9945 33.2526 27.1474C34.1525 27.3003 34.9579 27.6185 35.6687 28.1029C36.3784 28.5874 36.9716 29.2328 37.4451 30.0386C37.9185 30.8445 38.1558 31.7476 38.1558 32.7481C38.1558 33.833 37.8635 34.8292 37.2789 35.735C36.6942 36.6408 35.9022 37.3205 34.9023 37.7734C36.3126 38.1846 37.398 38.8856 38.1558 39.8743C38.9136 40.8657 39.2925 42.0287 39.2925 43.3666C39.2931 44.4205 39.0488 45.445 38.5593 46.4407ZM46.2725 45.5098C46.9918 46.2418 47.888 46.6075 48.9611 46.6075C49.6917 46.6075 50.3057 46.4177 50.8043 46.0386C51.3013 45.6595 51.6781 45.3745 51.9325 44.5317L56.7203 44.5034C56.6888 46.0541 55.039 47.8069 53.7495 48.6539C52.4605 49.502 50.8476 49.926 48.9104 49.926C45.846 49.926 43.5769 48.9737 42.1062 47.0663C40.9433 45.5386 40.363 43.6104 40.363 41.2828C40.363 38.5017 41.1261 36.3243 42.6529 34.7495C44.1797 33.1748 46.1111 32.3871 48.446 32.3871C51.0689 32.3871 53.1376 33.2117 54.6543 34.8597C56.1699 36.5088 56.894 39.0343 56.8283 42.4367H45.1444C45.178 43.7521 45.5537 44.7766 46.2725 45.5098Z" fill="#54BEA5"/>
<path d="M31.0331 36.0509C31.8337 35.9557 32.4622 35.6798 32.9202 35.221C33.3782 34.7633 33.6069 34.1601 33.6069 33.4115C33.6069 32.6955 33.4097 32.1137 33.0153 31.6651C32.6209 31.2181 32.033 30.9464 31.2544 30.8518C30.7911 30.7989 29.4593 30.7732 27.2586 30.7732H24.5742V36.13H27.6375C29.4593 36.13 30.5917 36.1038 31.0331 36.0509Z" fill="#54BEA5"/>
</svg>
