<svg width="736" height="799" viewBox="0 0 736 799" fill="none" xmlns="http://www.w3.org/2000/svg">
<path fill-rule="evenodd" clip-rule="evenodd" d="M228.572 8.78214C176.588 26.7697 153.213 52.0135 150.06 93.5732L147.853 122.693H131.428C82.1666 122.693 43.0169 176.381 43.0169 243.944C43.0169 259.232 40.0095 265.523 28.1147 275.147C-13.0111 308.412 -7.80104 432.062 35.7875 457.259C41.0891 460.323 46.3377 463.429 47.4558 464.167C48.5691 464.905 44.4098 471.413 38.2166 478.627C0.763392 522.243 51.1235 651.014 110.732 664.061C120.058 666.101 127.852 672.519 132.218 681.753C159.955 740.441 267.413 765.758 305.305 722.532C327.769 696.909 337.553 694.478 342.339 713.314C344.276 720.934 345.896 722.748 346.17 717.612C346.435 712.724 344.585 702.778 342.059 695.506C338.931 686.504 339.413 675.034 343.573 659.568L349.679 636.85L352.879 688.619C358.06 772.55 370.297 786.847 428.475 776.975C478.049 768.558 512.249 770.072 544.97 782.132C561.101 788.075 575.198 791.956 576.297 790.754C586.071 780.06 506.138 764.835 460.81 768.753C370.914 776.532 368.413 775.467 361.039 726.197C355.554 689.552 354.768 475.969 359.839 399.547L363.338 346.813L366.524 378.453C368.273 395.855 369.941 458.962 370.225 518.689C370.89 656.108 375.695 756.039 381.45 752.148C383.879 750.508 384.51 745.292 382.852 740.567C381.194 735.842 377.845 638.448 375.406 524.136C372.972 409.825 369.839 315.056 368.451 313.537C362.35 306.856 360.099 322.101 354.749 406.497L349.062 496.208L337.871 486.273L326.675 476.338L337.331 430.032C349.265 378.189 352.306 278.664 342.734 253.262C339.36 244.308 338.874 234.283 341.452 226.895C345.467 215.394 345.732 215.531 348.966 230.798C354.156 255.303 356.523 259.09 353.915 238.708C352.614 228.557 349.52 190.588 347.033 154.333C337.572 16.3495 308.818 -18.9876 228.572 8.78214ZM309.079 19.7403C315.648 26.9227 324.632 45.0526 329.051 60.0185C338.546 92.181 344.912 152.635 337.042 135.876C333.321 127.956 332.994 130.577 335.717 146.423C345.37 202.527 339.095 241.904 323.036 225.999C300.823 204.004 266.015 228.187 284.609 252.698C291.632 261.958 321.769 259.179 327.673 248.727C350.725 207.911 345.953 417.624 322.747 465.063C316.086 478.685 279.293 483.114 253.73 473.369C227.059 463.202 226.162 463.35 226.162 477.83C226.162 512.477 287.824 526.493 312.592 497.479C340.777 464.473 356.542 512.577 346.556 601.122C337.644 680.123 333.032 687.274 322.366 638.627C306.331 565.501 253.489 542.857 159.892 569.002C132.546 576.638 108.944 581.542 107.441 579.897C101.088 572.947 112.607 565.733 139.202 560.011C252.116 535.706 229.941 397.965 112.901 396.641C60.6181 396.05 33.6958 377.377 62.2954 361.546C80.4942 351.474 99.1509 353.278 139.838 369.045C219.183 399.8 233.642 325.772 156.114 285.694C111.59 262.675 92.0179 218.969 112.506 188.31C121.765 174.457 124.994 179.63 129.432 215.426C134.151 253.463 145.945 265.75 192.227 280.832C242.607 297.248 253.624 317.477 238.211 365.27C227.43 398.703 228.9 421.479 242.814 436.698C272.426 469.098 327.904 433.144 321.745 385.546C319.393 367.368 302.553 369.119 297.931 388.019C292.851 408.807 284.701 418.004 271.36 418.004C244.592 418.004 261.731 330.839 291.535 315.367C324.092 298.461 324.882 268.297 292.432 281.138C269.674 290.139 252.063 284.107 229.714 259.654C201.534 228.82 205.25 221.722 261.813 198.361C317.291 175.448 323.938 77.5632 271.857 50.3946C242.144 34.8908 212.479 60.8992 236.052 81.7871L247.552 91.9754L233.242 90.1982C212.759 87.6459 210.725 65.1759 229.512 48.976C258.029 24.3809 297.29 45.7962 321.147 98.9626C329.682 117.984 332.116 120.921 329.88 109.509C316.231 39.7265 226.986 4.04133 213.472 62.9611C207.558 88.748 235.242 108.212 250.058 88.6848C255.311 81.7555 254.776 80.5057 246.544 80.5057C233.228 80.5057 228.186 64.1423 238.871 55.5942C272.676 28.5521 311.363 88.8324 298.958 149.229C293.386 176.355 281.356 187.972 247.494 198.915C211.935 210.411 202.358 223.526 213.433 245.563C231.922 282.361 265.654 298.809 296.403 286.021C303.57 283.041 310.39 281.649 311.566 282.931C316.361 288.183 302.717 306.271 291.675 309.303C271.818 314.756 258.829 340.838 256.241 380.462C252.718 434.277 278.72 443.232 300.056 395.549C310.298 372.668 317.735 370.021 317.735 389.264C317.735 420.762 297.227 444.371 269.857 444.371C238.057 444.371 228.625 414.834 243.71 362.469C257.721 313.849 244.934 292.734 190.81 275.094C152.557 262.628 134.59 246.233 134.59 223.784C134.59 180.711 126.358 167.622 109.667 184.154C83.1883 210.374 105.773 263.43 155.333 291.442C193.288 312.894 197.071 318.009 197.172 348.031C197.273 378.458 184.733 381.738 139.077 363.218C100.245 347.472 83.5065 346.222 59.3602 357.259C22.8903 373.934 55.7214 402.162 111.6 402.173C225.309 402.204 244.934 529.71 135.192 555.465C107.441 561.973 92.2492 574.175 100.568 583.277C104.221 587.275 121.446 584.743 159.917 574.55C227.083 556.757 237.238 556.784 269.799 574.887C307.445 595.812 338.339 658.497 307.7 651.795C290.162 647.956 288.316 662.299 303.608 683.572C334.584 726.661 273.548 753.724 200.825 729.145C142.103 709.301 112.916 666.254 157.965 665.933C173.812 665.822 203.221 632.694 201.211 617.217C197.75 590.549 149.578 607.503 135.804 640.235C113.412 693.465 28.5581 604.534 28.5581 527.838C28.5581 490.634 62.6231 450.013 82.5329 463.476C85.7717 465.67 86.5235 464.689 84.4366 460.998C77.4385 448.6 136.999 437.489 151.94 448.405C175.966 465.96 171.469 539.292 146.364 539.292C141.086 539.292 139.409 531.756 139.409 508.026C139.409 470.316 132.069 459.822 106.535 461.035L88.8032 461.878L105.653 464.104C130.941 467.442 134.59 473.343 134.59 510.931C134.59 564.219 168.081 556.03 171.754 501.851C175.768 442.567 145.222 424.643 81.8196 449.074C36.2935 466.614 10.634 441.027 5.65049 373.122C0.565806 303.803 35.1851 240.021 52.7333 286.379C64.7438 318.099 105.672 331.889 105.672 304.219C105.672 284.47 81.4147 259.801 61.9917 259.801H46.487L49.2439 230.56C56.3239 155.525 139.742 83.6328 150.624 143.185C160.664 198.108 259.899 190.029 259.899 134.289C259.899 101.705 235.565 101.014 218.234 133.113C206.281 155.256 199.057 156.395 175.224 139.879C150.403 122.688 145.819 92.3761 163.295 61.0152C188.506 15.78 281.414 -10.5291 309.079 19.7403ZM485.746 20.2202C427.212 39.9374 366.461 149.598 366.013 236.335C365.969 245.184 363.54 255.034 360.624 258.225C357.246 261.921 356.696 270.459 359.116 281.691C362.398 296.968 363.719 292.586 368.895 249.255C389.465 77.0727 456.939 -0.114082 565.631 24.2069C676.902 49.1026 739.104 135.128 730.264 251.891L727.869 283.532L732.867 257.165C759.327 117.514 613.109 -22.6843 485.746 20.2202ZM254.304 124.866C262.001 168.303 203.283 193.62 168.698 161.774C142.817 137.944 148.509 125.999 176.014 146.423C199.331 163.736 200.141 163.551 222.947 135.782C242.925 111.455 251.402 108.502 254.304 124.866ZM322.988 231.367C328.453 238.576 328.039 240.954 320.246 247.187C300.885 262.675 278.32 251.96 285.742 230.798C289.448 220.23 314.833 220.62 322.988 231.367ZM89.0201 278.021C104.732 295.207 104.833 312.535 89.2322 312.535C76.9518 312.535 52.6561 285.994 52.6561 272.579C52.6561 260.339 76.0602 263.841 89.0201 278.021ZM716.369 313.843C698.677 375.257 678.931 400.527 503.005 586.911C446.274 647.006 380.722 731.254 386.106 737.145C387.301 738.453 398.911 723.539 411.91 704.007C435.314 668.844 504.596 590.797 611.972 478.648C680.343 407.241 734.602 317.714 726.211 290.166C725.358 287.366 720.929 298.018 716.369 313.843ZM262.309 481.959C270.262 484.633 284.904 485.361 294.842 483.584C314.684 480.04 317.031 483.389 304.939 498.006C291.506 514.249 246.39 508.933 234.669 489.722C227.902 478.632 230.572 469.424 239.416 473.358C244.057 475.42 254.357 479.291 262.309 481.959ZM194.864 613.167C203.785 628.966 178.997 656.272 150.253 662.305C137.399 664.999 134.59 663.934 134.59 656.351C134.59 630.279 184.381 594.61 194.864 613.167ZM322.366 666.85C332.801 679.1 335.389 692.221 327.374 692.221C324.723 692.221 322.4 688.07 322.217 682.992C321.918 674.897 321.431 675.014 318.246 683.894C314.809 693.502 314.202 693.375 306.539 681.405C290.436 656.251 303.285 644.438 322.366 666.85ZM343.568 744.686C337.866 775.873 284.079 792.278 216.306 783.493C193.803 780.576 158.688 789.23 158.688 797.694C158.688 800.146 164.654 799.044 171.941 795.237C180.607 790.717 205.529 788.302 243.903 788.26C308.645 788.191 332.844 782.28 340.782 764.593C348.108 748.277 352.687 729.134 349.265 729.134C347.698 729.134 345.134 736.132 343.568 744.686Z" fill="#000C37"/>
</svg>
