<svg width="620" height="1019" viewBox="0 0 620 1019" fill="none" xmlns="http://www.w3.org/2000/svg">
<path fill-rule="evenodd" clip-rule="evenodd" d="M290.411 3.54683C286.978 5.47162 280.308 10.5422 275.589 14.8143C270.87 19.0864 265.468 22.5614 263.584 22.5364C253.478 22.4024 242.875 31.5404 228.515 52.7569C222.178 62.1171 213.055 73.4297 208.24 77.8947C190.756 94.107 187.479 100.646 187.225 119.832C187.021 135.168 189.118 144.861 196.447 162.462C204.599 182.041 204.039 188.506 191.504 219.597C182.892 240.954 182.033 244.21 181.231 258.526C180.135 278.114 181.725 284.851 192.029 304.286C198.715 316.899 200.457 321.995 201.828 332.971C202.745 340.312 202.967 349.493 202.321 353.372C201.674 357.251 196.065 369.598 189.854 380.81C174.817 407.951 172.755 413.669 172.512 428.873C172.359 438.448 173.177 443.578 175.987 450.665C178.007 455.763 179.309 460.61 178.88 461.438C178.449 462.266 172.12 466.833 164.816 471.589C140.458 487.443 126.556 504.643 126.364 519.162C126.291 524.598 124.73 527.739 117.751 536.49C108.408 548.205 104.141 560.436 103.911 576.167C103.65 594.097 100.328 616.727 96.5161 626.563C91.3746 639.824 83.685 649.709 64.7668 667.376C44.2238 686.559 38.9867 692.313 30.7286 704.777C9.43299 736.919 -2.12601 786.195 1.28534 830.288C3.24484 855.619 9.82754 879.211 16.1245 883.473C21.7229 887.264 32.0845 885.888 42.1867 880.01C51.8736 874.376 51.9078 874.371 79.3223 874.749C94.4132 874.959 119.359 874.037 134.757 872.699C173.418 869.344 171.72 869.017 160.894 877.737C139.596 894.894 136.34 902.374 135.034 937.168C134.483 951.876 134.722 962.376 135.634 963.529C137.482 965.862 142.7 962.939 148.764 956.173L153.015 951.431L151.907 965.014C150.714 979.638 150.567 979.365 159.378 978.77C162.027 978.59 163.627 979.436 163.603 981.004C163.538 985.321 174.111 1018.88 175.544 1018.9C178.627 1018.94 184.848 1014.43 184.879 1012.13C184.985 1004.07 192.538 987.032 199.893 978.253C208.675 967.769 215.711 964.56 238.221 960.769C244.624 959.691 253.904 957.585 258.841 956.089C267.231 953.549 268.483 953.634 277.984 957.386C283.575 959.593 292.766 961.851 298.405 962.399C304.045 962.948 311.082 964.323 314.043 965.453C322.734 968.77 330.668 968.133 334.267 963.827C336.899 960.679 338.361 960.304 342.427 961.73C345.382 962.769 349.149 962.766 351.765 961.725C354.719 960.549 365.321 961.149 384.267 963.567C430.616 969.477 462.784 967.846 505.316 957.422C544.051 947.928 552.338 943.322 567.256 923.002C576.328 910.644 581.433 899.986 592.838 869.604C603.51 841.175 609.869 817.764 616.369 782.98C619.993 763.584 620.599 715.36 617.49 693.521C616.221 684.605 613.934 665.728 612.407 651.573C607.134 602.675 599.982 571.548 586.138 537.233C572.96 504.566 556.78 482.848 536.137 470.111C528.224 465.229 523.178 460.544 519.307 454.485C516.266 449.723 510.623 441.457 506.768 436.111C485.419 406.521 468.713 368.776 463.496 338.345C461.875 328.9 459.042 301.021 457.199 276.391C450.988 193.445 444.446 132.075 437.72 93.6336C431.386 57.4423 414.31 32.78 386.297 19.3664C372.175 12.6038 358.291 9.03109 331.361 5.22828C319.072 3.49287 306.235 1.61694 302.835 1.05976C298.674 0.378272 294.612 1.19056 290.411 3.54683ZM301.919 11.6835C301.905 12.7646 300.817 16.6813 299.501 20.3894C297.158 26.9927 296.974 27.1026 290.524 25.7073C279.287 23.2739 278.976 21.9524 288.142 15.569C296.667 9.63214 301.966 8.13757 301.919 11.6835ZM341.358 16.0044C372.297 20.6941 395.864 31.9358 410.166 48.8284C424.841 66.1581 429.039 80.2973 435.801 135.189C442.948 193.209 445.804 222.053 448.074 259.137C453.98 355.679 464.232 390.717 500.882 439.635C507.659 448.68 512.519 456.072 511.683 456.061C510.845 456.05 507.128 454.603 503.425 452.844C498.883 450.69 491.648 449.568 481.204 449.401C467.497 449.179 463.9 449.891 449.88 455.591L434.043 462.033L428.755 442.638C422.788 420.747 422.632 417.413 426.245 388.839C430.187 357.65 439.889 235.824 440.145 214.295C440.652 171.532 433.55 137.093 419.421 113.793C416.159 108.415 413.112 100.256 411.749 93.2549C405.434 60.8122 389.963 42.1489 361.276 32.3699C355.94 30.5516 342.096 28.6071 328.559 27.7746L305.091 26.3326L307.652 19.9854C310.104 13.9013 310.573 13.6411 318.829 13.7658C323.569 13.8381 333.707 14.8445 341.358 16.0044ZM285.859 30.2886C289.5 31.2049 292.839 32.4085 293.28 32.9626C293.718 33.5186 291.549 39.9186 288.458 47.1878L282.837 60.4029L272.425 61.6317C266.698 62.3096 258.975 63.9415 255.263 65.2572C251.552 66.5748 248.52 67.3094 248.526 66.8907C248.543 65.5945 259.94 46.7525 266.408 37.3274C272.918 27.842 274.239 27.3627 285.859 30.2886ZM255.067 40.9844C247.172 54.1599 231.492 77.4873 218.833 94.8924C207.594 110.344 204.57 119.611 203.035 143.324C201.888 161.042 201.865 161.121 199.117 156.598C194.482 148.967 191.301 133.715 191.546 120.293C191.834 104.523 194.981 97.9266 209.024 83.6676C214.601 78.0038 224.65 65.5308 231.353 55.9509C243.011 39.2902 252.76 30.1066 258.779 30.1179C261.054 30.1233 260.363 32.1473 255.067 40.9844ZM359.653 37.9776C381.468 45.3943 396.548 58.6689 403.692 76.7459C405.942 82.4373 409.388 96.8102 408.5 96.7984C408.246 96.795 404.027 93.7408 399.127 90.0131C387.732 81.343 377.741 76.6359 362.291 72.6579C349.069 69.252 313.44 63.5615 300.081 62.7218C295.613 62.4399 291.966 61.4854 291.978 60.5984C291.989 59.7133 294.578 52.9267 297.727 45.5174L303.457 32.0468L326.929 33.4412C340.571 34.2504 354.277 36.1511 359.653 37.9776ZM317.071 73.6687C340.697 77.0698 341.957 77.7547 353.633 93.5275C367.929 112.838 376.975 138.465 380.19 168.763C383.807 202.842 385.952 226.779 386.631 240.625C388.426 277.189 374.453 301.799 345.025 313.903C331.001 319.671 307.213 325.802 299.259 325.696C289.262 325.564 282.708 319.758 264.632 295.02C239.609 260.774 237.046 252.148 236.385 200.011L235.949 165.579L240.472 161.847C251.216 152.983 258.592 152.184 266.826 158.998C271.726 163.051 271.466 165.8 266.417 163.358C258.459 159.509 242.553 166.921 242.452 174.523C242.392 179.047 246.412 179.588 250.765 175.642C253.369 173.282 253.993 173.418 256.171 176.812C258.86 181.002 261.78 181.564 270.651 179.601L276.477 178.311L276.363 186.874C276.301 191.583 274.056 203.206 271.374 212.702C265.65 232.971 265.308 238.251 269.384 243.4C272.071 246.793 274.25 247.184 289.47 246.997C304.751 246.812 306.548 246.43 306.59 243.362C306.666 237.823 296.595 233.418 289.548 235.908C274.431 241.249 272.436 236.783 279.104 212.525C285.569 189.003 285.738 177.463 279.811 164.31C271.888 146.723 257.316 141.883 241.423 151.558L235.405 155.221L234.624 141.141C233.705 124.584 236.039 102.018 239.819 90.9083C242.937 81.7453 246.899 78.8243 262.875 73.9095C276.507 69.7156 289.217 69.6595 317.071 73.6687ZM371.644 85.0493C383.232 89.5567 395.975 97.9116 404.587 106.646C409.484 111.613 410.231 113.559 410.911 123.12C411.671 133.802 407.972 198.797 403.961 245.226C402.832 258.299 401.671 286.125 401.381 307.062C400.793 349.602 402.109 361.881 410.835 395.286L415.965 414.92L413.997 441.017C412.916 455.37 411.439 469.675 410.718 472.807C409.714 477.155 405.976 481.311 394.897 490.395C386.919 496.937 380.142 501.973 379.838 501.589C379.533 501.206 380.67 495.106 382.364 488.035C386.492 470.806 388.694 447.357 391.42 391.644C393.316 352.912 393.363 341.968 391.701 326.897C390.273 313.941 390.13 304.425 391.2 293.576C395.014 254.883 393.026 202.507 385.974 155.895C382.072 130.105 372.026 103.806 360.064 88.0654C355.197 81.6597 354.948 80.8587 357.833 80.897C359.618 80.9206 365.834 82.7887 371.644 85.0493ZM229.437 101.14C227.231 112.038 227.077 146.226 229.013 195.314C230.657 237.026 232.101 249.273 237.205 264.768C239.479 271.673 239.468 273.656 237.053 289.514C235.61 298.994 231.477 322.132 227.871 340.931C219.402 385.072 216.098 409.869 215.812 431.412L215.582 448.78L207.061 465.097C202.373 474.072 193.423 492.526 187.172 506.106C172.571 537.822 169.424 551.357 167.698 589.856L166.404 618.733L163.198 612.64C156.174 599.292 140.51 595.863 125.239 604.332C120.522 606.948 115.337 610.511 113.717 612.25C110.848 615.331 110.801 614.786 111.889 591.632C113.265 562.358 115.21 555.253 124.808 544.413C130.903 537.528 133.046 533.281 136.462 521.304C141.616 503.236 147.301 496.399 169.151 481.983C188.76 469.047 196.407 459.434 202.943 439.507C213.053 408.677 215.973 374.777 211.473 340.487C207.323 308.867 206.758 300.71 206.274 265.449C205.848 234.329 206.199 227.899 209.298 210.282C213.326 187.379 213.672 179.609 211.338 164.5C208.036 143.122 214.965 111.662 226.044 97.7293C228.301 94.8923 230.332 92.8004 230.556 93.0851C230.78 93.368 230.276 96.9935 229.437 101.14ZM420.834 134.084C429.443 155.894 431.681 171.995 431.964 214.187C432.15 241.773 431.431 260.121 429.351 280.781C427.772 296.466 424.798 328.979 422.741 353.034C420.684 377.088 418.597 398.049 418.104 399.613C416.864 403.548 412.23 385.666 408.451 362.363C405.798 345.996 405.45 337.468 406.004 302.364C406.358 279.857 407.988 244.756 409.625 224.361C411.263 203.965 413.268 172.501 414.082 154.44C414.897 136.379 415.73 121.827 415.932 122.102C416.135 122.377 418.34 127.769 420.834 134.084ZM317.24 141.155C305.723 143.85 297.406 151.821 292.92 164.467C290.932 170.07 290.753 172.327 292.13 174.424C294.987 178.781 296.551 177.685 299.686 169.123C306.371 150.87 320.274 145.17 341.099 152.143C346.118 153.822 350.537 155.591 350.917 156.072C351.297 156.552 350.775 159.106 349.756 161.746C347.97 166.377 347.746 166.441 343.363 163.573C337.075 159.457 328.022 159.729 317.379 164.348C306.486 169.075 302.989 172.436 305.57 175.695C306.941 177.426 308.868 177.423 313.802 175.678C319.74 173.581 320.485 173.73 323.317 177.569C325.728 180.84 327.434 181.483 331.241 180.557C333.911 179.909 338.015 179.131 340.361 178.831C342.706 178.531 345.29 178.188 346.1 178.068C348.293 177.743 355.197 166.357 358.011 158.423L360.478 151.471L355.762 148.384C351.056 145.304 330.137 139.348 325.255 139.698C323.838 139.799 320.231 140.456 317.24 141.155ZM198.424 220.661C196.685 229.245 196.149 262.126 197.345 286.585C198.277 305.596 196.926 305.974 190.469 288.514C185.768 275.803 184.464 259.292 187.168 246.747C189.082 237.865 198.619 211.441 199.507 212.56C199.751 212.868 199.263 216.515 198.424 220.661ZM263.883 261.726C262.661 265.468 265.897 269.472 271.644 271.328C274.127 272.132 274.911 273.713 274.661 277.412C274.374 281.658 275.244 282.806 280.439 285.022C288.202 288.335 296.917 286.261 299.052 280.593C299.922 278.282 302.578 276.077 305.233 275.461C311.835 273.932 317.089 269.355 317.145 265.084C317.221 259.416 315.006 258.949 307.117 262.973C298.376 267.43 284.941 267.577 276.124 263.31C265.594 258.215 265.053 258.145 263.883 261.726ZM283.159 331.194C284.845 331.216 285.231 335.766 285.003 352.922L284.716 374.623L279.634 378.231C269.397 385.497 250.047 405.606 235.231 424.376L220.035 443.626L221.198 419.846C222.048 402.465 224.201 386.099 229.199 359.034C232.959 338.667 237.598 312.903 239.507 301.78L242.978 281.559L262.004 306.361C272.467 320.003 281.986 331.178 283.159 331.194ZM383.752 321.458C385.705 339.704 385.933 350.017 384.824 369.54C384.048 383.21 382.608 409.374 381.625 427.684C378.624 483.575 372.836 506.344 356.667 525.869C347.277 537.209 346.637 537.634 339.134 537.52C321.733 537.255 272.925 527.453 259.357 521.497C249.344 517.102 226.428 502.709 221.132 497.487C208.997 485.523 211.594 472.822 231.705 445.782C251.471 419.204 271.466 397.424 282.467 390.49C287.226 387.492 287.218 387.487 290.602 395.955C295.769 408.885 302.177 410.881 309.291 401.775C312.647 397.477 313.887 394.033 313.956 388.806C314.073 379.984 310.397 375.384 302.04 373.891C294.903 372.618 294.072 369.888 294.353 348.658L294.521 335.993L308.877 333.804C336.646 329.571 362.605 318.063 373.925 304.969C376.953 301.467 379.843 298.518 380.349 298.414C380.854 298.313 382.386 308.681 383.752 321.458ZM205.272 397.489C202.27 422.49 190.56 454.658 184.489 454.577C181.171 454.533 177.963 444.512 177.386 432.387C176.772 419.464 179.658 410.926 192.996 386.201C198.057 376.82 202.795 367.441 203.526 365.356C205.973 358.379 207.217 381.286 205.272 397.489ZM302.701 391.564C301.152 393.419 298.445 390.506 298.491 387.036C298.529 384.13 298.734 384.138 301.107 387.138C302.524 388.927 303.241 390.918 302.701 391.564ZM426.075 449.584C429.999 464.646 429.957 465.264 424.807 468.343C422.446 469.757 420.157 471.15 419.722 471.441C419.288 471.733 419.684 464.27 420.602 454.857C421.52 445.444 422.434 437.744 422.632 437.746C422.83 437.749 424.38 443.075 426.075 449.584ZM502.175 462.181C505.012 463.522 511.757 467.529 517.163 471.085L526.993 477.551L518.236 481.783C513.417 484.11 502.701 490.73 494.42 496.493C486.14 502.256 471.02 510.738 460.822 515.345C424.24 531.864 407.612 544.322 386.422 571.084C354.386 611.545 328.734 658.795 307.321 716.781C298.07 741.835 280.637 799.71 280.552 805.654C280.526 807.485 279.905 808.977 279.171 808.968C278.439 808.958 270.308 804.462 261.104 798.975C251.901 793.491 240.907 787.459 236.672 785.575C229.126 782.214 228.981 782.001 229.353 774.764C229.927 763.641 240.625 722.516 248.791 700.054C264.626 656.497 284.836 621.921 321.544 575.585C338.95 553.611 392.196 502.403 417.132 483.655C446.678 461.441 481.842 452.56 502.175 462.181ZM542.57 487.118C545.57 489.354 548.022 491.315 548.02 491.473C548.017 491.631 543.244 491.699 537.412 491.626C519.79 491.402 502.819 503.575 468.638 540.962C434.375 578.44 422.278 603.304 393.068 696.3C374.362 755.855 362.146 805.196 358.789 834.741C357.66 844.69 355.998 853.45 355.096 854.207C351.951 856.849 328.683 855.488 325.528 852.476C322.779 849.851 323.095 849.644 329.789 849.677C342.859 849.74 345.905 845.094 337.187 838.395C331.663 834.151 307.087 822.441 293.94 817.787C287.524 815.517 285.089 813.746 285.124 811.373C285.215 804.96 293.374 772.856 300.751 749.878C322.73 681.406 356.869 614.793 391.256 573.281C412.295 547.883 429.619 535.032 463.931 519.369C476.313 513.717 493.162 504.622 501.372 499.157C519.997 486.763 524.514 484.647 535.264 483.284C536.282 483.155 539.569 484.879 542.57 487.118ZM233.94 519.964C254.543 532.794 277.843 540.979 304.145 544.625C313.924 545.982 324.268 547.549 327.132 548.109L332.34 549.126L322.318 560.79C281.373 608.437 256.033 652.811 237.978 708.478C233.151 723.361 224.526 756.815 221.471 772.508L220.454 777.73L202.494 777.492C184.606 777.254 184.538 777.236 185.587 772.984C191.698 748.214 190.995 729.227 182.01 676.324C175.614 638.67 175.381 636.074 175.768 606.757C176.08 583.184 176.945 572.205 179.597 558.168C183.395 538.053 185.422 532.249 196.909 508.582L204.801 492.323L210.636 500.704C214.937 506.879 221.069 511.948 233.94 519.964ZM554.239 505.725C558.164 507.565 563.029 511.663 565.052 514.831C571.211 524.477 580.458 544.655 586.191 560.952C591.703 576.622 601.19 615.155 599.912 616.682C599.528 617.141 597.057 612.047 594.418 605.362C588.208 589.626 580.176 573.515 575.197 566.811C564.05 551.799 546.04 557.507 516.574 585.39C493.111 607.592 445.393 663.226 442.255 672.043C438.846 681.609 438.068 747.741 441.01 777.719C443.885 807.006 443.694 824.197 440.434 829.745C436.462 836.506 426.99 841.107 410.633 844.223C402.249 845.822 388.4 848.56 379.858 850.311C371.316 852.063 363.827 853.11 363.216 852.639C361.942 851.657 362.977 840.852 366.562 817.741C370.907 789.746 409.82 658.39 426.389 615.791C435.247 593.019 456.713 562.165 481.599 536.435C500.621 516.769 508.856 509.808 518.266 505.435C527.551 501.12 544.718 501.258 554.239 505.725ZM569.134 571.52C574.879 578.857 589.647 612.141 595.883 631.799C606.15 664.172 607.639 674.603 608.075 717.193C608.848 792.568 601.665 828.339 571.015 901.799C563.494 919.821 548.84 934.254 530.456 941.741C518.302 946.693 517.169 946.383 524.416 940.091C547.676 919.894 562.654 884.378 568.058 836.595C571.525 805.947 571.236 688.758 567.606 652.882C565.36 630.688 560.598 607.731 554.416 589.299C548.804 572.558 548.79 572.448 552.138 570.98C553.99 570.169 556.558 569.036 557.843 568.463C562.503 566.381 565.811 567.276 569.134 571.52ZM546.638 590.258C560.008 628.138 564.076 675.056 562.798 776.608C561.972 842.126 558.979 863.531 546.468 893.419C540.617 907.393 527.467 928.511 526.108 926.117C525.919 925.782 524.947 922.926 523.951 919.772C521.301 911.389 518.072 907.124 507.552 898.113C502.376 893.678 496.696 887.644 494.932 884.708C493.168 881.77 488.655 874.402 484.903 868.331C481.152 862.259 478.309 857.297 478.585 857.301C478.862 857.304 482.513 859.401 486.699 861.958C490.886 864.517 497.302 867.756 500.956 869.156C506.58 871.314 507.831 871.288 509.105 868.998C511.87 864.024 509.358 855.066 503.229 848.052C496.005 839.785 484.66 834.958 465.595 832.038L451.377 829.86L451.414 814.37C451.432 805.849 450.401 791.703 449.12 782.932C447.358 770.868 446.936 755.936 447.392 721.613L447.993 676.242L455.65 665.299C474.724 638.041 532.923 578.179 540.254 578.276C541.445 578.292 544.316 583.685 546.638 590.258ZM153.407 614.553C155.009 616.383 157.054 619.612 157.954 621.729C159.312 624.928 166.434 655.24 165.805 655.14C165.695 655.124 162.835 653.837 159.448 652.284C152.075 648.901 134.779 648.224 127.934 651.05C120.859 653.971 119.537 661.371 125.024 667.328C129.921 672.645 131.69 672.773 148.806 669.071C163.432 665.905 170.062 667.599 172.247 675.064C173.731 680.125 178.921 721.035 180.051 736.581C181.142 751.572 178.184 768.092 173.208 774.79L169.406 779.908L166.389 775.109C164.729 772.47 162.273 766.012 160.929 760.759C154.56 735.864 148.272 727.81 130.358 721.604C123.617 719.268 117.28 717.347 116.273 717.334C115.267 717.321 114.458 716.162 114.477 714.761C114.579 707.06 96.1177 705.309 84.2482 711.897C69.5372 720.059 63.7378 732.356 57.0218 769.627C50.3025 806.913 52.0718 836.307 62.2093 855.801L65.8099 862.725L55.6683 863.754C48.9542 864.434 43.2472 866.378 38.7838 869.502C25.0072 879.15 15.2885 872.813 11.8573 851.943C7.54732 825.739 13.0844 771.205 22.8604 743.552C27.7219 729.803 36.8452 712.591 44.7165 702.321C47.0098 699.328 56.7395 689.881 66.3366 681.328C75.9338 672.772 86.8888 661.334 90.6812 655.905C104.595 635.987 111.548 627.708 119.998 620.999C134.916 609.154 146.694 606.882 153.407 614.553ZM157.698 658.669C159.804 659.717 157.468 660.749 149.609 662.236C134.716 665.052 129.078 664.851 129.123 661.503C129.142 660.021 130.036 658.388 131.107 657.873C134.143 656.417 154.393 657.022 157.698 658.669ZM105.644 721.806C107.408 725.223 110.399 727.056 116.96 728.74C144.438 735.792 149.459 740.039 154.16 760.211C155.932 767.816 158.294 776.291 159.41 779.045C161.271 783.64 161.103 784.424 157.37 788.536C151.17 795.368 147.405 806.714 147.201 819.176C147.021 830.195 151.072 849.548 155.251 857.646L157.45 861.907L134.575 863.854C121.994 864.923 108.162 865.743 103.84 865.676C95.9969 865.553 75.4603 857.864 71.2807 853.485C61.6794 843.428 59.1925 807.884 65.6895 773.582C72.6028 737.084 78.6641 725.124 92.9026 719.881C102.28 716.429 102.919 716.525 105.644 721.806ZM231.927 793.009C252.135 801.415 269.762 813.233 282.5 826.92C297.568 843.111 302.496 847.368 325.192 863.795C335.165 871.013 345.442 879.167 348.028 881.913C354.263 888.534 361.372 901.145 361.315 905.479C361.275 908.471 360.681 908.677 357.036 906.957C350.395 903.827 304.138 873.95 299.393 869.727C294.868 865.704 290.588 866.199 290.527 870.758C290.465 875.453 301.426 891.283 318.626 911.338C358.122 957.389 353.203 963.688 308.402 924.431C299.56 916.684 288.925 905.947 284.77 900.573C276.949 890.46 271.713 887.961 271.629 894.3C271.554 899.97 299.875 932.874 312.116 941.338C327.492 951.97 329.463 954.012 326.558 956.308C323.133 959.013 318.02 957.278 300.186 947.357C282.147 937.323 271.122 927.636 264.411 915.927C257.365 903.633 251.437 905.717 254.335 919.471C256.091 927.798 263.321 936.398 274.844 943.859C285.664 950.865 284.159 951.626 271.474 945.562C259.224 939.706 253.114 934.713 232.648 913.84C204.419 885.049 193.418 868.701 197.298 861.309C199.953 856.252 196.546 852.808 191.253 855.198C189.134 856.154 181.846 857.457 175.055 858.094C163.215 859.205 162.614 859.065 160.403 854.724C156.801 847.654 151.716 826.292 151.852 818.808C152.009 810.278 156.551 798.44 162.261 791.679L166.661 786.472L193.903 787.498C217.104 788.373 222.743 789.19 231.927 793.009ZM310.889 834.041C323.432 838.822 326.722 842.226 316.359 839.701C308.766 837.851 295.699 831.125 295.727 829.079C295.736 828.384 296.694 828.281 297.855 828.848C299.017 829.414 304.882 831.751 310.889 834.041ZM492.163 849.413C496.161 851.461 502.806 859.525 500.469 859.494C497.966 859.461 475.181 845.237 475.201 843.72C475.22 842.278 483.96 845.211 492.163 849.413ZM454.68 850.477C464.329 855.918 476.169 870.577 484.686 887.623C489.588 897.435 492.683 901.153 501.173 907.431C512.319 915.673 517.836 924.233 517.043 932.055C516.667 935.76 514.061 938.501 505.227 944.489C492.974 952.796 490.84 953.337 459.358 956.138C442.304 957.656 430.639 957.319 396.893 954.333C374.071 952.314 355.188 950.398 354.932 950.072C354.675 949.747 352.16 945.374 349.344 940.352C346.528 935.333 338.292 923.107 331.045 913.186C323.796 903.265 318.161 895.151 318.52 895.155C318.881 895.16 326.711 899.705 335.921 905.257C348.882 913.068 354.415 915.399 360.406 915.576C368.098 915.802 368.151 915.761 368.735 909.36C369.058 905.816 368.938 900.905 368.469 898.445C367.388 892.76 359.827 881.835 350.595 872.618L343.409 865.442L352.255 864.241C375.147 861.134 424.029 850.765 431.007 847.538C439.764 843.488 443.004 843.891 454.68 850.477ZM192.579 877.3C193.513 879.928 197.148 886.013 200.655 890.821C208.238 901.215 239.287 933.056 249.989 941.413L257.55 947.317L251.435 949.151C248.072 950.159 240.081 951.946 233.676 953.121C201.17 959.082 187.016 971.51 180.402 999.892C178.589 1007.68 178.257 1008.08 176.372 1004.81C175.241 1002.85 173.605 996.675 172.736 991.081C171.256 981.549 171.424 980.367 175.398 972.308C177.731 967.578 183.188 959.994 187.523 955.454C199.154 943.276 193.924 937.126 181.967 948.923C178.623 952.223 176.203 954.12 176.592 953.135C182.937 937.093 184.691 931.182 184.997 924.796C185.305 918.396 184.882 917.179 182.328 917.146C178.155 917.09 173.044 926.766 168.044 944.181C162.206 964.522 160.752 966.666 160.881 954.743C161.014 942.498 163.168 935.176 171.015 920.306C174.45 913.795 177.678 905.058 178.188 900.888C179.01 894.183 178.75 893.302 175.947 893.265C171.36 893.204 155.898 914.366 152.824 924.912C151.434 929.679 150.251 935.355 150.196 937.523C150.139 939.692 148.353 942.983 146.227 944.836L142.358 948.204L142.553 933.532C142.786 915.968 146.37 907.158 157.87 895.879C164.56 889.318 187.658 872.48 189.929 872.51C190.452 872.517 191.644 874.672 192.579 877.3Z" fill="#54BEA5"/>
</svg>
