<svg width="704" height="770" viewBox="0 0 704 770" fill="none" xmlns="http://www.w3.org/2000/svg">
<path fill-rule="evenodd" clip-rule="evenodd" d="M218.634 8.46338C168.91 25.7981 146.551 50.1256 143.536 90.1769L141.425 118.24H125.714C78.5941 118.24 41.1466 169.98 41.1466 235.09C41.1466 249.823 38.2699 255.886 26.8923 265.16C-12.4454 297.218 -7.46187 416.381 34.2315 440.662C39.3026 443.615 44.323 446.608 45.3925 447.32C46.4574 448.031 42.4789 454.302 36.555 461.255C0.730201 503.288 48.9008 627.385 105.918 639.958C114.838 641.925 122.293 648.11 126.47 657.008C153.001 713.566 255.787 737.965 292.031 696.308C313.518 671.614 322.877 669.271 327.454 687.424C329.308 694.768 330.857 696.516 331.119 691.566C331.373 686.855 329.603 677.27 327.187 670.262C324.195 661.587 324.656 650.534 328.635 635.628L334.476 613.735L337.537 663.625C342.493 744.51 354.197 758.288 409.846 748.774C457.265 740.663 489.978 742.122 521.275 753.744C536.705 759.472 550.19 763.212 551.241 762.053C560.59 751.747 484.132 737.075 440.774 740.851C354.788 748.347 352.395 747.321 345.342 699.839C340.095 664.525 339.344 458.693 344.194 385.045L347.541 334.225L350.588 364.717C352.261 381.488 353.856 442.304 354.128 499.863C354.765 632.295 359.361 728.599 364.865 724.848C367.189 723.268 367.793 718.241 366.207 713.688C364.621 709.135 361.417 615.275 359.084 505.112C356.756 394.95 353.759 303.621 352.432 302.157C346.595 295.719 344.443 310.411 339.325 391.743L333.886 478.198L323.181 468.624L312.472 459.049L322.665 414.424C334.079 364.463 336.988 268.55 327.832 244.07C324.605 235.441 324.14 225.78 326.606 218.66C330.446 207.576 330.7 207.708 333.793 222.421C338.758 246.037 341.022 249.686 338.528 230.044C337.283 220.261 334.323 183.671 331.945 148.732C322.895 15.7561 295.392 -18.2984 218.634 8.46338ZM295.64 19.0238C301.924 25.9455 310.517 43.4174 314.745 57.8401C323.826 88.8353 329.916 147.095 322.388 130.945C318.829 123.312 318.516 125.837 321.12 141.109C330.354 195.176 324.352 233.124 308.991 217.796C287.743 196.599 254.45 219.905 272.235 243.526C278.952 252.45 307.779 249.772 313.426 239.7C335.476 200.365 330.912 402.466 308.715 448.184C302.343 461.311 267.15 465.579 242.699 456.188C217.186 446.39 216.329 446.532 216.329 460.487C216.329 493.876 275.31 507.384 299.001 479.423C325.961 447.615 341.04 493.973 331.488 579.305C322.964 655.438 318.552 662.329 308.35 615.448C293.013 544.976 242.468 523.154 152.941 548.35C126.783 555.709 104.208 560.435 102.769 558.849C96.6933 552.151 107.711 545.199 133.15 539.685C241.154 516.262 219.943 383.52 107.993 382.245C57.9826 381.676 32.2308 363.68 59.5869 348.424C76.9945 338.717 94.84 340.455 133.758 355.651C209.654 385.289 223.484 313.948 149.326 275.324C106.739 253.142 88.0171 211.022 107.614 181.475C116.47 168.125 119.559 173.11 123.805 207.607C128.318 244.263 139.599 256.104 183.87 270.639C232.059 286.459 242.597 305.954 227.854 352.012C217.541 384.232 218.947 406.181 232.257 420.848C260.581 452.071 313.647 417.422 307.756 371.552C305.506 354.035 289.398 355.722 284.977 373.936C280.118 393.969 272.323 402.832 259.562 402.832C233.958 402.832 250.351 318.832 278.86 303.921C310.001 287.628 310.757 258.559 279.717 270.934C257.949 279.609 241.103 273.795 219.727 250.23C192.772 220.515 196.326 213.675 250.43 191.161C303.496 169.08 309.853 74.748 260.037 48.5655C231.616 33.6244 203.241 58.6888 225.789 78.8186L236.788 88.6371L223.101 86.9244C203.508 84.4647 201.563 62.8103 219.533 47.1984C246.811 23.496 284.364 44.134 307.184 95.3707C315.348 113.702 317.677 116.532 315.538 105.535C302.482 38.2846 217.117 3.89465 204.191 60.6759C198.534 85.5269 225.014 104.285 239.186 85.4659C244.211 78.7882 243.699 77.5837 235.825 77.5837C223.087 77.5837 218.265 61.8143 228.486 53.5763C260.821 27.5158 297.826 85.6082 285.959 143.812C280.63 169.954 269.123 181.15 236.733 191.695C202.72 202.774 193.56 215.413 204.154 236.65C221.838 272.113 254.104 287.963 283.516 275.64C290.371 272.768 296.894 271.427 298.019 272.662C302.606 277.723 289.555 295.154 278.994 298.077C260 303.331 247.576 328.467 245.1 366.653C241.73 418.515 266.602 427.144 287.01 381.193C296.807 359.142 303.92 356.591 303.92 375.135C303.92 405.49 284.304 428.242 258.124 428.242C227.707 428.242 218.685 399.778 233.114 349.313C246.516 302.457 234.285 282.109 182.514 265.11C145.924 253.096 128.738 237.296 128.738 215.662C128.738 174.152 120.864 161.538 104.899 177.47C79.5715 202.738 101.174 253.868 148.58 280.864C184.884 301.537 188.503 306.467 188.599 335.399C188.696 364.722 176.701 367.883 133.03 350.035C95.8865 334.86 79.8758 333.656 56.7794 344.292C21.895 360.362 53.2987 387.566 106.748 387.576C215.513 387.606 234.285 510.484 129.314 535.305C102.769 541.576 88.2384 553.336 96.1953 562.107C99.6898 565.959 116.166 563.52 152.964 553.696C217.21 536.55 226.923 536.575 258.068 554.022C294.078 574.187 323.628 634.597 294.322 628.138C277.546 624.438 275.78 638.261 290.408 658.762C320.037 700.287 261.655 726.368 192.094 702.68C135.925 683.557 108.006 642.072 151.097 641.762C166.255 641.656 194.385 609.73 192.463 594.815C189.153 569.115 143.075 585.454 129.9 616.998C108.481 668.295 27.3164 582.593 27.3164 508.68C27.3164 472.826 59.9004 433.68 78.9445 446.654C82.0425 448.768 82.7616 447.823 80.7655 444.266C74.0716 432.318 131.043 421.61 145.334 432.13C168.315 449.048 164.014 519.718 140 519.718C134.952 519.718 133.348 512.456 133.348 489.587C133.348 453.245 126.327 443.132 101.903 444.301L84.9422 445.114L101.059 447.259C125.248 450.476 128.738 456.162 128.738 492.387C128.738 543.741 160.773 535.848 164.286 483.636C168.126 426.504 138.908 409.23 78.2622 432.775C34.7156 449.678 10.1716 425.02 5.40482 359.579C0.541206 292.776 33.6553 231.309 50.4405 275.985C61.9288 306.553 101.077 319.843 101.077 293.178C101.077 274.145 77.875 250.372 59.2964 250.372H44.4659L47.1029 222.192C53.875 149.88 133.666 80.5974 144.075 137.988C153.678 190.917 248.599 183.132 248.599 129.415C248.599 98.0134 225.323 97.3476 208.745 128.282C197.312 149.621 190.402 150.719 167.605 134.802C143.863 118.235 139.479 89.0233 156.195 58.8006C180.311 15.2072 269.179 -10.1469 295.64 19.0238ZM464.627 19.4863C408.638 38.4879 350.528 144.168 350.099 227.757C350.058 236.285 347.734 245.778 344.945 248.852C341.713 252.415 341.188 260.643 343.502 271.467C346.642 286.19 347.905 281.967 352.856 240.208C372.532 74.2753 437.073 -0.10994 541.039 23.3283C647.471 47.3204 706.969 130.223 698.514 242.749L696.222 273.241L701.003 247.831C726.312 113.249 586.452 -21.8609 464.627 19.4863ZM243.247 120.334C250.609 162.194 194.445 186.593 161.363 155.902C136.607 132.937 142.052 121.426 168.361 141.109C190.665 157.793 191.439 157.615 213.254 130.853C232.363 107.41 240.472 104.564 243.247 120.334ZM308.945 222.97C314.173 229.917 313.776 232.209 306.322 238.216C287.803 253.142 266.219 242.815 273.319 222.421C276.864 212.236 301.145 212.613 308.945 222.97ZM85.1497 267.93C100.178 284.492 100.275 301.192 85.3525 301.192C73.6061 301.192 50.3667 275.614 50.3667 262.686C50.3667 250.89 72.7532 254.265 85.1497 267.93ZM685.223 302.452C668.299 361.637 649.412 385.99 481.135 565.609C426.87 623.523 364.169 704.713 369.318 710.39C370.462 711.65 381.567 697.278 394.001 678.454C416.387 644.568 482.657 569.354 585.364 461.275C650.763 392.46 702.663 306.182 694.637 279.634C693.821 276.935 689.584 287.201 685.223 302.452ZM250.904 464.467C258.511 467.043 272.516 467.744 282.022 466.032C301.002 462.617 303.247 465.844 291.68 479.931C278.832 495.584 235.677 490.461 224.466 471.947C217.993 461.26 220.547 452.387 229.007 456.178C233.446 458.165 243.298 461.895 250.904 464.467ZM186.391 590.912C194.924 606.138 171.215 632.452 143.72 638.266C131.425 640.863 128.738 639.836 128.738 632.528C128.738 607.403 176.364 573.028 186.391 590.912ZM308.35 642.647C318.331 654.452 320.807 667.096 313.14 667.096C310.605 667.096 308.383 663.097 308.207 658.203C307.922 650.402 307.456 650.514 304.409 659.072C301.122 668.331 300.541 668.209 293.211 656.673C277.809 632.432 290.099 621.048 308.35 642.647ZM328.63 717.657C323.176 747.712 271.728 763.522 206.901 755.055C185.377 752.245 151.788 760.585 151.788 768.741C151.788 771.104 157.495 770.042 164.466 766.373C172.755 762.018 196.593 759.69 233.299 759.65C295.226 759.584 318.373 753.887 325.965 736.842C332.973 721.118 337.352 702.67 334.079 702.67C332.581 702.67 330.128 709.414 328.63 717.657Z" fill="#30C5A2"/>
</svg>
