<svg width="1512" height="952" viewBox="0 0 1512 952" fill="none" xmlns="http://www.w3.org/2000/svg">
<path fill-rule="evenodd" clip-rule="evenodd" d="M1097.3 10.2581C1108.81 16.6697 1131.94 34.9984 1148.69 50.9949C1196.38 96.5184 1224.66 143.025 1224.66 175.893C1224.66 189.886 1213.08 214.86 1203 222.598C1195.81 228.111 1194.67 228.008 1188.56 221.321C1182.05 214.183 1181.65 214.279 1165.79 226.811C1133.8 252.079 1133.17 253.138 1134.49 279.255L1135.68 302.73L1124.43 305.299C1110.96 308.377 1101.09 315.144 1083.39 333.43C1074.91 342.186 1066.75 347.106 1060.7 347.106C1050.82 347.106 1030.05 332.383 1015.53 315.086C1005.7 303.387 1001.48 306.996 1001.39 327.168C1001.33 342.583 998.002 341.115 969.446 313.052C953.569 297.453 949.005 294.705 945.861 298.857C942.766 302.94 946.73 307.057 965.049 318.795C994.792 337.858 1023.39 371.479 1030.44 395.677C1033.38 405.762 1037.67 429.88 1039.98 449.275C1044.83 489.989 1042.74 574.724 1036.73 581.307C1033.76 584.565 1029.71 582.428 1020.68 572.839C1010.56 562.092 1007.74 560.799 1003.27 564.864C998.798 568.931 995.965 567.551 985.682 556.284C967.579 536.449 970.667 518.774 990.232 530.244C995.661 533.429 996.034 528.118 995.145 460.469C993.958 369.927 993.309 365.324 980.018 353.07C960.331 334.921 931.112 343.172 905.625 374.079C885.666 398.288 877.822 420.524 878.056 452.246C878.255 479.196 891.947 549.739 896.979 549.739C898.469 549.739 907.436 544.459 916.91 538.009C949.846 515.574 971.03 527.01 976.065 569.948L978.661 592.066L1006.58 593.324C1021.93 594.012 1053.13 599.472 1075.92 605.451L1117.36 616.325L1147.46 607.149C1189.37 594.375 1212.84 593.194 1227.4 603.13C1233.7 607.435 1239.76 613.549 1240.87 616.715C1243.91 625.405 1235.05 634.726 1225.62 632.749C1220.19 631.614 1216.31 633.33 1214.1 637.865C1209.28 647.733 1168.46 657.176 1114.75 660.846C1089.8 662.552 1051.33 666.734 1029.26 670.137C956.873 681.308 940.09 674.029 921.45 623.371C915.444 607.053 906.683 588.545 901.979 582.236L893.423 570.767L893.297 584.714C893.214 593.817 898.573 610.425 908.71 632.505C921.683 660.762 927.012 668.336 940.986 678.395C961.902 693.447 983.04 700.822 1027.44 708.561C1052.69 712.961 1062.62 713.443 1063.57 710.312C1066.67 700.13 1087.34 697.691 1189.77 695.447L1296.19 693.111L1336.46 584.148C1382.56 459.38 1398.63 421.358 1410.33 409.311C1416.02 403.453 1429.04 398.437 1451.87 393.287C1470.16 389.166 1487.36 385.258 1490.1 384.608C1502.44 381.68 1493.9 410.886 1427.79 597.529C1397.04 684.356 1392.29 699.767 1388.48 725.138C1385.05 747.99 1377.23 763.841 1369.39 763.841C1366.33 763.841 1364.23 760.251 1364.23 755.013C1364.23 750.158 1362.27 743.257 1359.87 739.678C1355.89 733.733 1352.21 733.572 1317.13 737.831C1281.63 742.136 1279.91 742.71 1294.27 745.451C1302.82 747.08 1317.73 752.704 1327.42 757.953C1337.12 763.199 1352.05 767.963 1360.62 768.536C1375.22 769.511 1376.35 770.383 1378.56 782.342C1381.86 800.139 1376.52 842.428 1369.5 854.177C1366.28 859.556 1357.11 867.008 1349.11 870.736C1341.12 874.459 1331.43 878.948 1327.6 880.71C1314.55 886.701 1383.53 889.145 1577.96 889.58C1702.73 889.859 1769 891.335 1769 893.832C1769 900.194 1381.44 900.079 1329.34 893.702C1285.68 888.357 1285.38 888.407 1296.53 898.913C1304.18 906.124 1305.52 909.809 1303.57 918.305C1301.72 926.36 1296.54 931.12 1281.23 938.809C1264.58 947.174 1254.94 949.093 1222.71 950.454C1189.11 951.876 1183.31 951.207 1177.9 945.281C1173.86 940.85 1172.21 934.634 1173.17 927.457C1174.84 915.005 1169.87 908.769 1166.74 919.398C1160.61 940.292 1157.41 943.534 1142.94 943.53C1134.29 943.53 1119.8 938.916 1106.03 931.774C1084.3 920.511 1082.05 920.124 1051.94 922.495C1013.02 925.561 952.62 919.413 921.338 909.205C896.556 901.119 872.438 884.637 863.98 870.013C841.219 830.641 869.266 775.414 928.065 743.819C954.044 729.856 989.984 718.413 1010.07 717.706C1016.45 717.48 1011.02 715.114 996.108 711.627C964.7 704.286 931.101 686.695 919.415 671.483C898.378 644.085 880.076 588.396 886.256 570.583C888.667 563.636 887.086 551.501 880.181 523.924C867.563 473.526 867.036 425.655 878.82 400.632C889.162 378.675 912.011 352.474 929.398 342.633C938.977 337.212 947.937 335.346 960 336.256C974.955 337.387 976.295 336.91 970.88 332.352C967.481 329.492 958.625 324.082 951.193 320.332C938.041 313.687 937.364 313.71 925.689 321.257C915.085 328.116 912.611 328.414 904.306 323.845C899.142 321.001 893.814 318.076 892.467 317.342C888.974 315.434 870.575 356.649 863.816 381.515C857.151 406.053 852.563 477.475 849.572 603.264C847.35 696.846 849.68 728.77 858.529 725.907C913.714 708.044 949.001 703.632 949.001 714.598C949.001 716.482 935.26 724.978 918.47 733.473C878.67 753.614 867.553 765.661 858.442 798.522C849.108 832.19 826.201 860.52 792.94 879.537C739.392 910.146 692.052 906.839 675.282 871.309C665.565 850.717 649.918 683.572 656.056 665.889C660.177 654.01 678.964 653.425 692.122 664.765L701.376 672.741L694.512 659.986C690.74 652.97 686.63 640.216 685.381 631.641C680.782 600.072 702.597 594.868 747.146 616.906C784.859 635.563 793.798 632.397 761.724 611.744C731.601 592.349 716.335 578.738 713.421 568.687C710.288 557.867 706.247 559.469 700.929 573.634C695.507 588.086 637.678 655.054 623.86 662.884C618.692 665.809 611.975 667.159 608.932 665.878C601.486 662.747 559.205 601.135 554.292 586.255C550.381 574.399 550.36 574.391 527.243 575.725C509.419 576.754 494.893 574.311 463.981 565.093C385.921 541.817 395.956 542.478 379.985 559.568C372.277 567.811 354.886 590.506 341.337 610.001C320.705 639.688 317.072 647.075 318.995 655.463C321.887 668.084 374.402 727.103 380.697 724.802C383.265 723.865 390.886 708.912 397.631 691.574C425.211 620.687 446.66 621.272 523.143 695C573.774 743.803 589.416 764.231 617.342 817.994C630.692 843.697 647.284 869.504 658.115 881.406C674.682 899.616 675.771 901.83 669.853 905.302C647.504 918.408 615.775 897.835 575.522 844.129C565.277 830.461 551.299 812.729 544.459 804.727L532.023 790.172L530.083 800.904C528.611 809.055 530.495 814.648 537.934 824.191C554.024 844.829 548.856 873.205 526.36 887.768C504.984 901.604 412.565 904.759 370.295 893.098C350.127 887.531 327.896 864.106 327.896 848.419C327.896 835.313 331.993 831.054 350.765 824.635C363.31 820.345 364.883 818.472 364.883 807.866C364.883 785.561 377.099 766.854 399.738 754.486C417.51 744.778 424.227 743.238 448.279 743.352C465.963 743.436 480.988 745.742 489.279 749.645C496.474 753.033 502.364 754.841 502.364 753.667C502.364 747.03 455.174 680.043 447.965 676.445C440.271 672.603 439.001 673.184 435.968 681.924C434.102 687.299 432.542 694.594 432.5 698.138C432.378 708.362 420.326 734.463 411.958 742.622C405.332 749.087 402.854 749.477 393.377 745.558C382.763 741.169 381.824 741.693 361.09 763.505C349.345 775.861 326.082 795.723 309.392 807.644C290.947 820.819 279.063 831.849 279.087 835.768C279.108 839.316 281.352 851.375 284.07 862.565C288.728 881.739 288.609 883.352 282.032 890.559C275.301 897.934 271.902 898.125 188.94 895.885C83.062 893.029 66.1945 891.366 66.1945 883.788C66.1945 878.856 48.9467 878.267 -66.4044 879.284C-170.722 880.202 -199 879.43 -199 875.671C-198.996 871.932 -170.105 870.892 -66.1672 870.892H66.6586L77.7687 861.816C83.8785 856.827 99.1863 849.05 111.79 844.535C135.441 836.062 146.272 826.302 170.565 791.56C182.739 774.156 189.484 771.434 194.777 781.795C197.775 787.668 199.233 787.32 210.319 778.052C217.05 772.428 240.369 747.164 262.139 721.908C302.532 675.05 313.939 667.182 313.939 686.168C313.939 704.21 300.805 727.05 266.92 767.94C248.751 789.87 233.837 809.609 233.785 811.811C233.729 814.014 239.895 822.459 247.487 830.584C262.617 846.771 267.652 862.321 261.707 874.49C256.992 884.144 242.728 884.755 217.981 876.363C200.409 870.407 143.403 870.911 94.1094 877.464L74.9178 880.018L94.1094 882.721C104.665 884.212 150.769 885.6 196.56 885.807L279.823 886.185L276.986 871.848C275.427 863.965 274.073 849.769 273.982 840.306L273.811 823.102L303.471 801.588C319.783 789.759 342.468 770.704 353.878 759.249L374.629 738.424L346.833 708.121C331.201 691.081 316.141 670.645 312.414 661.431C305.896 645.312 305.896 644.892 312.48 635.881C316.161 630.845 330.649 610.288 344.673 590.204C358.7 570.117 373.523 551.115 377.612 547.976C381.702 544.837 384.092 541.221 382.923 539.94C376.768 533.196 308.523 514.855 281.823 512.768C232.169 508.891 222.305 522.968 246.106 563.736L258.528 585.012L292.34 583.624L326.151 582.236L327.261 594.911C327.872 601.884 326.504 610.054 324.218 613.071C315.094 625.118 271.309 615.021 258.364 597.885C255.625 594.257 249.162 588.9 244.005 585.976C233.82 580.206 223.271 559.679 223.121 545.338C223.024 536.204 171.814 464.453 124.25 406.802C101.071 378.709 96.5938 366.222 109.703 366.222C112.662 366.222 115.045 362.919 115.045 358.809C115.045 343.543 170.638 343.237 199.184 358.346C207.569 362.789 214.862 365.087 215.389 363.454C223.243 339.1 240.034 328.005 269.045 327.997C287.594 327.99 289.419 328.862 301.471 343.478C308.708 352.252 327.181 387.942 344.083 425.804C368.422 480.312 373.143 493.671 369.674 498.247C362.329 507.947 383.827 504.685 397.683 494C435.867 464.553 440.923 461.804 456.814 461.842C485.085 461.907 533.81 493.365 546.155 519.52C550.992 529.77 550.911 531.567 545.227 540.116C537.837 551.237 520.425 561.208 508.394 561.208C503.655 561.208 483.479 556.059 463.559 549.762C423.016 536.95 403.046 534.763 432.577 546.37C458.363 556.51 506.98 568.866 520.819 568.801C540.953 568.71 547.502 564.734 554.551 548.332C558.284 539.641 565.989 525.652 571.677 517.241C577.364 508.83 583.111 497.846 584.448 492.833C586.81 483.963 586.66 483.887 578.735 489.966C567.091 498.905 565.172 497.884 565.172 482.755C565.172 464.939 578.463 429.857 595.823 401.844C609.609 379.604 649.632 335.636 656.094 335.636C663.921 335.636 658.3 327.539 645.515 320.393L631.641 312.636L620.552 323.494C611.145 332.704 609.212 337.651 607.816 356.091C606.909 368.05 604.888 378.702 603.322 379.764C601.751 380.823 597.833 375.605 594.609 368.161C591.388 360.717 587.654 353.889 586.318 352.982C584.981 352.076 574.088 360.702 562.112 372.145C550.137 383.588 536.835 393.914 532.554 395.092C520.749 398.338 507.567 391.161 496.572 375.501C473.674 342.893 466.654 335.636 458.011 335.636C451.468 335.636 449.811 334.115 451.402 329.569C458.942 308.036 457.411 295.55 444.901 276.544C438.041 266.126 431.516 251.341 430.4 243.699C428.655 231.736 427.263 230.027 420.417 231.46C410.374 233.567 406.909 227.469 407.576 208.857C407.865 200.782 406.469 194.176 404.477 194.176C395.953 194.176 383.726 175.182 383.726 161.942C383.726 146.225 391.716 138.884 413.385 134.694C432.685 130.966 439.556 126.405 439.556 117.325C439.556 103.018 446.576 94.9509 474.229 77.471C489.349 67.9205 505.871 54.1376 510.944 46.8467C523.593 28.6747 536.772 22.1255 560.636 22.1522C588.998 22.179 605.251 28.0668 619.208 43.356C625.824 50.6049 634.509 56.5386 638.505 56.5386C675.914 56.5386 708.11 125.743 708.208 206.353C708.239 231.021 704.712 243.488 691.958 263.801C683.587 277.137 683.297 279.125 687.171 296.811C691.082 314.681 691.975 315.752 704.897 318.015C744.12 324.885 814.483 422.799 827.153 488.138C831.672 511.437 829.993 547.85 824.107 554.3C821.211 557.473 817.142 556.303 808.492 549.811C791.628 537.149 772.367 507.262 754.24 465.627C745.544 445.651 731.468 416.403 722.964 400.632C714.458 384.861 702.915 362.028 697.311 349.889C688.235 330.23 686.372 328.265 680.234 331.867C675.108 334.872 673.342 339.884 673.342 351.43C673.342 362.579 668.97 375.75 657.836 398.131C645.047 423.843 641.457 435.722 637.36 465.895C629.6 523.06 621.634 535.826 579.13 559.213C568.574 565.024 559.502 570.189 558.968 570.698C552.987 576.379 605.234 656.733 614.934 656.767C623.357 656.797 673.922 603.169 687.781 579.503C693.992 568.893 700.898 552.354 703.124 542.746C708.634 518.973 715.215 517.398 715.215 539.852C715.215 554.59 717.207 559.779 727.79 572.613C734.706 581.002 748.887 593.209 759.306 599.739C783.156 614.688 799.566 629.683 797.019 634.198C792.734 641.795 766.93 637.211 739.455 623.975C705.151 607.447 694.278 608.246 694.278 627.29C694.278 642.197 703.766 662.831 723.666 691.199C742.826 718.513 743.939 720.787 739.577 723.739C737.56 725.104 723.299 712.216 707.883 695.095C687.146 672.072 677.872 664.28 672.236 665.159C665.355 666.233 664.518 668.936 663.565 693.111C662.135 729.424 675.743 850.205 683.161 867.038C691.592 886.17 701.735 890.636 732.93 888.953C790.682 885.837 836.867 847.123 853.03 788.279C860.173 762.27 869.898 750.853 900.15 732.968C924.681 718.467 925.448 717.641 912.363 719.786C904.687 721.044 888.559 725.781 876.521 730.311C843.933 742.58 842.883 740.699 841.407 667.178C840.025 598.589 846.428 429.65 851.607 397.944C855.693 372.947 883.831 305.803 891.591 302.542C894.383 301.368 899.704 292.877 903.42 283.674C907.136 274.476 914.003 261.324 918.682 254.457C923.362 247.587 929.049 237.665 931.324 232.408C938.865 214.982 895.206 268.328 886.343 287.372C881.451 297.878 868.429 314.78 856.038 326.698C842.063 340.144 833.504 351.606 832.059 358.824C828.455 376.809 823.385 371.781 823.385 350.218C823.385 339.31 820.077 317.468 816.029 301.674C805.903 262.123 807.948 239.057 823.741 214.695C841.603 187.133 858.854 178.883 898.601 178.883H930.462L936.29 146.389C950.69 66.0891 977.904 22.7258 1015.22 20.623C1024.16 20.1183 1032.1 16.7079 1037.66 10.9845C1051.65 -3.41004 1072.29 -3.66238 1097.3 10.2581ZM1040.36 20.2177C1032.99 27.0154 1025.86 29.7758 1015.68 29.7758C996.701 29.7758 977.014 48.9953 963.315 80.9043C953.101 104.7 942.023 147.475 942.023 163.131C942.023 182.848 936.757 186.529 908.553 186.529C869.73 186.529 853.958 192.073 837.667 211.438C815.97 237.226 813.559 251.804 823.42 297.561C827.931 318.504 832.234 335.636 832.984 335.636C839.554 335.636 871.192 299.086 880.673 280.547C892.718 256.984 910.064 234.679 930.588 216.351C940.404 207.592 943.017 201.023 951.085 164.878C961.985 116.051 971.476 93.8039 989.719 74.3244C1027.03 34.4784 1092.16 25.7347 1134.34 54.9023C1153.52 68.1728 1149.07 61.4133 1125.51 41.4941C1086.42 8.45737 1060.22 1.90812 1040.36 20.2177ZM535.736 35.6751C530.101 38.8943 520.313 48.158 513.983 56.2633C507.65 64.3686 495.773 74.7908 487.587 79.4246C463.178 93.2495 450.753 105.373 448.261 117.795C445.439 131.876 436.799 138.28 412.244 144.496C402.024 147.081 392.826 151.581 391.804 154.49C388 165.36 394.393 179.342 405.506 184.465C415.919 189.263 416.519 190.613 415.591 207.163C413.979 235.868 425.043 228.83 432.231 196.573C437.919 171.041 449.971 146.114 469.002 120.517C490.598 91.4717 526.022 71.6902 561.425 68.9145C618.957 64.4069 649.451 103.519 669.508 207.557C681.169 268.056 679.986 264.233 685.506 259.213C695.737 249.915 702.22 217.838 699.708 188.965C693.256 114.771 672.097 72.5505 637.87 65.573C631.47 64.2693 620.503 57.2192 613.496 49.9091C594.849 30.4449 557.014 23.521 535.736 35.6751ZM1027.03 58.1826C1003.21 70.1112 986.139 86.7921 976.26 107.793C969.62 121.916 951.451 194.31 953.876 196.971C954.501 197.655 958.995 196.554 963.859 194.528C974.25 190.2 976.916 192.215 976.916 204.403C976.916 209.935 969.582 222.101 957.725 236.232C937.563 260.261 935.208 266.684 943.726 274.426C947.972 278.288 949.322 277.852 951.137 272.029C952.358 268.11 957.003 255.872 961.455 244.834C968.87 226.456 970.524 224.762 981.086 224.77L992.618 224.777V201.054C992.618 178.348 993.128 176.952 1004.48 168.549C1011 163.72 1020.89 159.767 1026.46 159.767C1038.37 159.767 1044.4 172.135 1048.41 204.82L1050.88 225.018L1076.97 209.599C1105.65 192.65 1123.57 190.181 1158.43 198.374C1168.26 200.679 1177.26 201.509 1178.44 200.213C1187.4 190.391 1182.51 135.34 1170.38 109.648C1143.6 52.9104 1081.84 30.7393 1027.03 58.1826ZM1167.17 88.8107C1185.91 115.742 1196.94 165.582 1190.12 192.616C1187.34 203.65 1187.49 207.947 1190.72 210.191C1196.8 214.42 1200.55 212.371 1208.75 200.343C1224.27 177.552 1212.79 137.565 1179.14 97.2181C1158.87 72.9213 1153.46 69.1209 1167.17 88.8107ZM524.246 87.6141C490.183 101.298 449.322 153.332 441.499 192.983L439.095 205.172L449.72 200.779C458.799 197.024 461.696 197.491 469.658 204.005C474.784 208.196 481.808 217.414 485.27 224.487C497.064 248.581 509.175 259.171 524.944 259.171C537.271 259.171 540.133 257.516 545.712 247.174C556.438 227.274 564.199 220.939 577.846 220.939C587.857 220.939 592.986 223.806 602.271 234.592C608.733 242.1 614.268 251.995 614.568 256.575C615.618 272.717 613.444 284.091 608.053 290.633C603.552 296.096 603.444 297.534 607.442 298.918C626.609 305.543 630.95 304.653 651.942 289.788C663.712 281.449 673.342 273.918 673.342 273.05C673.342 267.261 658.118 188.441 653.715 171.435C646.321 142.887 630.734 110.328 618.235 97.3366C596.081 74.3053 565.305 71.1206 524.246 87.6141ZM1011.88 173.106C999.273 180.252 996.746 188.892 999.698 214.779C1002.12 235.976 997.87 245.427 989.872 236.664C980.587 226.49 974.058 232.37 964.257 259.745L954.469 287.077L973.542 305.54L992.618 323.998L993.683 306.878C994.988 285.869 999.51 285.196 1015.49 303.636C1028.43 318.573 1055.94 339.46 1062.67 339.46C1064.94 339.46 1074.98 330.907 1084.99 320.45C1096.56 308.357 1107.5 300.554 1115.07 298.998C1126.93 296.559 1126.96 296.509 1126.96 274.889C1126.96 249.357 1131.36 241.133 1153.08 226.1C1161.73 220.109 1168.82 213.946 1168.82 212.409C1168.83 207.71 1151.12 204.403 1125.33 204.292C1103.7 204.197 1098.67 205.63 1082.98 216.37C1064.94 228.715 1043.27 236.136 1043.14 230.019C1042.82 214.741 1035.88 177.281 1032.55 172.888C1027.33 165.998 1024.37 166.029 1011.88 173.106ZM954.707 209.748C949.65 214.103 945.484 219.696 945.449 222.174C945.414 224.647 936.778 241.102 926.258 258.739C915.737 276.376 907.129 292.097 907.129 293.68C907.129 295.259 912.848 297.729 919.837 299.166C928.987 301.047 934.008 300.176 937.762 296.066C942.94 290.388 942.27 285.793 934.552 274.101C928.233 264.528 933.453 251.318 952.418 228.891C962.052 217.498 969.938 206.743 969.938 204.996C969.938 199.681 964.372 201.417 954.707 209.748ZM438.509 235.998C439.008 247.743 442.815 258.062 452.086 272.809C463.677 291.252 464.749 295.018 462.816 310.483C460.827 326.388 461.361 328.032 470.018 332.604C475.161 335.323 486.229 347.45 494.614 359.547C520.226 396.51 525.673 396.705 560.734 361.891L583.624 339.161L591.845 347.622L600.066 356.087V347.523C600.066 337.234 606.273 323.413 612.788 319.196C620.869 313.966 618.033 309.833 604.455 307.042C585.463 303.135 584.831 301.778 596.486 289.849C612.851 273.099 608.371 243.347 587.951 233.154C574.025 226.199 572.301 227.018 553.106 249.613C539.78 265.3 532.798 270.641 525.61 270.641C509.297 270.641 496.512 260.295 483.239 236.35C467.261 207.531 462.01 204.009 448.279 212.902C439.011 218.905 437.891 221.55 438.509 235.998ZM657.078 297.404C647.999 303.712 642.329 308.874 644.475 308.874C646.624 308.874 652.821 312.953 658.244 317.935C665.753 324.832 669.982 326.231 675.959 323.792C680.279 322.033 683.81 319.445 683.81 318.042C683.81 313.932 675.827 285.934 674.654 285.934C674.068 285.934 666.158 291.095 657.078 297.404ZM901.023 309.829C902.781 315.622 912.395 318.061 920.319 314.727C925.323 312.624 925.413 311.795 920.989 308.728C913.312 303.406 899.306 304.182 901.023 309.829ZM697.768 330.674C697.768 332.153 709.359 355.808 723.526 383.243C737.697 410.683 756.93 450.246 766.271 471.163C785.727 514.733 813.737 551.88 819.752 542.092C826.061 531.827 823.496 502.598 813.538 471.251C797.539 420.891 757.963 361.069 725.92 338.802C711.244 328.605 697.768 324.713 697.768 330.674ZM244.466 341.681C220.159 352.336 220.333 361.061 245.984 418.284C269.034 469.699 275.301 488.567 269.324 488.567C264.627 488.567 228.181 418.215 221.125 395.516C216.694 381.271 212.719 375.88 202.38 370.103C182.219 358.832 158.75 353.583 141.324 356.446L125.639 359.023L157.221 397.99C201.833 453.029 235.596 511.219 226.495 517.382C224.692 518.606 223.215 521.454 223.215 523.718C223.215 525.981 226.44 523.339 230.383 517.849C241.978 501.696 260.726 498.343 299.385 505.496C317.568 508.864 333.095 510.91 333.887 510.042C334.679 509.174 326.982 505.496 316.783 501.868C293.052 493.43 289.335 489.607 298.031 482.576C308.08 474.447 324.232 475.988 341.337 486.701C357.999 497.138 362.79 498.339 362.79 492.084C362.79 481.627 306.534 362.449 295.606 349.752C281.676 333.572 267.914 331.4 244.466 341.681ZM627.977 373.49C605.757 398.204 584.852 435.542 575.717 466.839C570.155 485.887 573.711 489.561 580.491 471.775C588.886 449.761 594.116 454.28 592.497 482.144C591.283 502.984 589.371 508.643 578.592 523.244C562.957 544.432 556.547 557.385 561.7 557.385C567.887 557.385 591.395 543.159 603.213 532.263C618.999 517.711 623.581 505.756 629.177 464.534C631.899 444.496 636.449 423.212 639.286 417.232C642.127 411.257 649.377 396.3 655.407 383.993C661.433 371.69 666.364 356.576 666.364 350.406C666.364 339.98 665.812 339.509 658.513 343.726C654.193 346.219 640.455 359.612 627.977 373.49ZM997.748 365.267C999.412 371.047 1001.73 413.631 1002.91 459.892L1005.04 544.004L1018.53 558.846L1032.03 573.688L1034.64 535.906C1037.71 491.736 1029.88 412.954 1020.39 392.404C1014.26 379.134 998.54 354.753 996.111 354.753C995.351 354.753 996.087 359.486 997.748 365.267ZM139.565 412.847C177.808 460.106 182.352 464.71 161.841 435.416C139.101 402.941 114.564 373.123 112.467 375.421C111.539 376.438 123.734 393.28 139.565 412.847ZM1421.03 411.987C1410.89 416.796 1391.72 458.959 1356.85 553.13C1341.58 594.371 1322.79 644.624 1315.1 664.803L1301.11 701.488L1195.72 703.999C1093.73 706.423 1071.13 708.22 1071.13 713.898C1071.13 717.756 1124.78 725.039 1188.76 729.864C1240.82 733.79 1307.2 732.188 1338.01 726.262L1351.92 723.586L1341.09 715.133C1335.13 710.488 1326 704.909 1320.8 702.745C1312.37 699.232 1311.61 697.466 1313.75 686.401C1316.88 670.297 1340.34 607.653 1376.4 519.153C1392.25 480.251 1406.24 444.779 1407.49 440.325C1410.9 428.243 1419.64 421.507 1441.44 414.151C1465.4 406.068 1473.21 407.342 1475.93 419.767C1477.97 429.065 1478.13 428.977 1482.19 416.311C1489.5 393.555 1489.06 393.287 1457.58 401.133C1441.74 405.082 1425.3 409.964 1421.03 411.987ZM174.577 438.864C186.455 455.687 196.955 469.45 197.907 469.45C199.896 469.45 199.505 468.858 174.717 434.085C164.598 419.889 155.567 408.278 154.65 408.278C153.732 408.278 162.7 422.042 174.577 438.864ZM1442.84 423.162C1431.38 427.085 1420.82 432.648 1419.37 435.534C1417.93 438.417 1400.85 480.182 1381.42 528.348C1344.18 620.672 1322.36 679.821 1322.36 688.435C1322.36 691.28 1327.47 696.483 1333.7 699.997C1339.94 703.51 1348.34 709.027 1352.37 712.262C1359.45 717.931 1360.1 717.274 1370.74 693.593C1376.8 680.089 1394.41 632.306 1409.87 587.405C1425.33 542.509 1444.14 491.033 1451.66 473.021C1465.88 438.975 1471.99 415.883 1466.73 415.982C1465.06 416.013 1454.31 419.243 1442.84 423.162ZM441.457 473.209C436.495 475.277 424.188 483.788 414.111 492.126C391.573 510.772 381.322 515.138 369.109 511.3C362.713 509.289 358.435 509.954 355.856 513.357C350.12 520.931 391.116 534.878 405.67 530.305C417.545 526.574 422.161 527.407 463.161 540.681C501.474 553.088 521.004 553.436 532.194 541.916C536.898 537.072 540.747 531.035 540.747 528.493C540.747 519.837 512.333 492.715 491.062 481.065C468.831 468.896 456.5 466.942 441.457 473.209ZM1430.59 553.115C1417 591.772 1406.53 624.116 1407.33 624.996C1408.13 625.875 1410.43 621.776 1412.44 615.885C1417.53 600.997 1445.63 521.653 1454.83 496.213C1459.01 484.648 1460.83 476.906 1458.87 479.008C1456.92 481.111 1444.19 514.458 1430.59 553.115ZM310.449 488.567C310.449 490.669 313.199 492.398 316.556 492.405C319.912 492.413 327.928 495.938 334.365 500.235C340.803 504.536 347.803 507.423 349.921 506.647C354.967 504.804 324.487 484.827 316.556 484.778C313.199 484.759 310.449 486.464 310.449 488.567ZM920.441 545.541C899.899 559.817 898.821 562.145 907.286 573.94C911.159 579.335 918.285 593.729 923.121 605.933C938.886 645.691 943.272 653.479 953.011 658.996C966.529 666.654 1005.98 665.859 1061.22 656.817C1086.82 652.622 1118.45 649.182 1131.51 649.17C1144.56 649.155 1166.22 646.406 1179.65 643.061C1199.83 638.029 1203.35 636.056 1200 631.637C1195.41 625.562 1198.44 623.608 1215.94 621.371L1226.41 620.033L1216.81 615.568C1211.53 613.109 1207.21 609.336 1207.21 607.183C1207.21 600.89 1193.23 602.599 1161.67 612.742C1124.27 624.766 1111.78 624.705 1065.3 612.264C1030.75 603.016 989.733 598.883 977.059 603.371C973.134 604.763 971.393 599.762 969.442 581.51C964.344 533.746 951.249 524.134 920.441 545.541ZM987.384 545.915C991.073 553.466 997.852 556.437 997.852 550.503C997.852 546.481 990.274 538.269 986.564 538.269C984.959 538.269 985.329 541.71 987.384 545.915ZM282.535 595.572L270.322 598.416L283.295 604.664C301.485 613.423 316.395 612.857 319.162 603.299C323.646 587.826 319.504 586.951 282.535 595.572ZM1392.2 662.525C1386.14 679.347 1377.4 700.249 1372.77 708.974C1365.5 722.68 1364.88 726.492 1368.22 736.983C1373.29 752.914 1377.03 747.975 1381.17 719.874C1383.03 707.257 1389.4 682.41 1395.33 664.662C1401.26 646.911 1406.11 631.568 1406.11 630.57C1406.11 625.753 1402.3 634.5 1392.2 662.525ZM422.841 657.849C418.734 662.636 410.597 679.252 404.756 694.77C398.915 710.293 392.4 725.28 390.279 728.082C387.299 732.016 388.304 733.993 394.668 736.746C406.4 741.819 416.557 727.188 424.834 693.302C430.563 669.839 432.535 666.199 440.037 665.209C452.874 663.515 463.084 674.442 493.452 722.37C508.575 746.231 532.072 778.756 545.677 794.653C559.279 810.546 581.747 837.469 595.606 854.475C619.732 884.079 642.587 901.478 657.347 901.478C661.984 901.478 659.252 896.282 646.649 881.119C637.343 869.921 620.37 841.962 608.936 818.992C590.529 782.013 583.324 772.008 546.127 731.775C475.119 654.966 442.221 635.242 422.841 657.849ZM279.289 715.733C256.822 745.13 217.127 785.817 202.743 794.19C195.869 798.189 193.587 798.013 189.135 793.131C184.323 787.859 182.006 789.782 166.262 812.133C148.247 837.703 137.175 845.923 105.45 857.293C95.376 860.906 87.1306 864.656 87.1306 865.628C87.1306 866.603 115.004 866.239 149.067 864.821C202.112 862.611 212.943 863.139 224.514 868.48C240.704 875.95 249.026 876.363 253.894 869.936C259.267 862.844 250.537 843.09 237.557 832.958C219.534 818.9 222.361 808.107 253.789 770.983C268.685 753.388 284.429 733.5 288.777 726.786C298.75 711.386 308.028 687.376 304.005 687.376C302.33 687.376 291.206 700.138 279.289 715.733ZM1033.57 723.464C1038.82 726.465 1046.63 731.619 1050.92 734.911C1061.6 743.108 1064.83 742.435 1063.52 732.299C1062.43 723.915 1053.26 720.019 1031 718.49C1025.47 718.107 1026 719.143 1033.57 723.464ZM1072.5 731.657C1073.67 734.983 1074.62 739.284 1074.62 741.215C1074.62 745.669 1188.69 745.906 1191.2 741.456C1192.21 739.659 1175.43 736.925 1153.89 735.388C1132.36 733.848 1107.68 731.233 1099.04 729.577C1073.42 724.664 1070.14 724.92 1072.5 731.657ZM953.238 741.769C915.186 756.806 885.659 780.648 874.081 805.683C845.559 867.352 884.846 902.457 994.363 913.154C1016.43 915.307 1044.3 915.946 1056.3 914.565C1077.16 912.164 1078.11 911.606 1078.11 901.624C1078.11 895.889 1080.85 888.521 1084.21 885.253C1091.78 877.893 1181.2 846.171 1211.25 840.192C1226 837.251 1250.97 836.686 1286.1 838.483C1332.21 840.845 1340.41 840.352 1351.56 834.552C1359.2 830.58 1365.14 824.325 1366.37 818.942C1369.07 807.132 1356.7 785.217 1344.1 779.497C1338.12 776.783 1290.3 773.923 1217.22 771.916C1086.61 768.322 1100.05 770.956 1037.98 736.784C1012.88 722.967 998.714 723.8 953.238 741.769ZM1147.89 752.459C1105.94 752.566 1092.03 753.694 1096.62 756.619C1101.95 760.018 1317.63 768.043 1321.98 765.003C1322.72 764.483 1318.79 762.102 1313.25 759.716C1298.91 753.537 1254.78 748.885 1228.15 750.739C1215.68 751.607 1179.56 752.383 1147.89 752.459ZM414.163 756.424C397.791 761.406 378.234 779.769 375.201 793.009C373.945 798.491 373.52 803.637 374.256 804.44C374.992 805.247 387.882 802.464 402.9 798.254C439.039 788.126 478.891 788.126 503.198 798.247C513.296 802.452 521.95 805.893 522.428 805.893C522.906 805.897 523.3 801.978 523.3 797.191C523.3 780.438 507.13 764.503 481.449 755.942C468.367 751.584 429.154 751.863 414.163 756.424ZM1360.86 778.178C1360.92 779.757 1363.27 784.387 1366.09 788.467C1371.14 795.781 1371.21 795.777 1371.21 788.149C1371.21 783.89 1370.17 779.26 1368.89 777.861C1365.75 774.424 1360.72 774.623 1360.86 778.178ZM416.875 803.829L399.428 808.673L422.548 808.868C450.435 809.101 460.415 814.817 460.687 830.714L460.886 842.218L465.049 828.836C469.023 816.067 470.056 815.402 487.534 814.3C497.608 813.662 505.853 811.685 505.853 809.9C505.853 799.573 446.726 795.54 416.875 803.829ZM473.629 826.443C472.219 828.81 471.044 838.918 471.012 848.909C470.977 861.506 469.529 867.069 466.287 867.069C460.401 867.069 453.513 850.893 453.513 837.068C453.513 831.28 451.629 824.478 449.326 821.955C436.394 807.786 334.875 830.064 334.875 847.073C334.875 850.155 340.761 859.124 347.96 867.004C364.897 885.547 383.886 890.058 444.088 889.84C503.554 889.626 518.659 886.388 531.053 871.19C542.976 856.567 543.346 844.279 532.292 829.884C524.211 819.359 522.798 818.949 500.016 820.509C486.913 821.408 475.039 824.076 473.629 826.443ZM1277.85 847.33L1212.45 846.588L1170.58 860.42C1107.51 881.261 1091.11 888.047 1087.13 894.967C1079.05 909.006 1089.5 909.576 1137.21 897.709C1189.33 884.744 1231.63 878.615 1269.33 878.569C1306.09 878.523 1341.16 868.893 1355.78 854.831C1371.1 840.092 1370.99 835.378 1355.49 842.474C1345.99 846.821 1328.62 847.911 1277.85 847.33ZM1158.36 901.237C1140.13 905.757 1118.94 911.281 1111.28 913.51L1097.35 917.567L1110.06 924.708C1117.05 928.635 1129.25 932.986 1137.17 934.374C1151.47 936.882 1151.62 936.782 1157.17 921.321C1163.32 904.155 1170.52 898.905 1178.26 905.948C1181.72 909.09 1182.65 914.458 1181.2 922.919C1178.66 937.761 1179.96 938.832 1204.42 941.982C1241.85 946.799 1296.19 929.583 1296.19 912.91C1296.19 909.901 1292.53 905.435 1288.05 902.988C1283.57 900.542 1278.07 896.447 1275.84 893.889C1269.71 886.885 1198.19 891.358 1158.36 901.237Z" fill="#000C37" fill-opacity="0.25"/>
</svg>
