<svg width="846" height="720" viewBox="0 0 846 720" fill="none" xmlns="http://www.w3.org/2000/svg">
<path fill-rule="evenodd" clip-rule="evenodd" d="M566.265 3.96446C546.215 9.69993 314.331 99.3134 306.482 104.358C301.57 107.518 301.186 109.385 302.949 121.515C304.252 130.478 303.956 136.89 302.083 140.284C300.182 143.731 299.652 156.379 300.488 178.363L301.741 211.28L293.621 200.911C267.286 167.274 240.438 169.576 202.981 208.687C193.601 218.482 188.136 227.584 183.55 241.047C178.13 256.964 176.656 259.09 173.746 255.182C171.862 252.653 167.431 250.641 163.898 250.708C156.271 250.852 107.782 286.799 96.9638 300.327C89.5448 309.602 89.4207 310.282 90.5817 335.406C91.2315 349.497 93.116 370.651 94.7689 382.41C96.422 394.173 98.079 415.346 98.4512 429.464C99.0638 452.671 98.4731 456.485 92.2801 469.211C79.5294 495.407 75.6339 526.113 83.8083 535.981C89.6822 543.071 134.672 566.971 146.543 569.309C151.8 570.344 159.025 569.499 162.603 567.434C166.18 565.37 169.118 564.179 169.134 564.791C169.332 572.489 163.388 587.361 158.884 590.436C151.566 595.433 147.171 593.206 118.608 570.044C91.034 547.682 83.7931 546.79 72.0983 564.3C58.837 584.162 -1.74488 715.866 0.807428 719.29C1.50331 720.225 4.91661 714.379 8.39736 706.301C28.002 660.787 65.1276 582.902 73.2607 570.225C78.9249 561.393 84.8631 555.473 88.1364 555.389C91.1339 555.312 104.546 564.143 117.947 575.012C146.935 598.528 156.025 601.791 163.45 591.356C166.299 587.355 169.907 578.273 171.472 571.179C173.037 564.082 180.314 544.883 187.644 528.512C194.974 512.142 201.935 494.747 203.113 489.853C204.952 482.225 204.612 480.975 200.732 481.075C192.694 481.281 177.65 514.243 174.62 538.285C170.488 571.079 148.918 572.387 100.174 542.805C79.3859 530.19 77.9098 524.103 87.9631 492.473C95.9183 467.448 100.494 458.457 103.853 461.252C111.081 467.263 160.398 483.151 171.837 483.154C185.903 483.156 202.111 473.914 204.379 464.598C205.657 459.345 193.762 443.893 188.519 443.994C187.032 444.022 184.619 448.556 183.16 454.073C180.938 462.469 171.665 479.084 171.651 474.697C171.648 473.938 174.572 464.428 178.149 453.559L184.653 433.798L182.25 382.538L179.849 331.274L188.152 345.798C193.569 355.273 200.465 362.541 207.984 366.701C219.116 372.864 220.465 372.87 247.1 366.972C281.153 359.432 286.971 353.586 300.194 313.637C310.397 282.803 310.751 273.788 304.888 194.109C300.516 134.699 303.81 130.469 314.927 181.206C365.304 411.096 422.733 660.11 425.726 661.642C430.798 664.233 455.133 657.132 519.767 634.196C652.14 587.226 674.25 577.805 685.706 563.498C692.627 554.859 693.117 552.721 692.404 534.281C691.94 522.284 688.301 501.114 683.236 480.97C678.618 462.594 674.738 443.644 674.615 438.862L674.392 430.168L682.58 440.827C691.256 452.127 699.017 454.676 698.799 446.152C698.726 443.334 687.08 425.652 672.918 406.854C650.239 376.755 641.464 362.655 641.294 356.051C641.267 354.994 643.78 354.063 646.88 353.983C658.655 353.681 680.595 322.052 687.726 295.096C689.266 289.285 691.873 284.946 693.523 285.458C695.17 285.97 712.294 306.93 731.574 332.038C774.126 387.451 775.375 392.251 751.837 410.004C727.518 428.348 704.419 459.534 707.501 469.862C709.533 476.673 713.137 475.989 727.316 466.102C740.794 456.702 755.059 436.613 761.705 417.675C766.074 405.217 769.198 403.426 784.088 404.85C793.724 405.769 810.665 418.853 834.992 444.165C847.497 457.176 857.692 466.383 857.646 464.626C857.533 460.214 814.32 416.634 801.612 408.114C795.908 404.291 786.408 400.355 780.499 399.364C770.21 397.635 769.765 397.103 769.97 386.778C770.166 377.016 766.595 371.329 732.275 326.707C711.422 299.602 693.114 278.051 691.589 278.821C690.063 279.591 685.061 272.816 680.476 263.764C671.748 246.537 639.611 194.884 624.539 173.861C616.968 163.302 613.745 161.327 601.379 159.675C588.617 157.969 580.642 156.252 556.247 149.961C552.609 149.024 547.131 149.219 544.073 150.396C535.873 153.552 526.098 168.543 526.331 177.604C526.442 181.951 524.445 188.179 521.892 191.445C519.338 194.711 515.578 203.402 513.535 210.756L509.821 224.126L494.322 224.041C466.733 223.889 474.598 235.353 506.732 242.126C521.932 245.33 522.845 246.045 524.511 255.994C525.478 261.765 525.83 271.194 525.294 276.945C524.098 289.808 526.3 293.513 546.599 312.803C573.714 338.571 582.149 343.065 604.989 343.91C633.792 344.976 634.737 345.425 638.81 360.026C641.151 368.418 651.214 384.559 668.126 407.042C682.287 425.874 693.918 442.971 693.971 445.038C694.024 447.101 689.49 443.231 683.897 436.437C667.741 416.809 666.856 423.835 678.909 476.095C691.174 529.286 692.445 546.718 684.93 558.709C676.675 571.886 648.98 583.878 527.073 627.056C450.431 654.199 428.619 660.653 426.002 656.952C424.814 655.275 413.838 609.01 401.607 554.142C389.379 499.273 374.743 433.839 369.085 408.731C339.333 276.676 309.439 141.469 309.366 138.631C309.235 133.523 339.382 116.165 395.676 88.9432C504.021 36.5464 551.609 16.3228 567.515 15.9143C583.984 15.4914 590.65 33.1487 601.217 105.177C608.362 153.891 609.41 158.469 612.98 156.571C614.765 155.621 615.363 147.436 614.676 133.384C613.483 108.967 597.943 9.0553 594.713 5.03315C590.38 -0.358513 582.432 -0.657787 566.265 3.96446ZM594.022 12.6829C595.357 16.8557 599.708 42.3812 603.692 69.4024C614.303 141.375 614.982 147.337 612.577 147.399C611.378 147.43 607.461 127.603 603.874 103.34C592.612 27.1498 586.756 12.3083 567.856 12.1032C557.887 11.9918 557.53 11.7255 564 9.20246C567.92 7.67335 575.731 6.12254 581.359 5.75697C589.856 5.20549 592.005 6.3815 594.022 12.6829ZM505.175 33.1735C504.407 34.3224 502.341 34.4979 500.587 33.56C498.645 32.5249 499.193 31.7048 501.983 31.47C504.506 31.2589 505.942 32.0247 505.175 33.1735ZM474.96 46.0333C406.791 78.3219 332.687 115.412 321.439 122.87C314.368 127.562 308.178 131.407 307.684 131.42C307.187 131.433 306.649 126.26 306.486 119.925C306.142 106.51 293.011 113.156 413.083 65.9845C494.042 34.177 512.663 28.1722 474.96 46.0333ZM562.063 155.726C564.742 157.653 576.689 160.404 588.608 161.84C600.528 163.275 612.315 165.914 614.806 167.704C622.256 173.06 685.063 275.574 684.441 281.361C683.651 288.731 670.388 290.388 661.514 284.229C657.571 281.49 648.359 272.326 641.041 263.862C623.458 243.529 613.221 236.796 594.063 232.972C584.538 231.074 574.558 226.504 569.17 221.582C558.805 212.114 541.776 211.007 532.198 219.185C528.969 221.941 524.403 224.299 522.05 224.428C518.482 224.618 518.177 223.493 520.208 217.663C521.549 213.816 521.933 207.83 521.062 204.36C517.21 189.018 547.369 175.037 564.133 184.391C575.332 190.641 591.45 190.458 591.286 184.082C591.155 178.963 580.957 175.419 567.36 175.768C562.571 175.891 555.217 174.696 551.015 173.113C545.522 171.044 541.569 171.639 536.931 175.237C533.386 177.988 530.013 179.608 529.439 178.834C527.214 175.85 534.614 162.845 541.38 157.849C549.865 151.58 555.494 151.004 562.063 155.726ZM276.157 189.881C292.116 202.188 301.725 217.372 302.37 231.3C305.538 299.709 297.911 326.389 268.992 348.028C243.775 366.901 220.931 365.883 201.217 345.006C186.059 328.955 176.905 284.18 182.814 255.007C185.415 242.169 198.114 214.145 200.114 216.828C200.651 217.549 199.499 224.088 197.557 231.362C192.577 250.005 193.8 279.784 200.22 296.281C206.892 313.428 222.412 332.276 234.037 337.355C239.043 339.542 249.08 340.465 256.396 339.416C267.889 337.764 270.683 335.849 277.214 325.159C286.713 309.606 289.963 290.008 288.093 259.545C286.962 241.082 285.259 233.103 280.594 224.387C271.863 208.065 253.406 197.533 234.1 197.858C217.063 198.146 217.934 194.798 237.291 185.601C252.724 178.27 262.494 179.345 276.157 189.881ZM582.839 182.173C587.279 184.722 587.18 184.983 581.715 185.123C578.417 185.208 573.528 184.021 570.849 182.481C566.409 179.932 566.507 179.671 571.973 179.531C575.27 179.446 580.16 180.633 582.839 182.173ZM252.115 204.569C273.97 211.741 285.349 232.951 286.285 268.257C287.635 319.058 264.336 347.906 234.294 332.627C221.678 326.214 205.746 305.625 201.336 290.035C192.944 260.383 200.324 213.616 214.642 205.718C223.328 200.927 239.507 200.43 252.115 204.569ZM562.707 221.846C567.554 224.552 571.098 227.256 570.583 227.858C570.066 228.46 561.049 228.487 550.546 227.923C533.581 227.009 531.94 226.357 535.857 222.087C541.609 215.81 551.728 215.721 562.707 221.846ZM552.432 232.494C573.884 233.885 576.32 234.744 580.003 242.2C582.223 246.697 583.637 250.946 583.146 251.639C581.132 254.496 538.809 243.298 535.662 239.073C533.373 236 530.955 235.542 528.281 237.681C526.095 239.431 521.061 240.21 517.093 239.414C479.634 231.894 474.044 225.654 507.688 228.912C519.355 230.041 539.491 231.653 552.432 232.494ZM591.036 244.882C590.168 252.856 585.967 257.273 585.79 250.397C585.746 248.681 584.993 244.874 584.116 241.938C582.995 238.185 583.923 236.562 587.242 236.477C590.985 236.381 591.772 238.122 591.036 244.882ZM613.893 246.805C619.763 253.171 617.081 256.117 605.142 256.424C595.113 256.681 593.125 255.712 592.992 250.502C592.904 247.072 593.562 243.178 594.454 241.842C596.448 238.856 609.677 242.234 613.893 246.805ZM170.464 256.991C177.52 263.01 172.639 271.784 159.344 276.979C152.157 279.789 138.513 287.819 129.025 294.827C115.303 304.961 112.043 308.844 113.092 313.806C113.852 317.412 113.143 320.073 111.406 320.118C109.757 320.16 106.528 323.311 104.231 327.121C100.65 333.059 100.222 340.216 101.229 377.364C102.202 413.315 101.991 417.222 99.978 400.336C98.6445 389.147 96.3843 364.578 94.9575 345.738L92.3623 311.485L100.275 302.748C111.431 290.439 133.979 271.892 149.326 262.407C163.858 253.426 165.724 252.946 170.464 256.991ZM530.59 250.036C530.665 252.949 529.606 254.401 528.235 253.263C526.864 252.121 526.326 249.751 527.041 247.991C528.975 243.224 530.437 244.064 530.59 250.036ZM544.009 254.817C547.689 262.701 565.983 277.836 571.654 277.69C582.63 277.408 574.498 282.651 560.689 284.753C548.946 286.545 547.057 287.834 546.568 294.387C546.128 300.32 548.826 304.376 559.048 313.157C571.459 323.813 594.233 336.207 607.272 339.399C610.593 340.212 607.015 340.331 599.322 339.661C583.257 338.264 569.42 329.74 546.452 307.08C527.281 288.162 526.662 287.052 528.151 274.12C530.137 256.86 539.591 245.353 544.009 254.817ZM568.254 254.31C581.932 257.316 583.267 258.298 581.298 263.947C577.765 274.084 570.417 275.559 561.278 267.957C556.73 264.177 551.618 258.839 549.919 256.1C546.074 249.904 547.553 249.76 568.254 254.31ZM636.1 263.927C658.305 289.43 662.968 292.919 674.469 292.623L685.167 292.349L682.05 301.496C676.618 317.433 662.915 338.879 654.212 345.061C646.207 350.752 645.443 350.734 637.926 344.693C633.589 341.206 621.902 336.772 611.954 334.841C585.031 329.607 545.287 302.637 549.435 292.416C550.327 290.22 555.902 288.298 561.825 288.146C574.897 287.81 584.399 280.975 588.616 268.881C591.598 260.322 592.452 259.947 604.694 261.792C616.529 263.576 617.72 263.127 618.768 256.492C619.398 252.504 620.662 249.223 621.576 249.2C622.492 249.176 629.026 255.804 636.1 263.927ZM178.493 289.486C179.301 304.906 177.143 308.138 170.075 302.102C167.531 299.933 167.616 298.489 170.49 294.926C172.469 292.474 173.995 286.83 173.881 282.387C173.499 267.541 177.679 273.977 178.493 289.486ZM171.535 284.471C171.581 286.293 165.327 297.548 157.635 309.486C149.946 321.427 144.64 328.025 145.848 324.151C149.333 312.967 145.174 307.789 134.644 310.188C129.591 311.342 123.326 313.438 120.723 314.845C118.12 316.255 120.195 312.971 125.335 307.547C142.422 289.514 171.294 275.097 171.535 284.471ZM143.549 316.003C143.599 317.937 141.135 327.132 138.075 336.438C132.277 354.072 131.228 378.297 135.866 387.511C138.01 391.768 139.271 391.073 144.031 382.995C147.126 377.743 150.714 366.937 152.005 358.983C155.388 338.112 157.077 335.984 167.048 340.02C176.139 343.701 178.42 349.006 170.994 349.197C164.469 349.365 158.898 353.038 159.002 357.106C159.057 359.234 162.674 359.665 168.353 358.223L177.618 355.873L178.792 382.181C181.126 434.487 181.024 436.408 174.974 452.984C171.732 461.869 169.131 471.241 169.197 473.811C169.263 476.38 167.406 478.53 165.073 478.59C160.555 478.706 132.113 468.991 113.192 460.869C102.46 456.261 101.91 455.465 103.848 447.413C104.982 442.704 105.331 415.629 104.621 387.242C103.914 358.854 104.137 333.704 105.12 331.349C107.209 326.347 130.23 313.441 138.07 312.879C141.033 312.667 143.499 314.073 143.549 316.003ZM174.718 318.267C178.972 328.715 178.01 332.012 170.653 332.2C161.747 332.429 156.329 324.498 160.376 317.16C164.354 309.949 171.557 310.506 174.718 318.267ZM200.191 349.546C204.6 353.976 212.302 359.336 217.304 361.456C222.309 363.575 226.417 365.915 226.436 366.66C226.5 369.151 210.847 364.257 204.012 359.644C196.312 354.448 182.255 330.209 182.203 322.041C182.186 319.048 184.422 322.198 187.175 329.042C189.925 335.886 195.785 345.112 200.191 349.546ZM155.183 334.461C151.717 340.111 151.227 339.158 152.726 329.675C153.572 324.32 154.574 323.158 155.897 325.995C156.963 328.273 156.641 332.084 155.183 334.461ZM148.104 338.731C147.555 342.021 146.566 350.505 145.905 357.589C145.245 364.673 143.658 369.598 142.376 368.532C138.928 365.665 139.247 354.417 143.103 342.941C146.86 331.764 149.662 329.403 148.104 338.731ZM280.418 348.197C276.837 352.904 272.078 356.798 269.842 356.845C267.509 356.895 269.77 353.262 275.157 348.311C287.054 337.374 288.677 337.339 280.418 348.197ZM141.44 380.974C139.055 386.851 135.603 380.341 135.338 369.468L135.074 358.622L138.893 368.231C140.994 373.516 142.14 379.252 141.44 380.974ZM754.543 425.1C742.035 450.378 725.675 467.596 713.879 467.899C708.932 468.026 708.884 467.731 712.623 460.279C721.076 443.42 756.539 406.122 759.867 410.59C760.481 411.415 758.086 417.941 754.543 425.1ZM197.641 456.762L203.213 462.836L194.976 470.435C190.443 474.615 184.42 478.093 181.59 478.165C176.526 478.295 176.542 478.074 182.443 464.539C189.286 448.841 190.028 448.465 197.641 456.762ZM195.776 501.493C192.959 508.983 187.774 520.211 184.253 526.447L177.849 537.78L181.27 524.272C185.187 508.812 195.072 488.022 198.55 487.933C199.84 487.9 198.593 494.003 195.776 501.493Z" fill="#54BEA5"/>
</svg>
