<svg width="1316" height="551" viewBox="0 0 1316 551" fill="none" xmlns="http://www.w3.org/2000/svg">
<path fill-rule="evenodd" clip-rule="evenodd" d="M684.592 2.64863C664.897 6.8053 657.074 13.5437 653.645 29.3126C651.981 36.9622 650.508 47.7533 650.369 53.2964C650.23 58.8396 649.462 64.0791 648.66 64.9396C647.858 65.8002 637.075 62.0738 624.699 56.66C596.324 44.2463 563.443 37.9185 537.091 39.8027C504.973 42.1004 506.624 39.6902 495.265 100.873C487.756 141.315 486.309 156.845 489.708 160.492C491.173 162.065 496.237 164.196 500.963 165.234C508.514 166.891 506.084 168.038 480.894 174.701C438.816 185.829 412.886 200.498 394.002 223.866C349.67 278.721 330.324 292.434 282.184 303.138C251.735 309.91 248.076 312.368 249.953 324.779C251.159 332.758 250.509 334.004 244.312 335.582C228.455 339.615 193.399 352.518 162.607 365.651C131.404 378.962 2.62013 438.109 0.321496 440.182C-0.278718 440.725 -0.0139934 441.982 0.911227 442.974C1.83645 443.964 9.99568 441.276 19.0408 436.998C150.797 374.668 241.259 337.173 250.598 341.018C252.189 341.673 256.728 352.135 260.689 364.268C271.034 395.952 297.113 452.267 306.399 462.965C315.785 473.781 324.348 474.943 326.51 465.693C328.691 456.373 316.236 416.358 299.988 380.475C284.55 346.381 280.579 341.204 265.655 335.7C257.218 332.586 255.654 330.758 255.654 324.014C255.654 314.956 258.272 313.747 299.978 303.574C336.389 294.69 346.619 286.68 399.493 225.652C407.904 215.944 420.972 204.697 429.399 199.913C461.828 181.506 515.856 169.441 554.353 172.006C582.464 173.876 616.044 179.6 616.044 182.516C616.044 184.982 618.5 184.173 561.003 200.619C471.319 226.268 469.343 232.953 543.017 261.411C564.648 269.767 584.621 278.876 587.399 281.655C592.953 287.206 593.836 296.287 589.899 307.399C586.838 316.036 583.69 316.458 576.873 309.143C565.042 296.448 510.54 288.992 506.763 299.552C503.22 309.463 534.934 323.564 561.658 323.958C580.991 324.245 582.272 325.702 575.515 339.721C570.09 350.979 566.124 351.64 551.3 343.768C526.458 330.578 490.235 323.868 490.235 332.457C490.235 343.816 519.093 357.757 543.966 358.412C565.673 358.983 568.732 363.483 556.052 376.192C544.621 387.65 531.168 393.736 513.455 395.46C500.709 396.697 497.058 396.033 492.542 391.643C488.337 387.557 483.347 386.395 470.96 386.618C435.201 387.259 370.017 393.252 354.906 397.285C332.392 403.295 316.857 410.374 318 414.1C320.202 421.288 336.431 419.148 402.654 402.946C430.879 396.039 432.594 395.943 462.937 399.521L494.167 403.202L494.953 416.22C495.899 431.891 489.656 462.411 482.372 477.732C475.877 491.392 469.356 495.144 436.619 504.062C407.759 511.925 402.308 515.365 411.861 519.673C425.795 525.959 564.25 551.799 576.129 550.328C587.066 548.978 584.807 542.116 570.176 532.25C512.309 493.226 513.913 495.568 518.56 456.918C524.052 411.251 526.471 404.507 541.023 394.298C561.983 379.595 571.329 367.944 582.374 342.736C588.135 329.589 594.575 315.389 596.685 311.184C599.39 305.79 600.017 299.46 598.811 289.709C597.112 275.985 597.204 275.766 611.334 259.274C624.908 243.429 625.946 241.109 633.781 209.031C647.245 153.903 656.19 99.0648 654.531 81.8166C653.289 68.9079 658.326 20.8193 661.246 17.6835C661.77 17.1238 666.853 19.115 672.54 22.1073C684.901 28.618 723.627 36.2057 744.162 36.1438C752.261 36.1213 765.694 34.3833 774.011 32.2824C785.087 29.487 789.645 29.3098 791.047 31.6244C794.153 36.7457 792.106 109.052 787.703 149.825C782.762 195.554 778.139 215.533 768.153 234.278C763.977 242.113 756.924 255.798 752.481 264.693L744.398 280.864H724.924C700.965 280.864 697.107 277.754 681.329 245.71C666.501 215.601 648.228 185.244 644.928 185.244C633.424 185.244 664.551 248.486 690.185 277.189L700.714 288.981L693.107 290.814C665.841 297.393 654.741 301.915 650.013 308.364C643.895 316.708 643.381 332.249 648.54 353.032C657.454 388.952 674.849 416.128 695.946 427.087L707.368 433.022L704.213 444.828C701.681 454.305 698.486 458.406 688.038 465.597C666.407 480.477 654.502 490.194 653.378 493.884C651.179 501.1 666.478 503.688 701.227 501.975C762.444 498.955 822.513 489.491 828.35 481.943C834.816 473.587 810.576 460.594 773.484 452.539C749.161 447.255 744.857 438.039 764.787 433.907C777.263 431.32 779.921 431.714 825.726 442.924C835.096 445.216 856.366 453.917 872.993 462.259C889.621 470.603 908.493 478.731 914.93 480.323C934.745 485.222 974.875 483.366 1007.43 476.042L1014.84 474.377L1013.07 486.982C1011.3 499.641 1015.07 513.129 1019.55 510.162C1020.77 509.352 1022.61 499.509 1023.63 488.287C1024.66 477.066 1027.08 463.769 1029.01 458.738C1030.95 453.706 1033.87 441.684 1035.51 432.02C1039.83 406.58 1053.2 371.886 1062.97 360.78C1069.9 352.897 1073.33 351.173 1082.1 351.173C1087.97 351.173 1142.58 358.772 1203.44 368.059C1264.3 377.345 1314.69 384.306 1315.41 383.527C1318.45 380.264 1311.23 378.681 1257.87 370.899C1227.05 366.408 1177.07 358.871 1146.8 354.149C1116.53 349.43 1087.87 345.563 1083.11 345.557C1069.74 345.543 1059.79 352.743 1050.97 368.812C1046.53 376.898 1043.52 380.984 1044.27 377.891C1048.81 359.259 1048.89 356.43 1045.04 350.124C1040.92 343.38 997.694 313.867 950.224 285.392C935.809 276.747 917.527 263.906 909.599 256.858C901.67 249.813 885.247 238.727 873.103 232.222C853.849 221.914 848.369 220.269 830.326 219.389C795.702 217.699 778.644 228.194 764.074 260.151C759.988 269.114 756.138 274.821 755.522 272.835C754.906 270.849 758.282 262.668 763.028 254.656C775.9 232.916 780.555 222.137 784.922 203.966C790.874 179.2 796.806 118.158 797.545 74.0545C798.103 40.8742 797.466 33.1234 793.43 24.0901C787.726 11.3163 782.885 9.05519 749.811 3.70326C722.431 -0.723397 702.134 -1.05244 684.592 2.64863ZM766.218 11.9351C774.574 14.0724 782.057 16.5164 782.846 17.3657C785.719 20.4481 763.676 24.9057 745.785 24.8635C726.491 24.8129 672.194 12.6944 678.949 9.94109C692.366 4.47948 741.476 5.5988 766.218 11.9351ZM592.455 51.5584C598.942 53.8842 600.711 55.0485 596.386 54.143C592.062 53.2374 576.139 50.7569 561.003 48.6307L533.482 44.7637L557.071 46.049C570.045 46.7521 585.968 49.2326 592.455 51.5584ZM597.519 60.0545C624.594 65.9802 645.504 73.5651 644.411 77.0665C643.012 81.5551 582.739 79.6876 562.313 74.5241C539.652 68.7954 513.824 58.7805 513.824 55.7179C513.824 49.8625 562.46 52.3824 597.519 60.0545ZM558.382 78.6049C572.514 82.0247 597.154 85.2646 615.363 86.097L647.447 87.5679L646.173 97.7374C645.476 103.328 643.657 120.079 642.134 134.956C640.608 149.836 638.459 165.656 637.356 170.111C635.028 179.504 626.688 182.201 620.5 175.561C612.579 167.062 601.109 164.919 557.071 163.707C532.565 163.029 508.386 161.544 503.34 160.402C495.362 158.6 494.057 157.12 493.33 149.074C492.869 143.984 495.524 126.221 499.228 109.603C502.931 92.9817 505.961 75.5731 505.961 70.9102C505.961 66.2502 506.561 61.7926 507.295 61.0051C508.029 60.2177 514.223 62.5013 521.056 66.0786C527.891 69.656 544.687 75.2919 558.382 78.6049ZM633.293 190.509C632.609 193.026 630.127 203.313 627.784 213.368C623.084 233.507 613.187 253.97 606.889 256.563C604.658 257.48 600.431 262.604 597.492 267.95L592.148 277.67L583.782 272.621C579.182 269.845 561.144 262.249 543.701 255.741C511.827 243.851 495.477 235.321 495.477 230.588C495.477 226.634 513.541 219.791 552.665 208.921C596.976 196.614 621.286 188.281 621.286 185.404C621.286 184.198 624.269 183.824 627.915 184.572C632.517 185.517 634.161 187.328 633.293 190.509ZM668.63 231.454C673.434 240.628 675.979 247.217 674.288 246.095C670.934 243.871 652.738 210.139 652.738 206.143C652.738 202.816 658.122 211.391 668.63 231.454ZM839.117 224.676C854.479 227.801 882.358 240.813 893.081 249.864C901.843 257.26 900.15 257.038 882.814 248.522C863.88 239.222 830.467 230.211 815.478 230.366C808.862 230.433 799.026 232.182 793.618 234.252C788.214 236.322 783.79 237.565 783.79 237.014C783.79 234.893 799.799 227.266 809.261 224.876C822.866 221.436 823.191 221.433 839.117 224.676ZM847.858 241.452C859.052 244.523 879.572 252.811 893.458 259.87C914.822 270.729 922.347 276.525 942.33 297.499C967.665 324.096 977.082 330.444 1005.45 340.051C1031.27 348.794 1034.77 351.716 1036.8 366.248C1038.17 376.009 1036.22 387.726 1027.56 421.845C1021.52 445.621 1014.91 466.491 1012.85 468.227C1008.01 472.316 968.404 477.735 943.494 477.713C918.694 477.693 909.966 475.047 872.157 456.077C849.362 444.639 833.911 438.998 813.184 434.546L785.1 428.513L795.878 417.014C804.137 408.205 807.069 402.564 808.419 392.895C809.392 385.954 809.651 378.473 809.001 376.271C808.349 374.069 807.109 368.801 806.246 364.569C803.966 353.404 796.612 349.475 757.737 338.667C738.587 333.34 722.61 328.599 722.23 328.126C721.847 327.654 720.995 319.956 720.335 311.021L719.132 294.777L739.012 296.959C776.66 301.096 812.553 299.372 826.381 292.758C835.028 288.624 838.831 285.145 838.831 281.368C838.831 272.768 832.824 269.48 809.926 265.548C786.429 261.51 777.984 255.975 782.807 247.771C789.781 235.906 817.75 233.189 847.858 241.452ZM781.57 261.178C782.791 261.178 783.79 262.165 783.79 263.374C783.79 265.742 767.712 272.99 766.158 271.319C765.642 270.765 767.301 265.621 769.848 259.89C774.149 250.212 774.653 249.886 776.915 255.325C778.254 258.543 780.348 261.178 781.57 261.178ZM794.929 271.477C793.128 272.258 790.18 272.258 788.376 271.477C786.576 270.698 788.049 270.059 791.653 270.059C795.257 270.059 796.732 270.698 794.929 271.477ZM828.52 275.338C831.309 276.941 833.589 279.534 833.589 281.106C833.589 285.221 818.759 291.172 802.761 293.475C789.755 295.351 732.575 292.696 734.787 290.319C737.151 287.786 765.39 281.421 781.782 279.728C791.488 278.724 802.103 276.753 805.371 275.344C813.475 271.851 822.442 271.848 828.52 275.338ZM953.925 293.905C987.862 314.838 1027.54 340.399 1027.54 341.327C1027.54 342.956 985.058 327.159 976.332 322.288C967.397 317.298 935.922 286.807 939.51 286.616C940.825 286.545 947.312 289.827 953.925 293.905ZM687.396 305.987C686.369 313.502 687.572 315.026 700.955 323.129C713.318 330.615 715.643 333.27 715.643 339.896C715.643 349.205 711.004 401.495 708.847 416.496L707.34 426.981L697.553 421.623C686.867 415.773 670.96 398.278 664.973 385.794C658.253 371.78 650.117 339.674 650.117 327.173C650.117 309.697 656.523 304.646 687.014 298.065C687.844 297.885 688.017 301.451 687.396 305.987ZM715.145 312.889L715.96 326.633L704.661 319.487C691.509 311.165 689.055 304.483 697.757 300.663C710.304 295.157 714.262 297.938 715.145 312.889ZM557.593 304.778C582.778 312.804 580.078 322.743 553.829 318.643C539.607 316.418 514.673 307.112 512.409 303.18C509.971 298.951 542.965 300.118 557.593 304.778ZM531.93 341.417C555.889 349.539 560.835 353.986 545.908 353.986C533.104 353.986 512.286 347.34 502.03 339.98L494.167 334.336L502.549 334.319C507.159 334.308 520.382 337.503 531.93 341.417ZM730.714 336.071C735.736 337.517 736.624 339.699 736.695 350.799C736.74 357.965 738.485 376.485 740.574 391.953C746.54 436.126 747.174 433.846 729.537 431.624C721.323 430.586 714.125 429.228 713.544 428.603C712.962 427.979 713.714 416.946 715.213 404.085C716.715 391.224 718.728 370.264 719.687 357.501C720.646 344.739 722.193 334.316 723.123 334.339C724.054 334.358 727.469 335.14 730.714 336.071ZM274.75 346.879C285.557 356.638 310.344 412.008 318.846 445.387C323.42 463.342 323.378 466.48 318.574 466.48C313.822 466.48 301.016 448.113 291.121 427.107C282.49 408.782 259.585 347.813 259.585 343.167C259.585 337.789 266.578 339.502 274.75 346.879ZM760.271 347.38C771.054 355.105 784.018 369.004 787.944 377.047C796.384 394.332 789.323 418.926 773.945 425.822C764.26 430.161 749.75 431.351 749.664 427.81C749.638 426.649 747.876 411.78 745.756 394.765C743.633 377.75 741.887 359.085 741.874 353.283C741.856 344.176 742.668 342.736 747.821 342.736C751.105 342.736 756.709 344.826 760.271 347.38ZM794.234 356.494C805.544 365.291 807.748 392.841 798.218 406.228C794.635 411.259 794.475 411.006 795.941 402.597C798.572 387.464 794.764 375.062 783.119 360.868L772.092 347.424L779.905 349.427C784.204 350.527 790.651 353.707 794.234 356.494ZM571.487 355.226C571.487 355.909 570.307 357.248 568.866 358.204C567.424 359.16 566.245 358.601 566.245 356.964C566.245 355.327 567.424 353.986 568.866 353.986C570.307 353.986 571.487 354.543 571.487 355.226ZM484.993 393.359C489.789 396.683 474.894 396.683 462.714 393.359C455.871 391.491 456.552 391.174 467.956 390.923C475.164 390.763 482.831 391.86 484.993 393.359ZM400.903 397.33C399.267 399.068 336.221 413.073 330.966 412.868C317.208 412.328 374.509 396.807 391.729 396.407C397.375 396.278 401.503 396.694 400.903 397.33ZM521.598 409.53C518.217 420.259 511.227 468.474 511.214 481.147C511.198 495.67 521.142 506.883 550.325 525.264C586.94 548.326 586.712 548.458 527.959 538.395C459.475 526.665 414.92 516.363 422.214 513.944C425.75 512.772 438.352 509.073 450.223 505.724C466.528 501.126 473.765 497.486 479.819 490.841C490.576 479.037 499.149 448.819 499.296 422.2L499.409 401.824L511.722 401.81C523.999 401.796 524.028 401.818 521.598 409.53ZM751.795 446.864C757.357 453.391 763.034 456.108 778.06 459.43C800.879 464.472 823.676 474.456 822.35 478.824C819.197 489.198 661.377 503.19 660.214 493.198C660.033 491.651 669.778 484.057 681.866 476.323C702.454 463.153 704.097 461.395 707.78 448.627L711.711 434.993L728.206 436.765C742.018 438.25 745.853 439.892 751.795 446.864Z" fill="#54BEA5" fill-opacity="0.09"/>
</svg>
