<svg width="71" height="71" viewBox="0 0 71 71" fill="none" xmlns="http://www.w3.org/2000/svg">
<g clip-path="url(#clip0_667_125)">
<path d="M66.2374 18.5492C63.063 13.11 58.757 8.8039 53.3184 5.62973C47.8789 2.45541 41.9407 0.868652 35.4994 0.868652C29.059 0.868652 23.1188 2.4559 17.6805 5.62973C12.2414 8.80374 7.93557 13.11 4.76108 18.5492C1.58708 23.9881 0 29.9275 0 36.3671C0 44.1026 2.25685 51.0585 6.77169 57.2367C11.286 63.4153 17.1179 67.6907 24.2668 70.0633C25.099 70.2178 25.715 70.1091 26.1155 69.7402C26.5162 69.3707 26.7163 68.908 26.7163 68.354C26.7163 68.2616 26.7084 67.4299 26.693 65.858C26.6771 64.2862 26.6697 62.9149 26.6697 61.7449L25.6065 61.9288C24.9287 62.053 24.0735 62.1056 23.0411 62.0907C22.0092 62.0763 20.9379 61.9681 19.8287 61.7671C18.7191 61.5678 17.687 61.1055 16.7316 60.3814C15.7768 59.6572 15.0989 58.7093 14.6982 57.5391L14.236 56.4754C13.9279 55.7673 13.4428 54.9806 12.7802 54.1184C12.1175 53.2553 11.4474 52.6702 10.7696 52.3621L10.446 52.1304C10.2303 51.9765 10.0302 51.7908 9.84515 51.5753C9.66026 51.3598 9.52184 51.1441 9.4294 50.9282C9.33679 50.712 9.41353 50.5348 9.66042 50.3957C9.90732 50.2566 10.3535 50.1891 11.0009 50.1891L11.925 50.3272C12.5414 50.4507 13.3038 50.8197 14.2131 51.4364C15.122 52.0526 15.8692 52.8536 16.4548 53.8393C17.1639 55.103 18.0182 56.066 19.0202 56.7286C20.0214 57.3913 21.0308 57.722 22.0475 57.722C23.0642 57.722 23.9424 57.645 24.6822 57.4917C25.4213 57.3375 26.1147 57.1059 26.7621 56.7979C27.0395 54.7324 27.7946 53.1457 29.0268 52.0365C27.2705 51.852 25.6915 51.574 24.289 51.2044C22.8873 50.8343 21.4388 50.2336 19.9445 49.4008C18.4494 48.5692 17.2091 47.5364 16.2233 46.3044C15.2373 45.0717 14.4281 43.4534 13.7969 41.4509C13.1653 39.4475 12.8495 37.1366 12.8495 34.5174C12.8495 30.7881 14.067 27.6146 16.5014 24.9951C15.361 22.1914 15.4687 19.0483 16.8247 15.5662C17.7184 15.2885 19.0437 15.4969 20.7999 16.19C22.5565 16.8834 23.8426 17.4774 24.6596 17.9699C25.4765 18.4622 26.1311 18.8794 26.6242 19.2178C29.4906 18.4169 32.4486 18.0164 35.4991 18.0164C38.5496 18.0164 41.5083 18.4169 44.3748 19.2178L46.1312 18.109C47.3324 17.3691 48.7507 16.6911 50.383 16.0747C52.0162 15.4587 53.2651 15.289 54.1283 15.5667C55.5145 19.0489 55.638 22.1919 54.4973 24.9956C56.9316 27.6151 58.1495 30.7894 58.1495 34.5179C58.1495 37.1371 57.8325 39.4553 57.202 41.474C56.5705 43.493 55.7544 45.1097 54.7533 46.3275C53.7509 47.5452 52.5027 48.5698 51.0084 49.4013C49.5138 50.2335 48.0648 50.8341 46.6631 51.2042C45.2607 51.5743 43.6817 51.8525 41.9255 52.0373C43.5273 53.4235 44.3283 55.6115 44.3283 58.6005V68.3527C44.3283 68.9067 44.521 69.3693 44.9066 69.7389C45.2918 70.1079 45.9001 70.2165 46.7322 70.0619C53.8821 67.6896 59.714 63.414 64.2281 57.2354C68.7418 51.0572 70.9995 44.1013 70.9995 36.3658C70.9979 29.927 69.41 23.9881 66.2374 18.5492Z" fill="#54BEA5"/>
</g>
<defs>
<clipPath id="clip0_667_125">
<rect width="71" height="71" fill="white"/>
</clipPath>
</defs>
</svg>
