<svg width="70" height="70" viewBox="0 0 70 70" fill="none" xmlns="http://www.w3.org/2000/svg">
<g clip-path="url(#clip0_667_115)">
<path fill-rule="evenodd" clip-rule="evenodd" d="M0 35C0 15.6701 15.6701 0 35 0C54.3299 0 70 15.6701 70 35C70 54.3299 54.3299 70 35 70C15.6701 70 0 54.3299 0 35ZM35.0018 16.3333C29.9321 16.3333 29.2959 16.3555 27.3048 16.4461C25.3175 16.5371 23.9611 16.8518 22.7742 17.3133C21.5464 17.7901 20.505 18.4279 19.4674 19.4658C18.4291 20.5034 17.7912 21.5448 17.3129 22.7722C16.8502 23.9595 16.5352 25.3164 16.4458 27.3028C16.3567 29.294 16.3333 29.9305 16.3333 35.0001C16.3333 40.0698 16.3559 40.7041 16.4461 42.6952C16.5375 44.6825 16.8521 46.0389 17.3133 47.2258C17.7905 48.4536 18.4282 49.495 19.4663 50.5326C20.5034 51.5709 21.5448 52.2102 22.7719 52.6871C23.9595 53.1487 25.3164 53.4632 27.3032 53.5542C29.2944 53.6449 29.9303 53.6671 34.9994 53.6671C40.0695 53.6671 40.7037 53.6449 42.6949 53.5542C44.682 53.4632 46.04 53.1487 47.2278 52.6871C48.4552 52.2102 49.495 51.5709 50.5321 50.5326C51.5705 49.495 52.2083 48.4536 52.6867 47.2262C53.1456 46.0389 53.4606 44.682 53.5539 42.6956C53.6433 40.7044 53.6667 40.0698 53.6667 35.0001C53.6667 29.9305 53.6433 29.2944 53.5539 27.3032C53.4606 25.3159 53.1456 23.9595 52.6867 22.7726C52.2083 21.5448 51.5705 20.5034 50.5321 19.4658C49.4938 18.4275 48.4555 17.7898 47.2267 17.3133C46.0365 16.8518 44.6794 16.5371 42.6921 16.4461C40.7009 16.3555 40.0671 16.3333 34.9959 16.3333H35.0018Z" fill="#54BEA5"/>
<path fill-rule="evenodd" clip-rule="evenodd" d="M33.3275 19.6973C33.8245 19.6966 34.3791 19.6973 35.0021 19.6973C39.9861 19.6973 40.5769 19.7152 42.545 19.8046C44.365 19.8879 45.3529 20.192 46.0109 20.4475C46.882 20.7858 47.5031 21.1902 48.156 21.8435C48.8093 22.4969 49.2138 23.1191 49.5529 23.9903C49.8084 24.6475 50.1129 25.6353 50.1957 27.4553C50.2851 29.4231 50.3047 30.0143 50.3047 34.9959C50.3047 39.9776 50.2851 40.5688 50.1957 42.5365C50.1125 44.3565 49.8084 45.3444 49.5529 46.0015C49.2146 46.8728 48.8093 47.493 48.156 48.146C47.5026 48.7994 46.8824 49.2038 46.0109 49.5421C45.3536 49.7988 44.365 50.1021 42.545 50.1854C40.5773 50.2748 39.9861 50.2941 35.0021 50.2941C30.0177 50.2941 29.4269 50.2748 27.4592 50.1854C25.6392 50.1014 24.6513 49.7971 23.993 49.5417C23.1218 49.2033 22.4995 48.7989 21.8462 48.1456C21.1928 47.4923 20.7884 46.8716 20.4494 46.0001C20.1939 45.3428 19.8894 44.3551 19.8066 42.5351C19.717 40.5672 19.6992 39.9761 19.6992 34.9913C19.6992 30.0064 19.717 29.4184 19.8066 27.4507C19.8897 25.6307 20.1939 24.6428 20.4494 23.9848C20.7877 23.1137 21.1928 22.4915 21.8462 21.8381C22.4995 21.1848 23.1218 20.7804 23.993 20.4412C24.651 20.1845 25.6392 19.8812 27.4592 19.7976C29.1812 19.7199 29.8485 19.6966 33.3275 19.6926V19.6973ZM44.9663 22.7967C43.7296 22.7967 42.7263 23.799 42.7263 25.036C42.7263 26.2726 43.7296 27.276 44.9663 27.276C46.203 27.276 47.2063 26.2726 47.2063 25.036C47.2063 23.7993 46.203 22.7967 44.9663 22.7967ZM35.0021 25.414C29.7081 25.414 25.4159 29.7063 25.4159 35.0002C25.4159 40.2942 29.7081 44.5845 35.0021 44.5845C40.2961 44.5845 44.5867 40.2942 44.5867 35.0002C44.5867 29.7063 40.2961 25.414 35.0021 25.414Z" fill="#54BEA5"/>
<path fill-rule="evenodd" clip-rule="evenodd" d="M35.0016 28.7778C38.4378 28.7778 41.2238 31.5635 41.2238 35.0001C41.2238 38.4364 38.4378 41.2224 35.0016 41.2224C31.5649 41.2224 28.7793 38.4364 28.7793 35.0001C28.7793 31.5635 31.5649 28.7778 35.0016 28.7778Z" fill="#54BEA5"/>
</g>
<defs>
<clipPath id="clip0_667_115">
<rect width="70" height="70" fill="white"/>
</clipPath>
</defs>
</svg>
