<svg width="67" height="65" viewBox="0 0 67 65" fill="none" xmlns="http://www.w3.org/2000/svg">
<path fill-rule="evenodd" clip-rule="evenodd" d="M0 32.5C0 14.5508 14.9985 0 33.5 0C52.0015 0 67 14.5508 67 32.5C67 50.4492 52.0015 65 33.5 65C14.9985 65 0 50.4492 0 32.5ZM23.674 26.9179H16.0822V49.0474H23.674V26.9179ZM24.1742 20.0724C24.1249 17.9026 22.5255 16.25 19.9283 16.25C17.3312 16.25 15.6333 17.9026 15.6333 20.0724C15.6333 22.1972 17.2811 23.8974 19.8298 23.8974H19.8783C22.5255 23.8974 24.1742 22.1972 24.1742 20.0724ZM51.0532 36.359C51.0532 29.5619 47.3079 26.3983 42.312 26.3983C38.2813 26.3983 36.4768 28.5461 35.4691 30.0529V26.9185H27.8763C27.9764 28.995 27.8763 49.0479 27.8763 49.0479H35.4691V36.689C35.4691 36.0276 35.5184 35.3679 35.7191 34.8943C36.2678 33.573 37.5171 32.2051 39.6144 32.2051C42.3627 32.2051 43.4614 34.2343 43.4614 37.208V49.0474H51.0529L51.0532 36.359Z" fill="#54BEA5"/>
</svg>
