<svg width="272" height="122" viewBox="0 0 272 122" fill="none" xmlns="http://www.w3.org/2000/svg">
<path fill-rule="evenodd" clip-rule="evenodd" d="M37.4841 1.63953C36.1797 2.75424 5.05777 62.8043 5.05777 64.2078C5.05777 64.8335 6.35956 65.3378 7.94964 65.329C10.7543 65.3148 11.2668 64.4922 24.9886 37.9809C32.769 22.9481 39.6366 10.648 40.2488 10.648C40.8618 10.648 49.8542 22.982 60.2321 38.0564C77.3484 62.9191 79.3318 65.4341 81.5794 65.1311C83.6046 64.8587 87.3587 59.9119 102.172 37.9962C112.135 23.2555 120.886 11.195 121.617 11.195C122.379 11.195 128.913 22.6167 136.925 37.9535C145.412 54.1983 151.646 65.049 152.792 65.5697C153.829 66.0423 155.421 65.9395 156.329 65.3411C157.239 64.7438 166.262 51.9208 176.383 36.8476C186.503 21.7733 195.311 9.5891 195.955 9.77069C196.6 9.95228 203.413 19.208 211.094 30.3387C234.622 64.4309 235.452 65.5063 237.979 65.13C239.854 64.8521 242.807 59.7555 256.11 33.8447C264.85 16.8211 272 2.42278 272 1.84738C272 1.27307 270.699 0.805958 269.108 0.810333C266.393 0.817991 265.829 1.5728 259.9 13.117L253.583 25.416L247.442 26.1008C244.064 26.4771 235.621 26.8458 228.678 26.9213L216.054 27.0569L206.934 13.9298C199.604 3.37887 197.367 0.811428 195.533 0.847527C193.649 0.884721 190.083 5.64221 175.031 28.1957C165.009 43.2131 156.289 55.499 155.653 55.499C155.017 55.499 149.478 46.0234 143.343 34.4409C125.154 0.102564 125.939 1.38683 122.949 1.04662C120.469 0.764388 118.992 2.65032 101.32 28.6683C90.8868 44.027 81.8437 56.5929 81.2226 56.5929C80.6024 56.5929 71.9651 44.7457 62.0286 30.2643C52.0921 15.784 43.388 3.23119 42.6868 2.36918C41.3103 0.676873 38.9924 0.351977 37.4841 1.63953ZM248.865 34.1127C248.865 35.77 238.199 55.0089 237.136 55.2682C236.029 55.5373 221.281 35.9615 221.281 34.2221C221.281 33.8907 227.487 33.6205 235.073 33.6205C242.659 33.6205 248.865 33.8415 248.865 34.1127ZM5.10226 96.1362C3.45701 100.896 -0.451032 119.102 0.0428112 119.709C1.42201 121.405 3.20608 118.375 4.62621 111.927C5.49822 107.966 6.50548 104.726 6.86408 104.726C7.22267 104.726 8.46484 108.044 9.62426 112.098C12.558 122.361 13.9425 122.271 17.1209 111.611L19.6631 103.085L21.327 110.195C22.2426 114.106 23.1484 117.922 23.3398 118.673C23.8416 120.645 26.4131 120.36 26.4131 118.332C26.4131 115.7 21.8627 96.6941 20.8661 95.1659C19.4896 93.0535 18.7688 94.2623 16.159 103.059C14.8234 107.562 13.4113 111.005 13.0224 110.71C12.6336 110.413 11.4599 107.014 10.4162 103.156C8.11159 94.6419 6.40049 92.3819 5.10226 96.1362ZM153.199 94.9034C152.425 96.4436 157.056 117.868 158.606 119.923C159.574 121.205 160.05 120.858 161.609 117.735C162.628 115.695 163.938 112.424 164.521 110.469C165.104 108.514 165.827 106.914 166.128 106.914C166.429 106.914 167.578 109.588 168.679 112.858C171.009 119.768 172.564 121.841 173.87 119.78C175.283 117.552 179.699 96.2423 179.027 94.9034C177.838 92.5383 176.096 95.9568 174.557 103.677C173.723 107.864 172.732 111.289 172.356 111.289C171.979 111.289 170.721 108.591 169.56 105.291C168.398 101.992 166.93 99.2845 166.298 99.2747C165.665 99.2648 163.979 102.293 162.551 106.006C159.635 113.584 159.512 113.486 157.262 101.772C156.108 95.7676 154.301 92.7122 153.199 94.9034ZM53.2578 99.5799C52.5094 100.689 52.2282 104.227 52.4026 110.351C52.6206 118.015 52.9107 119.528 54.2196 119.835C55.468 120.128 55.7768 119.425 55.7768 116.292C55.7768 114.142 56.0989 112.383 56.4922 112.383C56.8855 112.383 58.5654 114.106 60.2258 116.212C61.8862 118.318 63.9666 120.041 64.8493 120.041C67.0222 120.041 66.8709 119.054 64.165 115.581L61.8746 112.644L64.165 109.828C66.8745 106.496 67.0168 104.728 64.8404 101.424C62.7618 98.2672 54.9804 97.0289 53.2578 99.5799ZM76.0519 98.9312C70.8635 99.9256 67.7029 108.446 70.1116 114.946C71.6296 119.042 78.7534 122.312 81.4727 120.161C83.2647 118.744 81.8553 116.759 79.0568 116.759C75.2191 116.759 72.6831 113.93 72.6831 109.648C72.6831 105.323 75.2262 102.538 79.1752 102.538C81.1052 102.538 81.6408 102.084 81.4139 100.636C81.0936 98.5932 79.863 98.2016 76.0519 98.9312ZM88.0323 98.8864C87.2546 99.2725 86.9201 102.498 86.9201 109.622C86.9201 117.9 87.1834 119.931 88.3277 120.471C90.4473 121.47 99.6496 121.236 101.048 120.146C103.415 118.304 101.007 116.759 95.7656 116.759C90.506 116.759 90.4793 116.743 90.4793 113.534C90.4793 110.415 90.6323 110.299 95.1508 109.979C97.7196 109.797 99.8223 109.156 99.8223 108.554C99.8223 107.953 97.7196 107.312 95.1508 107.13C91.2063 106.851 90.4793 106.467 90.4793 104.669C90.4793 102.794 91.1199 102.538 95.8181 102.538C99.7884 102.538 101.157 102.147 101.157 101.014C101.157 100.176 100.523 99.1916 99.7493 98.8262C98.0943 98.0451 89.6411 98.0889 88.0323 98.8864ZM126.961 99.3742C118.798 103.312 120.252 118.599 128.981 120.613C138.771 122.871 144.015 106.618 135.545 100.269C132.471 97.9653 130.343 97.7432 126.961 99.3742ZM185.911 98.8864C185.131 99.2736 184.799 102.538 184.799 109.82C184.799 119.115 184.962 120.163 186.356 119.838C187.385 119.599 188.008 118.263 188.193 115.906L188.474 112.334L192.135 116.188C194.149 118.307 196.325 120.041 196.971 120.041C198.846 120.041 198.335 117.358 195.931 114.583L193.717 112.026L195.702 110.809C199.58 108.432 198.798 101.225 194.46 99.3655C191.566 98.125 187.863 97.9182 185.911 98.8864ZM211.502 99.7899C210.325 101.534 210.831 102.018 214.607 102.759C216.182 103.068 216.417 104.084 216.647 111.575C216.844 117.997 217.211 120.041 218.167 120.041C219.122 120.041 219.489 117.997 219.686 111.575C219.916 104.084 220.151 103.068 221.726 102.759C225.502 102.018 226.009 101.534 224.831 99.7899C224.073 98.6665 222.009 98.1622 218.167 98.1622C214.324 98.1622 212.26 98.6665 211.502 99.7899ZM230.357 99.4749C228.922 101.239 228.922 118.057 230.357 119.822C231.46 121.178 240.522 121.643 243.008 120.471C243.782 120.105 244.416 119.121 244.416 118.283C244.416 117.136 242.982 116.759 238.632 116.759H232.848V113.477C232.848 110.228 232.898 110.195 237.742 110.195C241.499 110.195 242.636 109.815 242.636 108.554C242.636 107.294 241.499 106.914 237.742 106.914C233.442 106.914 232.848 106.649 232.848 104.726C232.848 102.788 233.442 102.538 238.039 102.538C243.705 102.538 244.926 101.877 243.41 99.6302C242.146 97.7596 231.852 97.6371 230.357 99.4749ZM249.842 100.149C248.805 102.531 248.496 115.397 249.405 118.31C250.437 121.617 252.424 120.237 252.424 116.212C252.424 114.106 252.746 112.383 253.14 112.383C253.533 112.383 255.213 114.106 256.873 116.212C258.534 118.318 260.614 120.041 261.497 120.041C263.684 120.041 263.517 119.053 260.731 115.477L258.36 112.435L260.731 110.142C265.581 105.451 262.676 99.3053 255.19 98.4203C251.449 97.9784 250.678 98.2278 249.842 100.149ZM33.5743 108.705C29.6734 118.939 29.5284 119.575 30.8613 120.588C31.3507 120.959 32.5911 119.511 33.6188 117.37C35.2391 113.995 35.9359 113.477 38.8705 113.477C41.8202 113.477 42.4991 113.989 44.1684 117.467C45.6125 120.475 46.3351 121.147 47.1074 120.197C48.5729 118.395 40.917 99.2561 38.7299 99.2561C37.6496 99.2561 36.0791 102.134 33.5743 108.705ZM107.089 99.9857C106.763 100.386 106.496 105.01 106.496 110.261C106.496 121.218 106.434 121.135 114.468 121.135C117.697 121.135 119.996 120.585 120.616 119.667C122.132 117.42 120.912 116.759 115.245 116.759H110.055V108.008C110.055 101.444 109.759 99.2561 108.869 99.2561C108.216 99.2561 107.415 99.5843 107.089 99.9857ZM203.862 100.72C203.61 101.526 203.523 106.073 203.667 110.828C203.886 118.037 204.188 119.531 205.487 119.835C206.882 120.163 207.044 119.112 207.044 109.728C207.044 101.053 206.81 99.2561 205.682 99.2561C204.932 99.2561 204.113 99.9146 203.862 100.72ZM62.4503 105.273C62.4503 107.011 61.7652 107.531 59.1136 107.8C56.0366 108.114 55.7768 107.917 55.7768 105.273C55.7768 102.629 56.0366 102.432 59.1136 102.746C61.7652 103.015 62.4503 103.534 62.4503 105.273ZM134.97 104.726C138.636 109.233 135.893 116.759 130.586 116.759C127.976 116.759 124.292 112.597 124.292 109.648C124.292 108.908 125.122 107.005 126.137 105.42C128.392 101.894 132.409 101.577 134.97 104.726ZM194.142 105.273C194.142 106.941 193.456 107.542 191.25 107.803C188.651 108.111 188.358 107.855 188.358 105.273C188.358 102.69 188.651 102.434 191.25 102.742C193.456 103.004 194.142 103.604 194.142 105.273ZM259.098 105.273C259.098 107.011 258.413 107.531 255.761 107.8C252.684 108.114 252.424 107.917 252.424 105.273C252.424 102.629 252.684 102.432 255.761 102.746C258.413 103.015 259.098 103.534 259.098 105.273ZM40.0824 107.461C40.4285 108.571 40.037 109.101 38.8705 109.101C37.7039 109.101 37.3124 108.571 37.6585 107.461C37.9406 106.558 38.4861 105.82 38.8705 105.82C39.2548 105.82 39.8003 106.558 40.0824 107.461Z" fill="#30C5A2"/>
</svg>
