<svg width="326" height="507" viewBox="0 0 326 507" fill="none" xmlns="http://www.w3.org/2000/svg">
<path fill-rule="evenodd" clip-rule="evenodd" d="M2.74335 149.268C7.65903 154.116 12.4867 156.024 45.16 166.029C66.4198 172.539 73.4925 175.184 121.3 194.497C164.185 211.822 167.704 212.755 170.132 207.443C171.555 204.335 170.574 202.204 167.708 202.17C163.692 202.123 161.768 200.463 161.823 197.094C161.91 191.742 164.364 183.494 176.63 147.334C189.84 108.385 191.586 102.032 189.874 99.1375C189.273 98.1206 188.796 96.0043 188.814 94.4348C188.858 90.717 190.382 90.7756 198.024 94.7893C202.413 97.0946 204.048 98.4846 204.249 100.081C204.529 102.305 201.376 113.498 194.617 134.278C190.564 146.737 189.523 148.775 188.288 146.665C187.086 144.611 183.281 145.728 181.939 148.529C179.614 153.384 183.198 158.899 186.754 155.936C187.823 155.045 188.102 155.082 188.089 156.111C188.047 159.34 182.936 177.537 178.538 190.115C175.881 197.711 173.699 204.624 173.689 205.476C173.679 206.327 174.599 207.382 175.734 207.82C176.87 208.257 188.778 209.235 202.198 209.991C226.249 211.348 246.121 213.931 254.773 216.825C268.114 221.288 274.426 229.2 271.922 238.323C271.371 240.334 267.959 245.942 264.342 250.786C255.656 262.421 252.383 269.342 250.938 279.133C250.303 283.446 249.719 287.081 249.642 287.212C249.447 287.542 225.844 283.586 220.237 282.283C213.189 280.645 212.876 280.489 214.13 279.229C217.397 275.948 214.181 271.104 200.273 258.358C194.681 253.233 192.666 250.801 193.041 249.635C194.196 246.047 189.342 242.057 187.484 245.068C187.149 245.61 181.621 240.815 175.027 234.264C160.115 219.448 148.622 209.321 143.132 206.159C137.077 202.671 135.413 203.585 129.349 213.727C115.263 237.29 105.969 247.702 93.8223 253.533C89.9704 255.382 86.1123 257.604 85.2471 258.473C81.2817 262.455 83.6734 265.53 106.631 285.962C115.704 294.036 124.185 301.659 125.479 302.899C128.744 306.031 119.358 298.337 108.653 289.105C88.1611 271.433 83.9726 268.447 79.605 268.396C76.107 268.355 70.2837 273.156 54.2435 289.308C29.2242 314.5 21.8646 326.387 26.0552 334.838C27.9372 338.633 32.4279 342.796 51.6505 358.562C72.0904 375.326 75.3286 378.185 94.5105 396.394C109.859 410.966 115.881 415.66 119.279 415.7C122.143 415.733 123.475 417.879 143.583 454.826C158.104 481.508 164.943 492.299 172.213 499.993C176.838 504.891 178.916 506.46 180.492 506.248C186.049 505.501 179.904 494.515 159.515 468.75C140.702 444.977 134.726 435.548 133.607 427.872C132.562 420.71 135.546 416.832 147.282 410.097C151.054 407.933 154.589 405.429 155.137 404.534C157.362 400.903 150.43 398.346 143.727 400.324C141.79 400.896 141.925 400.634 144.623 398.588C150.937 393.799 152.353 389.642 150.032 382.697C148.909 379.337 148.964 379.085 151.106 377.678C152.346 376.864 158.237 369.566 164.196 361.461C170.153 353.356 175.303 346.417 175.638 346.041C175.973 345.664 179.233 346.647 182.883 348.224C191.724 352.047 222.456 360.077 228.408 360.121C241.013 360.214 249.148 350.145 251.371 331.699C251.86 327.636 252.127 316.424 251.963 306.784L251.665 289.257L253.871 289.819C255.083 290.129 269.943 292.241 286.893 294.514C303.843 296.788 319.469 298.912 321.62 299.235C323.9 299.578 325.533 299.438 325.539 298.9C325.552 297.811 323.8 297.494 302.094 294.677C279.725 291.773 256.556 288.517 254.031 287.924C252.332 287.524 251.971 286.801 252.006 283.866C252.113 274.717 256.781 263.724 265.292 252.579C274.409 240.638 276.023 235.722 273.118 228.744C268.018 216.495 250.385 211.028 207.286 208.333C197.158 207.7 186.384 207.14 183.344 207.09C180.304 207.038 177.266 206.628 176.591 206.178C175.615 205.524 176.647 201.49 181.671 186.322C185.139 175.853 188.475 164.218 189.087 160.467C189.698 156.716 192.954 145.19 196.322 134.855C204.081 111.045 206.546 101.716 205.86 98.756C205.453 96.9977 203.657 95.5651 198.731 93.0649C195.109 91.2272 191.617 89.7178 190.969 89.7101C190.071 89.6996 189.828 86.6141 189.946 76.6722C190.031 69.5085 189.653 60.0449 189.107 55.6399C188.31 49.2105 188.347 47.5559 189.294 47.244C191.758 46.4317 196.998 41.0186 198.907 37.3161C200.223 34.7605 201.063 31.0255 201.397 26.2435C202.112 16.0168 199.749 -1.25248 197.912 0.769344C197.691 1.0121 198.027 4.41417 198.658 8.32936C200.027 16.8222 200.069 28.3556 198.748 33.0228C197.752 36.5466 192.306 43.6085 189.377 45.176C187.872 45.9806 187.498 45.4561 186.231 40.7661C184.405 34.0053 181.198 30.3288 178.422 31.8148C174.338 33.9997 172.396 43.5062 175.179 47.6958C176.416 49.5576 177.325 49.8535 181.287 49.684C185.483 49.505 186.024 49.7151 186.785 51.8157C187.986 55.1342 188.475 87.7862 187.323 87.7726C186.821 87.7667 167.256 80.4763 143.846 71.5719C42.7792 33.131 46.2136 34.2712 41.8639 37.7054C37.4799 41.1666 25.7935 67.0896 12.5321 102.771C-0.551465 137.975 -1.95373 144.634 2.74335 149.268ZM6.11254 126.005C19.6445 86.5903 37.063 45.2816 42.4868 39.7428C46.0548 36.0996 42.6739 34.9572 154.002 77.4037L187.483 90.1684L187.13 92.994C186.935 94.5472 186.678 95.9235 186.557 96.0509C186.437 96.1793 183.691 95.1372 180.455 93.7359C172.471 90.2781 105.966 63.781 81.0266 54.1207C68.7793 49.3774 58.8587 46.0967 55.7869 45.7745C47.0014 44.8518 47.6511 43.5815 25.8366 104.348C18.7582 124.064 12.7648 141.304 12.5167 142.658C12.1208 144.823 12.5461 145.326 16.0471 146.832C47.6106 160.407 140.49 198.127 148.295 200.541C151.427 201.51 155.092 202.004 157.034 201.72C159.223 201.399 160.991 201.712 162.151 202.625C163.126 203.392 165.087 204.034 166.511 204.051C169.366 204.084 169.945 205.96 167.682 207.845C166.772 208.603 165.109 208.757 162.84 208.292C158.527 207.41 137.746 199.345 99.77 183.814C78.7522 175.218 63.1194 169.559 44.686 163.869C6.17118 151.984 2.04571 149.83 2.14184 141.65C2.17066 139.197 3.8343 132.642 6.11254 126.005ZM29.2253 100.284C47.9312 48.2144 48.3677 47.2912 54.2211 47.3751C59.3477 47.4477 66.4232 50.0925 139.611 79.296C188.759 98.9056 186.013 97.692 185.985 99.7872C185.972 100.726 182.993 110.197 179.364 120.836C171.542 143.772 169.122 152.543 163.354 178.856C160.969 189.741 158.497 199.003 157.862 199.438C154.626 201.65 147.682 199.115 72.7737 168.373C12.6262 143.689 13.9157 144.27 14.4295 142.107C14.6766 141.068 21.3345 122.248 29.2253 100.284ZM28.4621 323.214C31.3392 316.973 38.6504 307.946 51.9366 294.229C68.8752 276.742 76.4247 270.253 79.7872 270.293C83.1811 270.333 89.9534 275.179 105.451 288.657C138.57 317.46 164.147 338.15 171.564 342.135C173.107 342.965 174.494 343.757 174.649 343.896C175.085 344.289 152.884 373.713 150.654 375.698C148.192 377.889 148.167 377.825 146.502 365.198C145.041 354.123 144.475 352.275 140.315 344.987C138.638 342.052 136.731 337.971 136.076 335.918C135.319 333.548 132.317 329.456 127.853 324.705C121.433 317.876 120.617 317.301 118.486 318.106C114.191 319.727 115.394 326.485 121.582 335.491C124.121 339.185 124.919 341.873 123.472 341.856C121.839 341.837 112.092 327.037 100.692 307.268C94.7683 296.995 94.0987 296.347 90.9075 297.796C88.5825 298.852 88.5112 299.11 89.009 304.657C89.532 310.485 93.2001 320.676 95.4965 322.683C96.1842 323.283 96.7342 324.771 96.7199 325.989C96.7056 327.206 98.5156 331.951 100.742 336.534C105.137 345.579 105.23 345.829 103.855 344.933C102.704 344.183 100.215 339.165 94.8188 326.718C86.8538 308.349 78.1847 295.25 74.4586 295.958C71.4353 296.531 70.6879 299.134 72.2529 303.639L73.6904 307.78L71.0195 308.781C67.699 310.025 67.5356 312.566 69.9949 324.698C72.194 335.543 72.2044 335.443 69.1831 332.396C65.4224 328.603 61.6372 329.397 61.6368 333.977C61.6362 337.011 64.9107 346.74 67.5083 351.425C73.3955 362.042 94.5542 387.732 104.663 396.536C111.482 402.474 120.301 412.525 119.447 413.382C117.8 415.036 110.243 408.941 90.3501 389.914C80.1026 380.113 60.6607 363.338 43.6566 349.625C38.8648 345.761 33.0686 340.489 30.7771 337.91C26.0303 332.567 25.551 329.527 28.4621 323.214ZM68.1865 333.543C69.0731 334.697 72.4747 341.215 75.7456 348.029C81.1256 359.237 83.4312 362.502 84.9146 361.012C85.7789 360.145 84.4761 357.007 80.6801 350.808C77.4076 345.463 77.147 344.587 78.0572 342.003C79.2383 338.648 78.7746 337.727 76.7526 339.413C75.9598 340.073 75.1594 340.444 74.9729 340.238C74.7856 340.031 73.656 334.538 72.4619 328.032C70.4547 317.094 70.4072 316.115 71.8297 315.029C72.6748 314.383 73.5915 313.844 73.8662 313.831C74.14 313.817 75.0677 316.656 75.9269 320.139C77.7738 327.628 80.0803 332.539 86.567 342.796C94.7605 355.752 96.3154 353.2 89.1139 338.617C84.6015 329.481 84.5522 329.289 86.0285 326.439C87.7265 323.159 86.7793 321.825 83.8614 323.386C82.2536 324.246 81.8552 324.044 81.1282 322.007C80.6608 320.694 79.0967 316.669 77.6538 313.062C75.3176 307.226 75.149 306.126 76.1202 303.067C76.7192 301.177 77.4357 299.633 77.7112 299.636C79.351 299.655 88.3055 316.465 95.9933 333.955C100.072 343.234 102.888 347.299 105.258 347.326C107.43 347.352 106.883 345.086 102.588 336.245C98.5248 327.882 97.8969 325.173 99.4516 322.714C100.747 320.664 99.6759 318.52 98.0374 319.885C96.2732 321.356 94.6792 319.077 92.316 311.702C90.0691 304.692 90.0834 304.416 92.7896 302.444L94.9922 300.837L98.8427 307.725C106.535 321.484 115.911 335.848 121.448 342.354C124.562 346.011 128.3 350.416 129.755 352.141C132.219 355.061 134.149 355.519 134.177 353.19C134.183 352.643 132.345 350.281 130.092 347.943C127.555 345.311 126.006 342.849 126.022 341.476C126.036 340.258 124.397 336.651 122.379 333.462C120.36 330.274 118.499 326.047 118.242 324.069C117.782 320.53 117.798 320.508 119.284 322.624C120.115 323.806 121.749 324.784 122.918 324.798C126.393 324.839 132.971 332.177 135.128 338.42C136.162 341.416 138.219 345.629 139.697 347.78C142.429 351.756 143.423 355.545 145.293 369.112L146.339 376.703L143.075 380.014C141.28 381.835 136.721 389.029 132.945 395.999C129.168 402.971 125.205 409.73 124.138 411.02L122.196 413.366L119.867 410.022C118.585 408.184 114.875 404.09 111.623 400.926C93.2184 383.018 76.6248 363.306 68.8504 350.116C66.2975 345.784 65.7679 343.966 65.8816 339.933C65.9576 337.233 65.6806 334.38 65.267 333.594C64.0394 331.263 66.4023 331.222 68.1865 333.543ZM71.0929 311.4C71.6033 311.084 72.016 311.251 72.0099 311.772C72.0037 312.293 71.5811 312.978 71.0706 313.294C70.5601 313.61 70.1475 313.442 70.1536 312.921C70.1597 312.401 70.5824 311.716 71.0929 311.4ZM74.0069 298.645C74.5136 298.651 74.8874 299.614 74.8386 300.786C74.753 302.819 74.7132 302.829 73.9791 301.013C73.5556 299.966 73.1818 299.002 73.1474 298.872C73.1139 298.741 73.5002 298.639 74.0069 298.645ZM81.3165 327.151C82.9442 330.557 85.4099 335.488 86.7962 338.11L89.3163 342.876L86.9701 340.006C84.3079 336.749 78.3289 324.53 78.3459 322.379C78.3523 321.598 79.6889 323.745 81.3165 327.151ZM94.0618 255.5C107.357 248.962 114.847 240.883 129.211 217.586C135.045 208.125 136.365 206.538 138.387 206.562C142.798 206.614 151.555 213.699 171.156 233.073C177.219 239.065 183.056 244.737 184.126 245.676L186.072 247.385L182.086 251.95L178.1 256.516L174.806 253.049C170.04 248.032 165.931 248.151 158.088 253.535C154.268 256.158 148.881 258.63 142.748 260.575C137.548 262.224 132.686 264.183 131.943 264.931C130.091 266.79 130.209 269.914 132.329 275.173C133.314 277.616 134.119 279.686 134.118 279.773C134.117 279.86 132.27 279.982 130.014 280.046C125.046 280.184 120.866 282.035 120.415 284.298C120.012 286.315 125.745 292.622 128.005 292.648C128.881 292.658 131.11 294.106 132.96 295.865C135.437 298.221 137.817 299.384 141.999 300.281C145.121 300.951 153.116 303.247 159.768 305.383C173.814 309.896 180.27 310.368 188.154 307.462C190.953 306.43 194.387 305.369 195.783 305.106C198.096 304.67 198.319 304.879 198.289 307.449C198.24 311.646 192.494 322.304 185.982 330.276C182.821 334.146 179.426 338.336 178.437 339.586C176.713 341.767 176.521 341.799 173.689 340.369C169.135 338.069 139.763 313.299 109.168 285.958C91.8887 270.516 85.3537 263.668 85.7005 261.362C85.9005 260.03 88.3717 258.297 94.0618 255.5ZM123.881 284.074C124.36 284.079 125.902 285.15 127.308 286.452C130.173 289.106 128.722 289.699 125.244 287.296C122.976 285.729 122.268 284.055 123.881 284.074ZM126.36 410.755C128.032 408.521 131.945 401.924 135.055 396.094C140.851 385.224 145.447 378.69 146.714 379.516C147.108 379.773 147.931 381.912 148.543 384.272C150.141 390.425 148.705 393.116 140.521 399.298C133.871 404.32 128.906 409.684 128.88 411.875C128.858 413.735 129.815 413.159 135.447 407.922C141.099 402.667 146.461 400.57 151.535 401.629C155.503 402.458 154.119 404.574 147.398 407.955C136.627 413.372 131.572 418.943 131.474 425.506C131.428 428.522 131.286 428.4 127.393 421.953C125.175 418.279 123.35 415.17 123.339 415.045C123.327 414.919 124.687 412.988 126.36 410.755ZM137.614 283.716C139.71 284.547 143.179 285.928 145.322 286.785C152.189 289.529 162.595 287.07 162.646 282.691C162.659 281.601 167.143 276.82 174.076 270.505L185.485 260.113L186.102 264.059C187.384 272.262 192.11 276.29 205.789 280.841C206.625 281.119 206.284 281.996 204.656 283.76C202.43 286.17 201.09 290.291 199.75 298.843C199.197 302.366 198.836 302.808 196.201 303.181C194.587 303.409 190.883 304.475 187.969 305.548C180.009 308.482 174 308.032 159.739 303.438C153.018 301.272 145.852 299.206 143.813 298.847C141.294 298.402 139.971 297.629 139.682 296.434C139.238 294.599 137.637 293.955 137.618 295.603C137.578 298.931 131.632 293.096 130.788 288.901C130.461 287.277 129.13 285.244 127.792 284.324L125.384 282.67L129.594 282.437C131.909 282.308 135.519 282.884 137.614 283.716ZM139.375 263.661C150.434 260.166 153.485 258.829 159.028 255.054C165.646 250.545 169.555 250.268 173.298 254.043C174.703 255.46 175.847 257.08 175.84 257.643C175.833 258.207 171.686 262.812 166.622 267.878L157.416 277.089L155.037 275.446C151.579 273.056 146.177 273.229 144.106 275.796C143.186 276.937 142.421 278.889 142.406 280.133C142.376 282.719 140.161 283.101 137.504 280.979C135.402 279.301 132.357 271.175 132.666 268.072C132.869 266.028 133.782 265.428 139.375 263.661ZM145.45 276.985C146.732 275.347 153.444 275.545 154.053 277.239C154.428 278.279 150.18 286.277 149.259 286.266C149.149 286.265 147.776 285.788 146.208 285.205C143.631 284.247 143.414 283.857 143.944 281.152C144.267 279.505 144.945 277.63 145.45 276.985ZM146.7 455.384C150.152 459.237 172.177 487.963 174.883 492.14C179.085 498.626 181.539 503.597 180.87 504.268C179.501 505.643 170.941 497.066 164.988 488.357C161.817 483.717 145.869 455.865 145.88 454.984C145.883 454.703 146.252 454.883 146.7 455.384ZM178.962 260.09C179.951 260.102 181.731 259.196 182.917 258.077C184.102 256.958 185.067 256.498 185.061 257.055C185.042 258.647 161.038 280.102 157.756 281.461C155.539 282.379 157.565 279.898 165.989 271.374C172.664 264.622 177.889 260.077 178.962 260.09ZM159.878 283.076C160.388 282.759 160.801 282.953 160.794 283.504C160.788 284.055 160.368 284.502 159.861 284.496C159.354 284.49 158.942 284.298 158.945 284.068C158.947 283.838 159.367 283.392 159.878 283.076ZM171.707 151.061C173.745 143.441 186.435 104.628 187.906 101.516C188.543 100.17 188.644 100.953 188.26 104.256C187.965 106.799 183.616 121.019 178.596 135.857C167.847 167.629 166.457 170.698 171.707 151.061ZM177.111 36.3902C178.026 34.6238 179.167 33.6718 180.136 33.8679C182.087 34.2622 184.697 39.7931 184.995 44.1677C185.218 47.4604 185.189 47.4875 181.162 47.7367C178.54 47.8982 176.838 47.5438 176.35 46.7328C175.138 44.7131 175.524 39.4561 177.111 36.3902ZM187.565 334.557C194.97 325.704 202.564 314.69 203.787 311.027L204.906 307.678L208.251 309.771C227.205 321.624 230.058 322.919 232.799 320.909C234.363 319.761 234.365 319.59 232.846 317.146C230.789 313.833 224.492 309.652 216.593 306.357C211.697 304.315 210.316 303.312 210.333 301.812C210.35 300.398 214.678 285.523 215.665 283.49C215.729 283.358 218.02 283.719 220.755 284.292C223.491 284.865 231.047 286.205 237.546 287.271C244.043 288.337 249.506 289.362 249.684 289.549C249.862 289.736 250.018 299.465 250.03 311.169C250.047 326.97 249.708 333.787 248.714 337.644C246.107 347.757 241.044 355.123 235.189 357.319C230.716 358.997 224.235 358.314 211.009 354.77C203.983 352.889 196.167 350.854 193.64 350.248C191.113 349.643 186.65 348.009 183.722 346.617L178.397 344.086L180.628 342.136C181.854 341.064 184.976 337.653 187.565 334.557ZM183.609 252.803C186.752 249.327 188.372 249.003 189.68 251.59C190.82 253.844 189.039 255.617 186.385 254.869C185.247 254.549 183.904 255.083 182.818 256.287C180.924 258.39 178.964 258.928 180.132 257.025C180.529 256.378 182.093 254.479 183.609 252.803ZM183.596 149.243C184.884 146.838 186.998 146.951 187.741 149.466C188.555 152.215 184.814 156.241 183.491 154.041C182.387 152.205 182.403 151.47 183.596 149.243ZM189.902 256.731C191.062 255.023 192.243 253.625 192.526 253.625C192.81 253.624 197.65 258.211 203.281 263.818C213.778 274.271 214.988 276.522 211.333 278.817C209.313 280.085 202.887 278.366 195.967 274.706C188.051 270.52 185.557 263.129 189.902 256.731ZM189.743 246.007C190.83 246.019 191.971 247.88 191.303 248.552C190.635 249.222 188.852 248.005 188.866 246.888C188.871 246.397 189.266 246.001 189.743 246.007ZM196.791 317.341C198.086 314.909 199.417 311.528 199.748 309.83C200.437 306.29 201.762 305.031 202.536 307.181C203.137 308.849 200.268 315.211 196.773 319.964C193.774 324.042 193.781 322.991 196.791 317.341ZM203.148 290.66C203.625 288.826 204.687 286.493 205.507 285.477C206.956 283.682 206.982 283.696 206.455 285.991C206.157 287.29 205.386 291.971 204.742 296.392C203.433 305.393 203.449 305.35 201.999 304.404C200.908 303.692 201.452 297.173 203.148 290.66ZM206.763 294.521C208.013 286.911 209.458 283.185 211.154 283.204C213.436 283.231 213.381 285.465 210.919 292.623C207.166 303.536 207.328 304.18 214.644 307.405C224.719 311.844 232.889 317.647 231.724 319.533C230.992 320.72 225.789 318.365 215.409 312.148C204.488 305.607 204.828 306.302 206.763 294.521Z" fill="#30C5A2" fill-opacity="0.25"/>
</svg>
