<svg width="356" height="687" viewBox="0 0 356 687" fill="none" xmlns="http://www.w3.org/2000/svg">
<path fill-rule="evenodd" clip-rule="evenodd" d="M3.98288 201.957C10.3025 208.55 16.5198 211.149 58.6087 224.799C85.995 233.68 95.1041 237.285 156.67 263.602C211.899 287.209 216.432 288.483 219.583 281.276C221.429 277.059 220.173 274.164 216.477 274.113C211.299 274.041 208.825 271.784 208.909 267.21C209.042 259.944 212.236 248.751 228.188 199.684C245.367 146.833 247.643 138.212 245.446 134.279C244.676 132.897 244.068 130.023 244.098 127.892C244.168 122.845 246.133 122.928 255.971 128.392C261.621 131.531 263.724 133.421 263.977 135.589C264.33 138.609 260.222 153.798 251.429 181.996C246.156 198.902 244.806 201.667 243.222 198.8C241.68 196.009 236.77 197.517 235.029 201.318C232.012 207.904 236.613 215.398 241.209 211.384C242.59 210.176 242.95 210.226 242.929 211.624C242.863 216.007 236.205 240.702 230.486 257.768C227.032 268.076 224.192 277.456 224.176 278.612C224.16 279.769 225.342 281.202 226.805 281.799C228.267 282.396 243.617 283.747 260.918 284.801C291.921 286.692 317.534 290.239 328.678 294.186C345.861 300.271 353.97 311.026 350.708 323.406C349.989 326.134 345.569 333.741 340.887 340.311C329.644 356.088 325.398 365.477 323.498 378.768C322.662 384.621 321.896 389.556 321.796 389.733C321.544 390.181 291.126 384.763 283.902 382.982C274.821 380.744 274.418 380.531 276.04 378.824C280.265 374.376 276.135 367.792 258.252 350.46C251.062 343.492 248.473 340.186 248.961 338.603C250.463 333.734 244.22 328.308 241.813 332.392C241.38 333.126 234.27 326.607 225.792 317.699C206.622 297.555 191.842 283.782 184.775 279.479C176.982 274.731 174.833 275.968 166.977 289.725C148.725 321.686 136.703 335.803 121.02 343.695C116.047 346.197 111.064 349.206 109.945 350.384C104.817 355.781 107.889 359.961 137.412 387.746C149.079 398.727 159.986 409.092 161.65 410.779C165.847 415.038 153.774 404.572 140.007 392.018C113.653 367.984 108.264 363.922 102.633 363.844C98.123 363.781 90.5966 370.287 69.8544 392.183C37.5009 426.333 27.967 442.456 33.3381 453.938C35.7503 459.095 41.5246 464.755 66.2493 486.198C92.5398 508.998 96.7042 512.886 121.367 537.647C141.101 557.461 148.848 563.845 153.229 563.906C156.921 563.958 158.631 566.873 184.417 617.074C203.039 653.327 211.816 667.991 221.161 678.452C227.105 685.11 229.778 687.245 231.811 686.96C238.979 685.957 231.097 671.031 204.906 636.009C180.74 603.697 173.071 590.884 171.656 580.46C170.337 570.735 174.198 565.477 189.356 556.357C194.227 553.427 198.794 550.035 199.504 548.82C202.386 543.896 193.458 540.409 184.809 543.081C182.31 543.854 182.485 543.499 185.971 540.727C194.13 534.237 195.971 528.597 193.005 519.163C191.569 514.599 191.641 514.258 194.408 512.352C196.011 511.249 203.633 501.354 211.346 490.362C219.059 479.371 225.725 469.96 226.158 469.45C226.591 468.94 230.791 470.28 235.491 472.43C246.876 477.637 286.468 488.601 294.143 488.673C310.395 488.825 320.921 475.171 323.857 450.133C324.503 444.617 324.89 429.397 324.715 416.309L324.397 392.513L327.239 393.281C328.801 393.704 347.953 396.602 369.798 399.722C391.643 402.844 411.782 405.759 414.554 406.201C417.493 406.672 419.599 406.485 419.609 405.755C419.63 404.276 417.371 403.843 389.396 399.974C360.566 395.986 330.706 391.519 327.453 390.709C325.264 390.162 324.801 389.18 324.857 385.195C325.03 372.775 331.09 357.86 342.105 342.746C353.905 326.554 356.005 319.882 352.286 310.404C345.756 293.764 323.042 286.306 267.483 282.56C254.427 281.68 240.539 280.899 236.619 280.823C232.7 280.747 228.784 280.184 227.916 279.571C226.659 278.682 228.006 273.207 234.54 252.626C239.051 238.42 243.397 222.631 244.2 217.539C245.001 212.448 249.243 196.806 253.625 182.783C263.719 150.473 266.932 137.813 266.059 133.793C265.541 131.405 263.231 129.457 256.888 126.053C252.226 123.55 247.729 121.494 246.894 121.482C245.735 121.466 245.434 117.277 245.623 103.78C245.76 94.0542 245.31 81.2055 244.622 75.2242C243.619 66.4938 243.673 64.2476 244.895 63.8261C248.074 62.7283 254.852 55.39 257.326 50.3673C259.033 46.9004 260.13 41.8315 260.579 35.34C261.539 21.4575 258.558 -1.9924 256.181 0.74878C255.895 1.07789 256.316 5.69724 257.115 11.0139C258.847 22.5467 258.858 38.2048 257.138 44.5383C255.84 49.3202 248.792 58.8966 245.009 61.0187C243.066 62.108 242.586 61.3952 240.97 55.0254C238.642 45.8431 234.52 40.8454 230.935 42.8571C225.661 45.8151 223.122 58.7174 226.694 64.4109C228.282 66.9411 229.452 67.3446 234.561 67.1226C239.972 66.888 240.669 67.1742 241.643 70.0277C243.179 74.5353 243.686 118.865 242.2 118.844C241.552 118.835 216.355 108.898 186.205 96.762C56.0415 44.3693 60.4652 45.9243 54.8441 50.5777C49.1785 55.2679 34.0129 90.4377 16.7796 138.852C-0.222548 186.62 -2.0557 195.657 3.98288 201.957ZM8.41483 170.383C26.0111 116.9 48.6254 60.8537 55.6395 53.3451C60.2536 48.4062 55.8988 46.8484 199.278 104.7L242.397 122.097L241.931 125.933C241.675 128.041 241.337 129.909 241.182 130.082C241.026 130.256 237.489 128.835 233.322 126.926C223.042 122.216 137.395 86.1084 105.276 72.9428C89.5028 66.4784 76.7243 62.0044 72.765 61.5608C61.441 60.2903 62.2835 58.567 33.9276 141.02C24.7266 167.773 16.9339 191.166 16.6089 193.004C16.0904 195.942 16.6368 196.626 21.1451 198.678C61.7896 217.171 181.399 268.569 191.454 271.862C195.488 273.184 200.212 273.862 202.717 273.48C205.541 273.048 207.819 273.478 209.311 274.719C210.565 275.763 213.091 276.638 214.926 276.664C218.607 276.715 219.348 279.263 216.423 281.818C215.247 282.844 213.102 283.05 210.177 282.415C204.62 281.208 177.857 270.216 128.952 249.054C101.886 237.342 81.751 229.627 58.0057 221.866C8.39224 205.652 3.08127 202.719 3.23614 191.614C3.28256 188.284 5.45233 179.389 8.41483 170.383ZM38.3121 135.51C62.6271 64.8573 63.1934 63.6048 70.7401 63.7306C77.3497 63.8395 86.4624 67.4444 180.716 107.24C244.01 133.962 240.474 132.309 240.429 135.153C240.409 136.427 236.533 149.28 231.813 163.716C221.642 194.838 218.488 206.741 210.952 242.453C207.836 257.226 204.613 269.794 203.792 270.384C199.613 273.38 190.669 269.924 94.2031 228.037C16.7462 194.404 18.4067 195.195 19.0772 192.26C19.3998 190.85 28.0552 165.313 38.3121 135.51ZM36.4853 438.162C40.2185 429.695 49.6792 417.455 66.8614 398.859C88.767 375.152 98.5254 366.359 102.861 366.419C107.236 366.48 115.95 373.074 135.88 391.403C178.472 430.573 211.372 458.714 220.92 464.14C222.906 465.269 224.692 466.347 224.892 466.536C225.452 467.072 196.716 506.973 193.833 509.663C190.65 512.633 190.618 512.546 188.519 495.399C186.677 480.361 185.955 477.851 180.618 467.949C178.468 463.96 176.024 458.416 175.187 455.627C174.22 452.409 170.365 446.846 164.627 440.388C156.377 431.104 155.327 430.321 152.576 431.41C147.032 433.602 148.557 442.779 156.502 455.018C159.762 460.038 160.78 463.69 158.914 463.664C156.809 463.635 144.298 443.522 129.674 416.659C122.075 402.701 121.214 401.82 117.094 403.78C114.093 405.21 114 405.56 114.621 413.091C115.273 421.005 119.964 434.848 122.917 437.577C123.801 438.394 124.505 440.414 124.482 442.067C124.459 443.72 126.775 450.166 129.628 456.392C135.26 468.681 135.379 469.021 133.61 467.801C132.129 466.78 128.938 459.962 122.028 443.054C111.828 418.099 100.7 400.299 95.8933 401.252C91.993 402.025 91.0195 405.556 93.0203 411.676L94.8581 417.3L91.4107 418.654C87.1247 420.336 86.9044 423.785 90.0295 440.261C92.8238 454.989 92.8375 454.853 88.9536 450.71C84.1191 445.553 79.2358 446.623 79.218 452.842C79.2057 456.96 83.3908 470.176 86.7223 476.541C94.2727 490.967 121.456 525.886 134.457 537.859C143.226 545.935 154.559 559.598 153.454 560.761C151.325 563.002 141.604 554.713 116.028 528.841C102.852 515.514 77.8484 492.701 55.9763 474.05C49.8127 468.793 42.3594 461.624 39.4146 458.118C33.3146 450.855 32.7081 446.727 36.4853 438.162ZM87.6643 452.265C88.8031 453.833 93.1642 462.69 97.3558 471.948C104.25 487.174 107.21 491.612 109.129 489.592C110.246 488.417 108.578 484.153 103.708 475.73C99.5083 468.466 99.1756 467.277 100.359 463.771C101.894 459.219 101.3 457.968 98.6867 460.252C97.6621 461.147 96.6287 461.648 96.389 461.368C96.1482 461.087 94.7126 453.628 93.1976 444.792C90.651 429.939 90.5935 428.61 92.4316 427.138C93.5237 426.263 94.7076 425.532 95.0619 425.516C95.415 425.497 96.6003 429.353 97.695 434.083C100.048 444.254 103.003 450.927 111.328 464.865C121.843 482.47 123.858 479.009 114.628 459.197C108.844 446.784 108.781 446.524 110.696 442.657C112.897 438.208 111.681 436.394 107.913 438.508C105.837 439.672 105.324 439.398 104.394 436.63C103.797 434.846 101.795 429.379 99.9483 424.479C96.9582 416.552 96.745 415.058 98.0087 410.907C98.7881 408.342 99.7178 406.247 100.073 406.252C102.187 406.281 113.669 429.12 123.515 452.881C128.739 465.486 132.354 471.011 135.41 471.053C138.21 471.092 137.514 468.015 132.01 456.004C126.802 444.641 126.003 440.962 128.016 437.627C129.695 434.846 128.322 431.934 126.204 433.784C123.923 435.777 121.877 432.679 118.858 422.663C115.987 413.141 116.007 412.767 119.504 410.094L122.349 407.918L127.288 417.277C137.154 435.971 149.189 455.491 156.303 464.335C160.304 469.306 165.106 475.294 166.977 477.639C170.142 481.608 172.629 482.235 172.673 479.072C172.684 478.329 170.323 475.119 167.427 471.941C164.166 468.362 162.178 465.016 162.204 463.153C162.227 461.499 160.127 456.599 157.537 452.266C154.946 447.933 152.562 442.19 152.238 439.505C151.659 434.7 151.68 434.669 153.588 437.545C154.655 439.152 156.758 440.483 158.264 440.504C162.745 440.566 171.199 450.543 173.956 459.022C175.278 463.092 177.914 468.815 179.811 471.739C183.319 477.142 184.586 482.288 186.946 500.711L188.266 511.019L184.045 515.506C181.724 517.976 175.819 527.732 170.923 537.188C166.028 546.645 160.892 555.814 159.511 557.563L156.999 560.743L154.009 556.2C152.362 553.701 147.595 548.136 143.414 543.834C119.752 519.484 98.4316 492.689 88.4577 474.766C85.1826 468.88 84.5066 466.411 84.6685 460.936C84.7766 457.271 84.4303 453.397 83.8999 452.328C82.326 449.162 85.3727 449.11 87.6643 452.265ZM91.4953 422.209C92.1547 421.781 92.6861 422.01 92.6762 422.717C92.6664 423.424 92.1188 424.353 91.4595 424.781C90.8001 425.209 90.2687 424.981 90.2786 424.273C90.2884 423.566 90.836 422.637 91.4953 422.209ZM95.3007 404.899C95.954 404.908 96.4323 406.216 96.3649 407.808C96.2469 410.567 96.1956 410.581 95.2559 408.114C94.7138 406.691 94.2355 405.382 94.1916 405.205C94.1489 405.028 94.6474 404.89 95.3007 404.899ZM104.618 443.614C106.703 448.241 109.864 454.941 111.641 458.503L114.872 464.979L111.858 461.078C108.438 456.65 100.775 440.049 100.805 437.13C100.817 436.069 102.532 438.987 104.618 443.614ZM121.321 346.365C138.488 337.517 148.175 326.564 166.784 294.963C174.341 282.131 176.05 279.98 178.657 280.016C184.343 280.096 195.607 289.732 220.806 316.074C228.601 324.221 236.105 331.934 237.482 333.211L239.983 335.534L234.827 341.724L229.67 347.915L225.437 343.201C219.31 336.38 214.012 336.534 203.88 343.828C198.944 347.381 191.99 350.726 184.074 353.354C177.364 355.582 171.088 358.232 170.127 359.245C167.733 361.766 167.873 366.007 170.587 373.151C171.847 376.469 172.877 379.281 172.875 379.399C172.874 379.518 170.492 379.68 167.583 379.762C161.177 379.94 155.781 382.445 155.19 385.515C154.664 388.253 162.031 396.826 164.944 396.867C166.074 396.883 168.943 398.852 171.321 401.244C174.506 404.449 177.571 406.032 182.959 407.258C186.982 408.174 197.282 411.308 205.849 414.221C223.943 420.375 232.264 421.03 242.441 417.1C246.054 415.705 250.485 414.272 252.286 413.918C255.27 413.33 255.557 413.615 255.509 417.103C255.429 422.801 247.981 437.258 239.555 448.068C235.464 453.317 231.071 458.998 229.791 460.692C227.56 463.65 227.312 463.693 223.667 461.746C217.804 458.615 180.027 424.927 140.683 387.747C118.463 366.747 110.063 357.437 110.519 354.307C110.781 352.499 113.974 350.151 121.321 346.365ZM159.66 385.218C160.278 385.226 162.261 386.683 164.07 388.453C167.753 392.062 165.88 392.865 161.406 389.596C158.487 387.464 157.58 385.189 159.66 385.218ZM162.377 557.208C164.542 554.178 169.612 545.23 173.643 537.321C181.158 522.576 187.108 513.714 188.739 514.839C189.246 515.188 190.298 518.094 191.079 521.298C193.117 529.656 191.254 533.306 180.679 541.682C172.086 548.487 165.664 555.759 165.623 558.734C165.587 561.258 166.823 560.478 174.105 553.379C181.411 546.257 188.333 543.421 194.87 544.869C199.984 546.003 198.192 548.873 189.513 553.449C175.605 560.782 169.067 568.334 168.915 577.244C168.845 581.339 168.662 581.172 163.668 572.412C160.821 567.42 158.48 563.196 158.466 563.026C158.451 562.855 160.212 560.236 162.377 557.208ZM177.368 384.76C180.067 385.892 184.535 387.774 187.295 388.942C196.139 392.682 209.564 389.364 209.647 383.42C209.668 381.939 215.466 375.458 224.43 366.898L239.179 352.813L239.96 358.172C241.582 369.311 247.659 374.788 265.28 380.995C266.357 381.374 265.914 382.564 263.807 384.956C260.928 388.223 259.185 393.815 257.425 405.422C256.699 410.204 256.231 410.804 252.832 411.304C250.751 411.611 245.971 413.05 242.21 414.501C231.935 418.469 224.19 417.846 205.82 411.58C197.162 408.626 187.931 405.806 185.304 405.314C182.057 404.706 180.354 403.653 179.986 402.03C179.421 399.538 177.359 398.661 177.328 400.898C177.265 405.416 169.62 397.483 168.547 391.785C168.132 389.58 166.423 386.817 164.702 385.566L161.604 383.315L167.032 383.008C170.018 382.837 174.67 383.626 177.368 384.76ZM179.714 357.536C193.986 352.814 197.924 351.005 205.086 345.891C213.636 339.784 218.677 339.416 223.488 344.548C225.295 346.474 226.763 348.676 226.753 349.441C226.742 350.206 221.377 356.45 214.829 363.317L202.925 375.803L199.863 373.567C195.413 370.316 188.449 370.54 185.769 374.02C184.578 375.568 183.584 378.216 183.56 379.906C183.511 383.417 180.654 383.93 177.236 381.043C174.533 378.761 170.637 367.723 171.048 363.512C171.317 360.737 172.496 359.924 179.714 357.536ZM187.496 375.638C189.156 373.417 197.809 373.699 198.588 376C199.067 377.412 193.561 388.263 192.373 388.246C192.23 388.244 190.462 387.593 188.443 386.798C185.124 385.493 184.845 384.963 185.539 381.292C185.962 379.057 186.842 376.512 187.496 375.638ZM188.435 617.838C192.87 623.076 221.159 662.119 224.632 667.796C230.025 676.609 233.17 683.363 232.306 684.273C230.536 686.137 219.531 674.476 211.889 662.639C207.818 656.334 187.361 618.489 187.378 617.293C187.383 616.912 187.858 617.157 188.435 617.838ZM230.769 352.769C232.043 352.787 234.342 351.561 235.875 350.044C237.407 348.527 238.654 347.905 238.643 348.661C238.613 350.822 207.583 379.901 203.347 381.739C200.484 382.982 203.105 379.616 214 368.062C222.631 358.909 229.385 352.749 230.769 352.769ZM206.076 383.936C206.735 383.508 207.266 383.771 207.256 384.519C207.245 385.268 206.702 385.874 206.049 385.865C205.396 385.855 204.865 385.593 204.869 385.281C204.873 384.968 205.416 384.364 206.076 383.936ZM221.827 204.734C224.484 194.393 240.992 141.725 242.899 137.504C243.726 135.677 243.853 136.742 243.346 141.225C242.956 144.676 237.295 163.974 230.766 184.108C216.787 227.219 214.983 231.383 221.827 204.734ZM229.228 49.0662C230.414 46.6698 231.888 45.3798 233.137 45.648C235.651 46.1872 238.995 53.7014 239.363 59.641C239.639 64.1117 239.601 64.1484 234.408 64.4786C231.026 64.6925 228.833 64.208 228.208 63.1059C226.652 60.3614 227.17 53.2253 229.228 49.0662ZM241.58 453.884C251.161 441.88 260.993 426.942 262.584 421.973L264.039 417.427L268.345 420.275C292.737 436.406 296.411 438.17 299.952 435.447C301.973 433.892 301.976 433.659 300.028 430.338C297.388 425.835 289.285 420.147 279.113 415.658C272.808 412.875 271.03 411.512 271.059 409.475C271.086 407.555 276.723 387.37 278.002 384.611C278.086 384.432 281.038 384.927 284.563 385.711C288.088 386.494 297.824 388.329 306.2 389.789C314.573 391.249 321.613 392.652 321.841 392.906C322.07 393.16 322.234 406.368 322.206 422.259C322.169 443.71 321.706 452.964 320.409 458.199C317.01 471.923 310.453 481.913 302.897 484.882C297.122 487.151 288.77 486.21 271.73 481.373C262.678 478.805 252.608 476.026 249.353 475.199C246.097 474.372 240.349 472.145 236.578 470.249L229.723 466.802L232.606 464.159C234.191 462.706 238.229 458.082 241.58 453.884ZM236.787 342.885C240.853 338.172 242.943 337.736 244.62 341.251C246.081 344.313 243.778 346.716 240.358 345.696C238.893 345.259 237.159 345.981 235.754 347.614C233.304 350.465 230.776 351.191 232.288 348.61C232.803 347.732 234.826 345.157 236.787 342.885ZM237.162 202.291C238.833 199.028 241.557 199.185 242.506 202.602C243.545 206.335 238.706 211.794 237.008 208.804C235.593 206.309 235.616 205.311 237.162 202.291ZM244.886 348.231C246.389 345.914 247.917 344.019 248.282 344.019C248.648 344.019 254.87 350.256 262.109 357.88C275.605 372.091 277.155 375.151 272.435 378.258C269.826 379.976 261.546 377.629 252.638 372.647C242.448 366.947 239.26 356.908 244.886 348.231ZM244.722 333.671C246.124 333.69 247.588 336.219 246.724 337.129C245.86 338.038 243.566 336.383 243.588 334.865C243.597 334.199 244.107 333.662 244.722 333.671ZM253.539 430.529C255.219 427.231 256.947 422.644 257.381 420.339C258.282 415.534 259.996 413.827 260.985 416.748C261.753 419.014 258.031 427.645 253.506 434.09C249.624 439.621 249.637 438.195 253.539 430.529ZM261.836 394.32C262.459 391.831 263.837 388.667 264.898 387.288C266.773 384.854 266.807 384.874 266.118 387.988C265.729 389.751 264.717 396.104 263.871 402.105C262.149 414.323 262.169 414.264 260.304 412.977C258.899 412.009 259.626 403.158 261.836 394.32ZM266.483 399.569C268.124 389.24 270.001 384.184 272.187 384.215C275.13 384.256 275.05 387.289 271.849 397.001C266.969 411.809 267.176 412.684 276.596 417.076C289.569 423.123 300.081 431.018 298.571 433.577C297.624 435.187 290.924 431.978 277.564 423.518C263.508 414.616 263.943 415.559 266.483 399.569Z" fill="#23BD98" fill-opacity="0.22"/>
</svg>
