<svg width="381" height="574" viewBox="0 0 381 574" fill="none" xmlns="http://www.w3.org/2000/svg">
<path fill-rule="evenodd" clip-rule="evenodd" d="M159.988 1.60337C157.766 2.71244 153.458 5.6164 150.417 8.05636C147.376 10.4963 143.882 12.4927 142.652 12.4927C136.058 12.4927 129.221 17.7155 120.037 29.7653C115.984 35.0813 110.131 41.5172 107.028 44.0664C95.7632 53.3226 93.6818 57.0281 93.6818 67.8295C93.6818 76.4632 95.1338 81.9035 100.066 91.7566C105.554 102.717 105.245 106.36 97.3364 123.954C91.9036 136.04 91.3711 137.879 90.972 145.944C90.4264 156.978 91.5216 160.758 98.4114 171.621C102.882 178.67 104.063 181.526 105.052 187.694C105.713 191.82 105.938 196.986 105.55 199.174C105.162 201.362 101.609 208.354 97.6547 214.712C88.0803 230.101 86.785 233.335 86.7577 241.895C86.7405 247.286 87.3184 250.168 89.2129 254.136C90.5749 256.99 91.466 259.709 91.1932 260.178C90.9194 260.648 86.8304 263.265 82.1069 265.997C66.354 275.103 57.4343 284.889 57.4343 293.063C57.4343 296.123 56.4431 297.903 51.9661 302.88C45.9725 309.544 43.295 316.461 43.2808 325.318C43.2657 335.412 41.2944 348.176 38.8927 353.74C35.6534 361.243 30.7227 366.865 18.5345 376.95C5.29944 387.902 1.93283 391.18 -3.34643 398.257C-16.9604 416.508 -24.0745 444.332 -21.4677 469.126C-19.9703 483.37 -15.472 496.601 -11.3274 498.953C-7.64257 501.044 -0.895226 500.193 5.64398 496.809C11.9144 493.565 11.9367 493.562 29.8235 493.57C39.6697 493.576 55.9349 492.871 65.968 492.003C91.1589 489.825 90.0485 489.654 83.0617 494.643C69.3164 504.46 67.2572 508.694 66.7066 528.289C66.4742 536.572 66.7207 542.481 67.326 543.123C68.5516 544.423 71.9303 542.738 75.8273 538.885L78.5594 536.183L77.9542 543.838C77.3025 552.078 77.2045 551.926 82.9465 551.525C84.6732 551.404 85.7241 551.868 85.722 552.751C85.717 555.181 92.9049 573.995 93.8395 573.995C95.8511 573.995 99.8704 571.408 99.8704 570.112C99.8704 565.576 104.65 555.928 109.372 550.931C115.01 544.965 119.572 543.106 134.224 540.804C138.391 540.149 144.426 538.894 147.634 538.016C153.085 536.523 153.903 536.562 160.133 538.603C163.8 539.803 169.814 541.005 173.498 541.272C177.182 541.539 181.784 542.26 183.725 542.874C189.424 544.677 194.594 544.259 196.905 541.808C198.594 540.016 199.545 539.794 202.209 540.567C204.146 541.13 206.603 541.1 208.301 540.494C210.218 539.811 217.139 540.069 229.519 541.288C259.805 544.269 280.776 543.111 308.431 536.926C333.617 531.293 338.983 528.638 348.539 517.089C354.35 510.065 357.588 504.028 364.765 486.841C371.481 470.759 375.427 457.533 379.366 437.905C381.563 426.96 381.54 399.811 379.324 387.542C378.418 382.532 376.763 371.924 375.645 363.967C371.782 336.483 366.847 319.015 357.52 299.803C348.64 281.513 337.898 269.409 324.321 262.393C319.117 259.705 315.785 257.105 313.207 253.723C311.182 251.066 307.43 246.455 304.868 243.475C290.686 226.978 279.461 205.856 275.795 188.766C274.656 183.461 272.566 167.79 271.151 153.94C266.382 107.296 261.584 72.8005 256.863 51.2127C252.418 30.8883 241.066 17.1336 222.676 9.79229C213.404 6.0911 204.317 4.18371 186.716 2.24417C178.685 1.35906 170.294 0.398935 168.071 0.110683C165.351 -0.241863 162.708 0.24569 159.988 1.60337ZM167.566 6.09753C167.566 6.70618 166.89 8.91896 166.064 11.016C164.593 14.7504 164.473 14.8137 160.254 14.0764C152.903 12.7905 152.688 12.049 158.612 8.38748C164.122 4.98203 167.566 4.10119 167.566 6.09753ZM193.331 8.2353C213.554 10.6442 229.025 16.7961 238.501 26.198C248.224 35.8432 251.085 43.7707 255.971 74.6179C261.135 107.224 263.248 123.439 265.049 144.296C269.737 198.594 276.728 218.24 301.059 245.502C305.559 250.543 308.793 254.667 308.247 254.667C307.701 254.667 305.263 253.881 302.832 252.918C299.851 251.74 295.121 251.162 288.307 251.146C279.363 251.123 277.023 251.551 267.927 254.864L257.651 258.608L254.034 247.731C249.952 235.453 249.822 233.578 251.931 217.467C254.233 199.881 259.508 131.234 259.489 119.114C259.45 95.0388 254.519 75.7066 245.1 62.6967C242.926 59.6942 240.868 55.1239 239.918 51.1934C235.518 32.9789 225.264 22.589 206.466 17.2986C202.969 16.3149 193.921 15.3237 185.083 14.9562L169.762 14.3197L171.377 10.7278C172.924 7.28482 173.228 7.1348 178.615 7.14338C181.708 7.14873 188.33 7.63951 193.331 8.2353ZM157.25 16.69C159.634 17.1786 161.822 17.8312 162.114 18.1398C162.405 18.4495 161.045 22.0682 159.092 26.183L155.54 33.6636L148.758 34.433C145.028 34.8574 140.004 35.8336 137.594 36.6019C135.184 37.3713 133.213 37.8074 133.213 37.5717C133.213 36.8419 140.485 26.1509 144.622 20.7973C148.787 15.4095 149.645 15.1298 157.25 16.69ZM137.256 22.9404C132.22 30.4157 122.193 43.6635 114.086 53.5552C106.888 62.3367 104.995 67.5756 104.199 80.9348C103.604 90.9165 103.59 90.9615 101.758 88.4358C98.6681 84.1752 96.4614 75.6134 96.5049 68.0567C96.5564 59.1777 98.5519 55.4411 107.59 47.3101C111.179 44.0804 117.626 36.9844 121.916 31.5419C129.377 22.0768 135.657 16.8347 139.584 16.7961C141.068 16.7821 140.634 17.9266 137.256 22.9404ZM205.456 20.4673C219.751 24.4792 229.703 31.8388 234.519 41.9608C236.036 45.1476 238.408 53.2123 237.829 53.2123C237.664 53.2123 234.885 51.5246 231.656 49.4629C224.148 44.6676 217.589 42.0926 207.476 39.9688C198.821 38.1503 175.53 35.2131 166.808 34.8402C163.891 34.7148 161.504 34.2048 161.504 33.7054C161.504 33.2072 163.134 29.3677 165.124 25.1736L168.745 17.5483L184.069 18.158C192.975 18.5117 201.932 19.4793 205.456 20.4673ZM177.986 40.8753C193.428 42.6134 194.256 42.9895 202.009 51.7806C211.502 62.5435 217.625 76.9014 219.984 93.9319C222.638 113.087 224.245 126.545 224.808 134.334C226.295 154.902 217.392 168.859 198.3 175.892C189.202 179.244 173.737 182.872 168.547 182.872C162.024 182.872 157.699 179.653 145.693 165.863C129.074 146.773 127.327 141.937 126.445 112.594L125.863 93.2161L128.781 91.0815C135.713 86.0119 140.517 85.5072 145.948 89.2813C149.179 91.5262 149.034 93.0757 145.719 91.7384C140.494 89.6317 130.182 93.9222 130.182 98.2021C130.182 100.749 132.809 101.024 135.615 98.77C137.293 97.422 137.701 97.4938 139.151 99.3883C140.942 101.726 142.851 102.021 148.622 100.85L152.41 100.081V104.902C152.41 107.553 151.046 114.112 149.379 119.477C145.821 130.929 145.643 133.904 148.347 136.771C150.129 138.661 151.554 138.865 161.481 138.646C171.447 138.428 172.616 138.199 172.617 136.472C172.619 133.354 166.011 130.949 161.435 132.403C151.62 135.523 150.281 133.024 154.42 119.319C158.434 106.031 158.444 99.534 154.465 92.1745C149.144 82.3343 139.596 79.7186 129.312 85.2832L125.418 87.39L124.787 79.47C124.044 70.157 125.372 57.4375 127.741 51.1559C129.696 45.9749 132.255 44.3011 142.634 41.4154C151.491 38.9529 159.781 38.8265 177.986 40.8753ZM213.685 46.8739C221.283 49.3246 229.669 53.9324 235.362 58.7844C238.599 61.5437 239.103 62.6335 239.63 68.0106C240.218 74.0178 238.367 110.63 236.152 136.795C235.529 144.162 235.012 159.833 235.004 171.621C234.988 195.57 235.953 202.472 241.935 221.211L245.451 232.224L244.393 246.928C243.812 255.015 242.972 263.079 242.529 264.847C241.911 267.302 239.509 269.669 232.36 274.865C227.212 278.607 222.835 281.493 222.633 281.279C222.431 281.065 223.12 277.623 224.164 273.631C226.708 263.902 227.942 250.686 229.238 219.305C230.139 197.489 230.076 191.329 228.861 182.858C227.818 175.576 227.642 170.22 228.246 164.106C230.399 142.297 228.649 112.83 223.646 86.6452C220.877 72.1576 214.096 57.4289 206.157 48.6581C202.927 45.0887 202.757 44.6397 204.639 44.6397C205.804 44.6397 209.875 45.6449 213.685 46.8739ZM121.057 56.9928C119.712 63.1436 119.907 82.3889 121.595 110.005C123.028 133.473 124.076 140.355 127.54 149.039C129.083 152.909 129.093 154.025 127.655 162.97C126.795 168.317 124.3 181.372 122.11 191.98C116.967 216.89 115.026 230.873 115.026 243.001V252.779L109.609 262.028C106.628 267.115 100.95 277.569 96.9888 285.259C87.7388 303.221 85.8028 310.863 85.0097 332.547L84.4156 348.811L82.2716 345.406C77.5743 337.944 67.3259 336.131 57.4373 341.012C54.3829 342.52 51.0315 344.564 49.9898 345.556C48.1448 347.311 48.1094 347.004 48.6187 333.963C49.2633 317.475 50.4707 313.461 56.6381 307.288C60.5544 303.367 61.9153 300.96 64.0402 294.193C67.2461 283.984 70.8956 280.093 85.0249 271.815C97.7042 264.387 102.61 258.919 106.701 247.654C113.03 230.225 114.641 211.121 111.409 191.853C108.428 174.085 107.989 169.498 107.368 149.653C106.821 132.14 106.995 128.518 108.864 118.578C111.293 105.656 111.451 101.28 109.798 92.7928C107.459 80.7837 111.707 63.0235 118.814 55.0982C120.262 53.4844 121.568 52.2918 121.717 52.4504C121.866 52.6079 121.568 54.6525 121.057 56.9928ZM246.197 74.1079C252.002 86.3205 253.602 95.3667 254.151 119.114C254.511 134.641 254.201 144.974 253.023 156.619C252.128 165.459 250.469 183.783 249.336 197.338C248.202 210.894 247.022 222.708 246.714 223.592C245.939 225.816 242.761 215.785 240.095 202.696C238.222 193.503 237.921 188.706 237.979 168.942C238.015 156.27 238.775 136.5 239.666 125.007C240.558 113.515 241.594 95.7889 241.969 85.6165C242.345 75.4441 242.762 67.2466 242.896 67.3998C243.031 67.5531 244.516 70.5717 246.197 74.1079ZM178.68 78.8613C171.19 80.4644 165.834 85.0132 163.017 92.1649C161.769 95.3335 161.672 96.6054 162.588 97.7756C164.49 100.207 165.5 99.578 167.471 94.7356C171.674 84.411 180.694 81.0988 194.339 84.8686C197.628 85.7762 200.526 86.7384 200.779 87.0063C201.03 87.2742 200.712 88.7155 200.07 90.2093C198.945 92.8292 198.799 92.8667 195.916 91.2851C191.778 89.0155 185.874 89.2363 178.971 91.9152C171.907 94.6573 169.655 96.5754 171.366 98.3907C172.276 99.3551 173.533 99.339 176.736 98.32C180.592 97.0952 181.079 97.1734 182.959 99.3133C184.561 101.136 185.679 101.485 188.155 100.936C189.891 100.551 192.561 100.083 194.089 99.8962C195.617 99.7098 197.299 99.4976 197.826 99.4237C199.254 99.2244 203.659 92.7639 205.426 88.2772L206.975 84.3456L203.872 82.6429C200.776 80.9445 187.078 77.748 183.896 77.9816C182.973 78.0491 180.625 78.4456 178.68 78.8613ZM101.86 124.502C100.8 129.346 100.734 147.859 101.727 161.618C102.498 172.312 101.62 172.535 97.2576 162.754C94.0809 155.635 93.0877 146.351 94.7427 139.269C95.9148 134.255 101.907 119.31 102.496 119.933C102.658 120.105 102.371 122.161 101.86 124.502ZM144.916 147.128C144.152 149.243 146.298 151.473 150.062 152.475C151.689 152.909 152.214 153.793 152.083 155.877C151.933 158.269 152.51 158.909 155.919 160.117C161.011 161.924 166.678 160.692 168.022 157.486C168.57 156.178 170.283 154.917 172.01 154.551C176.303 153.641 179.691 151.025 179.691 148.62C179.691 145.429 178.242 145.183 173.13 147.507C167.467 150.081 158.704 150.264 152.916 147.928C146.003 145.139 145.649 145.104 144.916 147.128ZM158.092 186.087C159.192 186.087 159.483 188.645 159.483 198.304V210.521L156.199 212.59C149.584 216.756 137.135 228.22 127.633 238.896L117.887 249.845L118.439 236.451C118.843 226.661 120.106 217.432 123.133 202.16C125.409 190.668 128.213 176.131 129.362 169.856L131.451 158.448L144.077 172.267C151.02 179.867 157.327 186.087 158.092 186.087ZM223.628 179.856C225.06 190.112 225.299 195.915 224.744 206.913C224.356 214.613 223.643 229.351 223.16 239.665C221.685 271.148 218.107 284.008 207.728 295.119C201.701 301.572 201.287 301.816 196.391 301.808C185.038 301.788 153.114 296.635 144.211 293.384C137.642 290.985 122.568 283.054 119.068 280.154C111.048 273.511 112.633 266.342 125.518 250.971C138.182 235.863 151.037 223.455 158.153 219.469C161.232 217.746 161.227 217.743 163.508 222.485C166.99 229.724 171.187 230.8 175.749 225.621C177.901 223.177 178.68 221.229 178.68 218.286C178.68 213.32 176.242 210.758 170.778 209.98C166.111 209.316 165.545 207.786 165.545 195.834V188.704L174.892 187.364C192.969 184.774 209.804 178.103 217.075 170.648C219.02 168.653 220.88 166.972 221.21 166.91C221.538 166.849 222.627 172.674 223.628 179.856ZM107.857 223.985C106.115 238.08 98.754 256.275 94.7933 256.275C92.628 256.275 90.4486 250.657 89.9677 243.837C89.4554 236.567 91.264 231.74 99.7512 217.723C102.971 212.405 105.981 207.09 106.44 205.911C107.976 201.965 108.985 214.85 107.857 223.985ZM171.362 219.923C170.368 220.978 168.577 219.359 168.577 217.406C168.577 215.769 168.71 215.772 170.284 217.443C171.224 218.44 171.709 219.555 171.362 219.923ZM252.346 251.66C255.036 260.11 255.014 260.458 251.681 262.229C250.153 263.043 248.672 263.844 248.391 264.011C248.11 264.178 248.304 259.975 248.821 254.669C249.339 249.364 249.868 245.023 249.997 245.023C250.127 245.023 251.184 248.01 252.346 251.66ZM302.098 258.183C303.96 258.917 308.395 261.122 311.952 263.083L318.421 266.649L312.744 269.097C309.621 270.443 302.688 274.249 297.336 277.555C291.984 280.861 282.194 285.748 275.581 288.417C251.861 297.989 241.121 305.125 227.53 320.348C206.981 343.362 190.657 370.15 177.189 402.95C171.371 417.121 160.5 449.829 160.496 453.175C160.495 454.206 160.103 455.051 159.624 455.051C159.146 455.051 153.803 452.581 147.752 449.561C141.7 446.542 134.476 443.229 131.698 442.2C126.746 440.365 126.65 440.246 126.83 436.17C127.107 429.904 133.73 406.676 138.863 393.971C148.817 369.335 161.701 349.722 185.246 323.365C196.411 310.867 230.702 281.645 246.807 270.906C265.889 258.181 288.751 252.919 302.098 258.183ZM328.665 271.918C330.641 273.155 332.258 274.24 332.258 274.329C332.257 274.418 329.144 274.492 325.339 274.494C313.842 274.5 302.876 281.479 280.902 302.779C258.875 324.131 251.199 338.216 232.948 390.781C221.261 424.443 213.719 452.308 211.785 468.964C211.134 474.572 210.126 479.516 209.544 479.948C207.515 481.459 192.325 480.867 190.24 479.195C188.425 477.738 188.629 477.619 192.996 477.588C201.522 477.526 203.469 474.887 197.724 471.182C194.084 468.834 177.951 462.426 169.334 459.905C165.129 458.675 163.526 457.696 163.528 456.36C163.532 452.75 168.577 434.618 173.19 421.628C186.935 382.922 208.629 345.172 230.702 321.548C244.207 307.095 255.397 299.732 277.645 290.659C285.673 287.385 296.585 282.14 301.894 279.003C313.937 271.887 316.865 270.662 323.866 269.815C324.529 269.734 326.688 270.681 328.665 271.918ZM127.618 292.711C141.169 299.779 156.439 304.212 173.629 306.068C180.019 306.759 186.781 307.564 188.654 307.858L192.06 308.391L185.623 315.032C159.326 342.158 143.179 367.324 131.882 398.793C128.862 407.207 123.526 426.102 121.669 434.959L121.05 437.905H109.332C97.6608 437.905 97.6163 437.896 98.2639 435.494C102.036 421.506 101.413 410.824 95.0944 381.112C90.5961 359.965 90.4213 358.505 90.4203 342C90.4203 328.729 90.8891 322.543 92.4977 314.621C94.8013 303.27 96.0734 299.988 103.362 286.581L108.37 277.369L112.249 282.044C115.108 285.488 119.152 288.295 127.618 292.711ZM336.438 282.305C339.014 283.311 342.223 285.582 343.57 287.35C347.671 292.734 353.878 304.023 357.759 313.153C361.49 321.933 368.012 343.552 367.192 344.421C366.945 344.682 365.289 341.833 363.51 338.09C359.323 329.278 353.944 320.27 350.638 316.533C343.237 308.166 331.538 311.514 312.556 327.429C297.443 340.101 266.796 371.774 264.825 376.76C262.684 382.17 262.749 419.401 264.927 436.253C267.056 452.717 267.08 462.395 265.002 465.542C262.469 469.377 256.33 472.038 245.686 473.914C240.231 474.877 231.22 476.522 225.663 477.571C220.106 478.621 215.23 479.266 214.827 479.005C213.987 478.462 214.569 472.372 216.708 459.337C219.3 443.546 243.548 369.316 253.988 345.215C259.57 332.33 273.306 314.803 289.318 300.134C301.556 288.922 306.868 284.942 312.969 282.41C318.989 279.912 330.189 279.862 336.438 282.305ZM346.724 319.229C350.535 323.316 360.457 341.941 364.694 352.96C371.672 371.106 372.734 376.966 373.387 400.936C374.543 443.359 370.167 463.547 350.808 505.126C346.058 515.326 336.623 523.56 324.695 527.912C316.809 530.79 316.068 530.624 320.741 527.028C335.74 515.486 345.203 495.382 348.315 468.445C350.311 451.168 349.109 385.206 346.431 365.039C344.774 352.562 341.469 339.676 337.277 329.347C333.47 319.965 333.46 319.903 335.632 319.052C336.833 318.582 338.498 317.925 339.332 317.593C342.354 316.386 344.519 316.865 346.724 319.229ZM332.21 329.945C341.26 351.167 344.32 377.546 344.364 434.719C344.393 471.604 342.625 483.675 334.722 500.592C331.026 508.501 322.631 520.487 321.724 519.15C321.597 518.962 320.939 517.362 320.262 515.594C318.46 510.895 316.317 508.519 309.377 503.525C305.962 501.067 302.204 497.713 301.028 496.073C299.852 494.433 296.844 490.319 294.344 486.93C291.845 483.54 289.947 480.768 290.127 480.768C290.308 480.768 292.707 481.921 295.461 483.329C298.214 484.738 302.427 486.514 304.823 487.275C308.511 488.447 309.326 488.423 310.138 487.125C311.899 484.304 310.182 479.281 306.123 475.378C301.339 470.779 293.897 468.146 281.435 466.645L272.141 465.525L272.031 456.806C271.969 452.009 271.174 444.054 270.263 439.127C269.009 432.349 268.605 423.947 268.605 404.624V379.081L273.505 372.863C285.712 357.378 323.159 323.248 327.943 323.248C328.72 323.248 330.639 326.262 332.21 329.945ZM75.9011 346.555C76.962 347.573 78.324 349.376 78.9292 350.561C79.8426 352.351 84.751 369.36 84.3398 369.309C84.2681 369.3 82.3908 368.597 80.1679 367.749C75.3292 365.899 64.0402 365.647 59.5995 367.289C55.0094 368.986 54.2111 373.161 57.8425 376.473C61.0828 379.43 62.2377 379.489 73.3711 377.277C82.8849 375.386 87.2245 376.29 88.7148 380.476C89.7262 383.313 93.4656 406.303 94.3376 415.045C95.1792 423.475 93.3919 432.796 90.2041 436.603L87.7681 439.513L85.7584 436.834C84.653 435.36 82.995 431.744 82.0725 428.797C77.7026 414.831 73.5307 410.345 61.7911 406.985C57.3737 405.721 53.223 404.687 52.5663 404.687C51.9095 404.687 51.372 404.041 51.372 403.252C51.372 398.916 39.314 398.069 31.628 401.865C22.1021 406.57 18.4253 413.535 14.3666 434.564C10.3059 455.602 11.7144 472.135 18.4961 483.032L20.9048 486.903L14.2979 487.558C9.92397 487.991 6.21788 489.128 3.33323 490.919C-5.57028 496.453 -11.965 492.958 -14.3839 481.236C-17.4221 466.518 -14.2818 435.78 -8.14374 420.142C-5.09137 412.367 0.711285 402.61 5.75715 396.77C7.22726 395.068 13.4926 389.678 19.6792 384.792C25.8658 379.905 32.9132 373.384 35.3402 370.3C44.2447 358.984 48.7086 354.273 54.1627 350.433C63.7916 343.655 71.4554 342.287 75.9011 346.555ZM79.0818 371.356C80.465 371.93 78.9494 372.528 73.8359 373.424C64.1453 375.12 60.4654 375.049 60.4654 373.164C60.4654 372.33 61.0343 371.404 61.7284 371.106C63.6966 370.264 76.9115 370.453 79.0818 371.356ZM45.6714 407.283C46.8515 409.194 48.8187 410.203 53.1129 411.102C71.0987 414.867 74.4108 417.22 77.6521 428.539C78.8736 432.807 80.4882 437.559 81.24 439.101C82.4939 441.674 82.3908 442.117 79.9911 444.459C76.0062 448.351 73.6479 454.766 73.6227 461.782C73.6004 467.985 76.4103 478.849 79.2071 483.376L80.6782 485.758L65.773 487.025C57.5747 487.721 48.5591 488.285 45.7391 488.28C40.6215 488.269 27.1581 484.094 24.3937 481.661C18.0434 476.072 16.1136 456.082 20.0551 436.726C24.2492 416.13 28.0998 409.352 37.3428 406.295C43.4303 404.282 43.8476 404.331 45.6714 407.283ZM128.666 446.42C141.922 451.001 153.523 457.522 161.951 465.131C171.92 474.132 175.171 476.492 190.119 485.569C196.688 489.557 203.462 494.071 205.173 495.597C209.297 499.277 214.044 506.323 214.044 508.763C214.044 510.447 213.658 510.567 211.265 509.627C206.907 507.914 176.473 491.442 173.341 489.101C170.354 486.87 167.566 487.18 167.566 489.747C167.566 492.39 174.853 501.219 186.247 512.379C212.41 538.006 209.256 541.588 179.691 519.826C173.856 515.531 166.826 509.567 164.068 506.573C158.879 500.938 155.442 499.571 155.442 503.139C155.442 506.332 174.201 524.641 182.26 529.315C192.382 535.185 193.686 536.319 191.81 537.633C189.6 539.182 186.249 538.243 174.53 532.792C162.675 527.279 155.399 521.908 150.92 515.367C146.218 508.499 142.368 509.717 144.378 517.437C145.595 522.111 150.387 526.898 157.968 531.012C165.087 534.875 164.112 535.314 155.784 531.996C147.742 528.791 143.713 526.026 130.182 514.429C111.518 498.434 104.2 489.314 106.667 485.124C108.356 482.258 106.104 480.345 102.671 481.729C101.297 482.283 96.5544 483.071 92.1299 483.48C84.4156 484.194 84.0226 484.12 82.5424 481.693C80.1316 477.74 76.6296 465.753 76.6538 461.54C76.6821 456.737 79.5425 450.04 83.2092 446.192L86.0342 443.228L103.814 443.602C118.957 443.921 122.643 444.339 128.666 446.42ZM180.531 468.927C188.755 471.525 190.93 473.416 184.149 472.072C179.18 471.088 170.597 467.399 170.597 466.247C170.597 465.856 171.222 465.791 171.984 466.102C172.746 466.411 176.593 467.683 180.531 468.927ZM298.916 476.227C301.542 477.35 305.947 481.84 304.422 481.84C302.789 481.84 287.802 474.003 287.802 473.149C287.802 472.337 293.529 473.923 298.916 476.227ZM274.474 477.106C280.815 480.096 288.666 488.26 294.37 497.791C297.652 503.278 299.703 505.347 305.296 508.818C312.638 513.374 316.311 518.151 315.861 522.559C315.648 524.648 313.972 526.21 308.261 529.647C300.34 534.414 298.953 534.734 278.44 536.547C267.328 537.528 259.715 537.425 237.676 535.997C222.771 535.03 210.436 534.093 210.266 533.912C210.095 533.73 208.417 531.287 206.537 528.482C204.656 525.678 199.178 518.857 194.365 513.327C189.55 507.796 185.804 503.271 186.038 503.271C186.274 503.271 191.42 505.771 197.477 508.827C205.999 513.127 209.629 514.398 213.539 514.453C218.558 514.523 218.593 514.499 218.918 510.892C219.098 508.895 218.978 506.131 218.65 504.75C217.896 501.558 212.869 495.465 206.767 490.346L202.017 486.36L207.778 485.618C222.684 483.698 254.482 477.497 259.006 475.628C264.683 473.283 266.8 473.486 274.474 477.106ZM103.727 494.161C104.36 495.633 106.784 499.031 109.112 501.711C114.149 507.505 134.679 525.197 141.733 529.82L146.716 533.088L142.743 534.166C140.558 534.758 135.36 535.823 131.192 536.533C110.039 540.131 100.913 547.232 96.8443 563.258C95.7289 567.653 95.5157 567.883 94.2578 566.058C93.503 564.964 92.3825 561.497 91.7672 558.355C90.7194 553 90.8184 552.334 93.3413 547.768C94.8226 545.088 98.3165 540.778 101.105 538.19C108.587 531.249 105.122 527.826 97.4243 534.556C95.2712 536.438 93.7091 537.524 93.9546 536.967C97.9547 527.889 99.048 524.549 99.1925 520.952C99.338 517.347 99.051 516.666 97.3849 516.666C94.6619 516.666 91.4115 522.15 88.3005 531.99C84.6682 543.484 83.7387 544.701 83.7195 537.989C83.7003 531.095 85.042 526.958 90.0323 518.529C92.2168 514.839 94.2466 509.897 94.5437 507.546C95.0216 503.765 94.8448 503.271 93.016 503.271C90.0232 503.271 80.1195 515.298 78.2058 521.257C77.3399 523.951 76.6174 527.155 76.6003 528.376C76.5821 529.597 75.4454 531.463 74.0743 532.522L71.5797 534.446V526.187C71.5797 516.298 73.8419 511.312 81.246 504.877C85.5533 501.134 100.476 491.484 101.957 491.484C102.298 491.484 103.095 492.688 103.727 494.161Z" fill="#54BEA5" fill-opacity="0.09"/>
</svg>
