<svg width="390" height="273" viewBox="0 0 390 273" fill="none" xmlns="http://www.w3.org/2000/svg">
<path fill-rule="evenodd" clip-rule="evenodd" d="M279.866 2.94269C283.142 4.78195 289.723 10.0398 294.49 14.6286C308.058 27.6877 316.107 41.0287 316.107 50.4575C316.107 54.4716 312.81 61.6357 309.942 63.8555C307.897 65.437 307.573 65.4074 305.835 63.4892C303.982 61.4415 303.868 61.4689 299.354 65.0641C290.251 72.3126 290.072 72.6164 290.449 80.1083L290.788 86.8424L287.585 87.5794C283.752 88.4623 280.943 90.4036 275.907 95.6494C273.496 98.161 271.173 99.5725 269.45 99.5725C266.64 99.5725 260.73 95.3489 256.598 90.3871C253.802 87.0311 252.6 88.0664 252.576 93.8529C252.558 98.275 251.61 97.8539 243.484 89.8037C238.967 85.3289 237.668 84.5403 236.773 85.7314C235.893 86.9028 237.021 88.084 242.233 91.451C250.697 96.9194 258.835 106.564 260.841 113.506C261.677 116.399 262.899 123.317 263.555 128.881C264.935 140.561 264.341 164.868 262.632 166.757C261.786 167.691 260.634 167.078 258.064 164.327C255.185 161.244 254.382 160.874 253.11 162.039C251.837 163.206 251.031 162.81 248.104 159.578C242.953 153.888 243.832 148.818 249.399 152.108C250.944 153.022 251.05 151.498 250.797 132.092C250.46 106.119 250.275 104.799 246.493 101.283C240.891 96.0771 232.576 98.4439 225.324 107.31C219.645 114.255 217.413 120.634 217.479 129.733C217.536 137.464 221.432 157.701 222.864 157.701C223.288 157.701 225.84 156.186 228.535 154.336C237.907 147.9 243.935 151.18 245.368 163.498L246.107 169.843L254.05 170.204C258.419 170.401 267.298 171.967 273.783 173.683L285.573 176.802L294.138 174.17C306.063 170.505 312.743 170.166 316.885 173.017C318.678 174.252 320.403 176.006 320.719 176.914C321.586 179.407 319.064 182.08 316.38 181.513C314.834 181.188 313.732 181.68 313.101 182.981C311.73 185.812 300.116 188.521 284.83 189.574C277.731 190.063 266.784 191.262 260.504 192.239C239.907 195.443 235.131 193.355 229.827 178.823C228.118 174.142 225.625 168.833 224.287 167.023L221.852 163.733L221.816 167.734C221.792 170.345 223.318 175.109 226.202 181.443C229.894 189.549 231.41 191.722 235.386 194.608C241.338 198.926 247.353 201.041 259.987 203.261C267.173 204.523 269.997 204.662 270.268 203.763C271.149 200.843 277.033 200.143 306.178 199.499L336.461 198.829L347.918 167.571C361.037 131.78 365.609 120.873 368.94 117.417C370.56 115.737 374.263 114.298 380.761 112.82C385.965 111.638 390.86 110.517 391.639 110.331C395.15 109.49 392.718 117.869 373.908 171.41C365.157 196.317 363.806 200.738 362.722 208.017C361.746 214.572 359.52 219.119 357.289 219.119C356.42 219.119 355.823 218.089 355.823 216.587C355.823 215.194 355.264 213.214 354.582 212.188C353.448 210.482 352.401 210.436 342.419 211.658C332.318 212.893 331.829 213.057 335.915 213.844C338.346 214.311 342.59 215.924 345.348 217.43C348.106 218.935 352.357 220.301 354.794 220.466C358.948 220.746 359.269 220.996 359.9 224.426C360.838 229.532 359.32 241.663 357.32 245.033C356.405 246.576 353.794 248.714 351.52 249.783C349.245 250.852 346.49 252.139 345.397 252.645C341.684 254.363 361.313 255.064 416.638 255.189C452.144 255.269 471 255.693 471 256.409C471 258.234 360.718 258.201 345.894 256.371C333.471 254.838 333.384 254.852 336.557 257.866C338.733 259.935 339.114 260.992 338.56 263.429C338.035 265.74 336.561 267.105 332.205 269.311C327.465 271.711 324.724 272.261 315.551 272.652C305.991 273.06 304.341 272.868 302.802 271.168C301.651 269.897 301.181 268.113 301.454 266.055C301.929 262.483 300.515 260.694 299.626 263.743C297.88 269.737 296.97 270.667 292.854 270.666C290.392 270.666 286.269 269.342 282.35 267.293C276.167 264.062 275.527 263.951 266.96 264.631C255.885 265.511 238.697 263.747 229.795 260.819C222.744 258.499 215.881 253.771 213.474 249.576C206.997 238.282 214.978 222.439 231.71 213.375C239.102 209.37 249.329 206.087 255.043 205.884C256.861 205.82 255.314 205.141 251.071 204.141C242.134 202.035 232.573 196.989 229.248 192.625C223.262 184.765 218.054 168.79 219.813 163.68C220.499 161.687 220.049 158.206 218.084 150.295C214.494 135.838 214.344 122.105 217.697 114.927C220.64 108.628 227.141 101.112 232.089 98.2893C234.814 96.7341 237.364 96.1989 240.797 96.4599C245.052 96.7845 245.434 96.6474 243.893 95.3401C242.926 94.5197 240.406 92.9678 238.291 91.8919C234.548 89.9857 234.356 89.9923 231.033 92.1573C228.016 94.1249 227.312 94.2104 224.949 92.8998C223.479 92.0838 221.963 91.2448 221.58 91.0342C220.586 90.4869 215.351 102.31 213.427 109.443C211.531 116.482 210.225 136.971 209.374 173.055C208.742 199.901 209.405 209.058 211.923 208.237C227.626 203.113 237.667 201.847 237.667 204.993C237.667 205.534 233.757 207.971 228.979 210.408C217.654 216.185 214.491 219.641 211.898 229.068C209.242 238.726 202.724 246.853 193.259 252.308C178.022 261.089 164.551 260.14 159.78 249.948C157.014 244.041 152.562 196.093 154.309 191.02C155.481 187.613 160.827 187.445 164.571 190.698L167.204 192.986L165.251 189.327C164.178 187.314 163.008 183.655 162.653 181.195C161.344 172.139 167.552 170.647 180.228 176.968C190.96 182.321 193.504 181.413 184.377 175.488C175.805 169.924 171.461 166.02 170.632 163.136C169.74 160.032 168.591 160.492 167.077 164.555C165.534 168.701 149.079 187.912 145.147 190.158C143.677 190.997 141.765 191.384 140.899 191.017C138.781 190.119 126.75 172.444 125.352 168.176C124.238 164.775 124.233 164.773 117.655 165.155C112.583 165.45 108.449 164.749 99.6531 162.105C77.4408 155.428 80.2964 155.618 75.7519 160.52C73.5586 162.885 68.6099 169.395 64.7545 174.988C58.8834 183.504 57.8498 185.623 58.3969 188.029C59.22 191.65 74.1632 208.58 75.9544 207.92C76.6852 207.651 78.8537 203.362 80.773 198.388C88.6209 178.053 94.7243 178.221 116.488 199.371C130.895 213.371 135.346 219.231 143.292 234.654C147.091 242.027 151.812 249.43 154.894 252.844C159.609 258.068 159.919 258.703 158.235 259.699C151.875 263.459 142.847 257.557 131.392 242.151C128.477 238.23 124.5 233.143 122.553 230.848L119.015 226.672L118.463 229.751C118.044 232.089 118.58 233.694 120.697 236.431C125.275 242.352 123.805 250.492 117.403 254.669C111.321 258.638 85.0226 259.543 72.9946 256.198C67.2556 254.601 60.9298 247.882 60.9298 243.382C60.9298 239.622 62.0954 238.4 67.4373 236.559C71.0068 235.328 71.4546 234.791 71.4546 231.748C71.4546 225.35 74.9308 219.983 81.3727 216.435C86.4296 213.651 88.3409 213.209 95.1851 213.242C100.217 213.266 104.493 213.927 106.852 215.047C108.899 216.018 110.575 216.537 110.575 216.201C110.575 214.297 97.147 195.08 95.0957 194.048C92.9063 192.946 92.5449 193.113 91.6821 195.62C91.1508 197.162 90.707 199.255 90.6951 200.271C90.6604 203.204 87.2309 210.692 84.8499 213.032C82.9644 214.887 82.2594 214.999 79.5627 213.874C76.5422 212.615 76.2751 212.766 70.3753 219.023C67.0332 222.567 60.4135 228.265 55.6644 231.685C50.4159 235.464 47.0341 238.628 47.041 239.752C47.047 240.77 47.6854 244.229 48.4589 247.439C49.7844 252.94 49.7506 253.403 47.879 255.47C45.9637 257.586 44.9966 257.64 21.3893 256.998C-8.73846 256.178 -13.5382 255.701 -13.5382 253.528C-13.5382 252.113 -18.4461 251.944 -51.2696 252.236C-80.9535 252.499 -89 252.277 -89 251.199C-88.999 250.127 -80.7778 249.828 -51.2021 249.828H-13.4061L-10.2447 247.225C-8.50613 245.793 -4.15027 243.562 -0.563873 242.267C6.16605 239.837 9.24805 237.037 16.1606 227.071C19.6249 222.078 21.5442 221.297 23.0504 224.269C23.9033 225.954 24.3183 225.854 27.4728 223.196C29.3881 221.582 36.0237 214.335 42.2185 207.09C53.7123 193.648 56.9582 191.391 56.9582 196.837C56.9582 202.013 53.2209 208.565 43.5787 220.295C38.4087 226.586 34.165 232.248 34.1501 232.88C34.1342 233.512 35.8887 235.935 38.0493 238.265C42.3545 242.909 43.7873 247.369 42.0954 250.86C40.7539 253.63 36.6949 253.805 29.6532 251.398C24.653 249.689 8.43185 249.834 -5.59491 251.714L-11.0559 252.446L-5.59491 253.222C-2.59137 253.649 10.5279 254.047 23.5578 254.107L47.2505 254.215L46.4433 250.102C45.9995 247.841 45.6142 243.769 45.5884 241.054L45.5397 236.119L53.9794 229.947C58.6213 226.554 65.0762 221.088 68.323 217.802L74.2278 211.828L66.3183 203.135C61.8701 198.247 57.5847 192.384 56.5243 189.741C54.6695 185.117 54.6695 184.997 56.5431 182.412C57.5906 180.967 61.7132 175.07 65.7037 169.309C69.6952 163.546 73.913 158.095 75.0767 157.195C76.2404 156.295 76.9205 155.257 76.5879 154.89C74.8364 152.955 55.4171 147.694 47.8194 147.095C33.6904 145.983 30.8835 150.021 37.6561 161.716L41.1908 167.819L50.8121 167.421L60.4333 167.023L60.7491 170.659C60.9228 172.659 60.5336 175.003 59.8833 175.868C57.2868 179.324 44.8278 176.428 41.1441 171.512C40.3647 170.471 38.5258 168.935 37.0583 168.096C34.1601 166.441 31.1585 160.552 31.1158 156.438C31.088 153.818 16.5161 133.235 2.98181 116.697C-3.61407 108.638 -4.88797 105.056 -1.15762 105.056C-0.315643 105.056 0.362518 104.109 0.362518 102.93C0.362518 98.5503 16.1815 98.4626 24.3045 102.797C26.6904 104.071 28.7656 104.731 28.9155 104.262C31.1505 97.2759 35.9284 94.0931 44.1834 94.0909C49.4617 94.0887 49.981 94.3388 53.4105 98.5317C55.4698 101.049 60.7263 111.287 65.5359 122.148C72.4614 137.785 73.8048 141.617 72.8178 142.93C70.7278 145.712 76.8451 144.776 80.7879 141.711C91.6533 133.264 93.092 132.475 97.6137 132.486C105.658 132.505 119.523 141.529 123.036 149.032C124.412 151.972 124.389 152.488 122.772 154.94C120.669 158.131 115.714 160.991 112.291 160.991C110.942 160.991 105.201 159.514 99.533 157.707C87.9964 154.032 82.314 153.405 90.717 156.734C98.0545 159.643 111.889 163.188 115.827 163.169C121.556 163.143 123.419 162.002 125.425 157.297C126.487 154.804 128.68 150.791 130.298 148.378C131.917 145.965 133.552 142.814 133.932 141.376C134.604 138.832 134.562 138.81 132.307 140.554C128.993 143.118 128.447 142.825 128.447 138.485C128.447 133.375 132.229 123.311 137.169 115.275C141.092 108.895 152.481 96.2822 154.32 96.2822C156.547 96.2822 154.947 93.9593 151.309 91.9094L147.361 89.6841L144.206 92.7989C141.529 95.441 140.979 96.8602 140.582 102.15C140.324 105.581 139.749 108.636 139.303 108.941C138.856 109.245 137.741 107.748 136.824 105.612C135.907 103.477 134.845 101.518 134.464 101.258C134.084 100.998 130.984 103.473 127.577 106.755C124.169 110.038 120.384 113 119.166 113.338C115.807 114.269 112.056 112.21 108.927 107.718C102.411 98.3639 100.414 96.2822 97.9543 96.2822C96.0926 96.2822 95.6209 95.8457 96.0737 94.5417C98.2194 88.3647 97.7835 84.7827 94.2239 79.3307C92.2719 76.3421 90.4151 72.1009 90.0974 69.9085C89.601 66.4767 89.2048 65.9865 87.2567 66.3978C84.3991 67.0021 83.4131 65.2528 83.6028 59.9137C83.6852 57.5974 83.288 55.7022 82.7211 55.7022C80.2954 55.7022 76.8163 50.2535 76.8163 46.4554C76.8163 41.9467 79.09 39.8409 85.256 38.6389C90.7477 37.5695 92.7028 36.2611 92.7028 33.6563C92.7028 29.5522 94.7005 27.2381 102.569 22.2237C106.872 19.484 111.573 15.5302 113.017 13.4387C116.616 8.22577 120.366 6.34702 127.157 6.3547C135.227 6.36237 139.852 8.05139 143.824 12.4373C145.706 14.5168 148.177 16.2189 149.314 16.2189C159.959 16.2189 169.121 36.0713 169.149 59.1954C169.158 66.2716 168.154 69.8482 164.525 75.6752C162.143 79.5007 162.06 80.071 163.162 85.1446C164.275 90.2709 164.53 90.578 168.206 91.2273C179.368 93.1981 199.39 121.286 202.995 140.03C204.281 146.713 203.803 157.159 202.128 159.009C201.304 159.919 200.146 159.584 197.685 157.721C192.886 154.089 187.405 145.516 182.247 133.572C179.773 127.841 175.767 119.451 173.348 114.927C170.927 110.403 167.642 103.853 166.048 100.371C163.465 94.7314 162.935 94.1677 161.188 95.2008C159.73 96.0629 159.227 97.5007 159.227 100.813C159.227 104.011 157.983 107.789 154.815 114.21C151.176 121.585 150.154 124.993 148.989 133.649C146.78 150.047 144.514 153.71 132.419 160.418C129.415 162.085 126.834 163.567 126.682 163.713C124.98 165.343 139.847 188.393 142.607 188.403C145.004 188.412 159.392 173.028 163.336 166.239C165.104 163.195 167.068 158.451 167.702 155.695C169.27 148.875 171.142 148.423 171.142 154.864C171.142 159.092 171.709 160.581 174.721 164.263C176.689 166.669 180.724 170.171 183.689 172.044C190.475 176.332 195.145 180.634 194.42 181.929C193.201 184.108 185.858 182.793 178.04 178.996C168.279 174.255 165.185 174.484 165.185 179.947C165.185 184.224 167.885 190.143 173.547 198.281C178.999 206.116 179.316 206.768 178.075 207.615C177.501 208.007 173.443 204.31 169.056 199.398C163.155 192.794 160.516 190.558 158.913 190.811C156.955 191.119 156.716 191.894 156.445 198.829C156.038 209.246 159.911 243.894 162.022 248.723C164.42 254.211 167.307 255.492 176.183 255.009C192.617 254.115 205.759 243.01 210.358 226.13C212.391 218.668 215.158 215.393 223.766 210.263C230.747 206.103 230.965 205.866 227.242 206.481C225.057 206.842 220.468 208.201 217.042 209.5C207.77 213.02 207.471 212.48 207.051 191.39C206.658 171.714 208.48 123.251 209.953 114.156C211.116 106.985 219.123 87.7242 221.331 86.7887C222.125 86.452 223.639 84.0161 224.697 81.3762C225.754 78.7374 227.708 74.9645 229.04 72.9948C230.371 71.0239 231.99 68.1778 232.637 66.6698C234.783 61.6708 222.359 76.9738 219.837 82.4368C218.445 85.4506 214.74 90.2994 211.214 93.718C207.237 97.5753 204.802 100.863 204.391 102.934C203.365 108.093 201.922 106.651 201.922 100.465C201.922 97.3362 200.981 91.0704 199.829 86.5397C196.948 75.1938 197.53 68.577 202.024 61.5885C207.106 53.682 212.015 51.3152 223.326 51.3152H232.392L234.05 41.9938C238.148 18.9586 245.891 6.51922 256.509 5.916C259.054 5.77123 261.314 4.79292 262.896 3.15107C266.876 -0.978219 272.748 -1.05061 279.866 2.94269ZM263.663 5.79974C261.566 7.74978 259.537 8.54164 256.641 8.54164C251.24 8.54164 245.638 14.055 241.74 23.2086C238.834 30.0348 235.681 42.3053 235.681 46.7965C235.681 52.4525 234.183 53.5087 226.157 53.5087C215.11 53.5087 210.622 55.099 205.986 60.6541C199.812 68.0517 199.126 72.2336 201.932 85.3596C203.216 91.3676 204.44 96.2822 204.654 96.2822C206.524 96.2822 215.526 85.7972 218.224 80.479C221.651 73.7197 226.587 67.3213 232.428 62.0634C235.221 59.5507 235.964 57.6665 238.26 47.2978C241.362 33.2911 244.062 26.909 249.253 21.321C259.871 9.89064 278.404 7.38237 290.404 15.7495C295.864 19.5564 294.597 17.6173 287.892 11.9032C276.771 2.42612 269.315 0.547371 263.663 5.79974ZM120.071 10.2339C118.468 11.1574 115.683 13.8148 113.881 16.14C112.079 18.4651 108.699 21.4548 106.37 22.7841C99.4248 26.75 95.889 30.2278 95.1801 33.7912C94.3768 37.8305 91.9184 39.6676 84.9313 41.4509C82.0231 42.1923 79.4058 43.4832 79.1149 44.3179C78.0326 47.4359 79.8516 51.4468 83.014 52.9164C85.9768 54.2929 86.1476 54.68 85.8835 59.4279C85.4248 67.6623 88.5733 65.6432 90.6187 56.3899C92.2371 49.0657 95.6666 41.9149 101.082 34.5721C107.227 26.24 117.307 20.5654 127.381 19.7691C143.752 18.4761 152.429 29.6959 158.136 59.5409C161.455 76.8959 161.118 75.7992 162.689 74.3591C165.6 71.6918 167.445 62.49 166.73 54.2073C164.894 32.9236 158.873 20.8122 149.134 18.8106C147.313 18.4366 144.192 16.4142 142.198 14.3172C136.892 8.73358 126.126 6.74734 120.071 10.2339ZM259.869 16.6905C253.091 20.1124 248.235 24.8976 245.424 30.9221C243.534 34.9735 238.364 55.7406 239.054 56.5039C239.232 56.7003 240.511 56.3844 241.895 55.8031C244.852 54.5616 245.61 55.1396 245.61 58.636C245.61 60.223 243.523 63.7129 240.149 67.7665C234.412 74.6597 233.742 76.5022 236.166 78.7231C237.374 79.8309 237.758 79.7058 238.275 78.0355C238.622 76.9113 239.944 73.4006 241.211 70.2342C243.321 64.9621 243.791 64.4763 246.797 64.4784L250.078 64.4806V57.6753C250.078 51.1616 250.223 50.7613 253.452 48.3506C255.308 46.9654 258.123 45.8314 259.709 45.8314C263.098 45.8314 264.813 49.3794 265.953 58.7556L266.657 64.5497L274.082 60.1265C282.242 55.2646 287.341 54.5561 297.261 56.9064C300.056 57.5678 302.618 57.8058 302.955 57.434C305.505 54.6164 304.111 38.8242 300.66 31.454C293.04 15.1781 275.467 8.81801 259.869 16.6905ZM299.747 25.4767C305.081 33.2022 308.218 47.4995 306.279 55.2547C305.488 58.42 305.529 59.6527 306.45 60.2965C308.179 61.5095 309.247 60.9217 311.578 57.4713C315.996 50.9335 312.73 39.4625 303.153 27.8884C297.386 20.9185 295.846 19.8284 299.747 25.4767ZM116.802 25.1334C107.109 29.0587 95.4819 43.9855 93.2558 55.36L92.5717 58.8565L95.5951 57.5963C98.1786 56.5193 99.0028 56.6531 101.269 58.522C102.727 59.724 104.726 62.3683 105.711 64.3973C109.067 71.3091 112.513 74.3471 117 74.3471C120.508 74.3471 121.322 73.8722 122.91 70.9054C125.962 65.1968 128.17 63.3795 132.054 63.3795C134.902 63.3795 136.362 64.2021 139.004 67.296C140.843 69.4501 142.418 72.2885 142.503 73.6024C142.802 78.2329 142.183 81.4957 140.649 83.3723C139.368 84.9396 139.338 85.3519 140.475 85.749C145.93 87.6496 147.165 87.3941 153.138 83.1299C156.487 80.7379 159.227 78.5773 159.227 78.3283C159.227 76.6678 154.895 54.0571 153.642 49.1787C151.538 40.9892 147.103 31.6492 143.547 27.9224C137.243 21.3156 128.485 20.402 116.802 25.1334ZM255.56 49.658C251.972 51.7078 251.253 54.1865 252.093 61.6126C252.781 67.6931 251.573 70.4042 249.297 67.8905C246.655 64.972 244.797 66.6588 242.008 74.5116L239.223 82.3523L244.65 87.6486L250.078 92.9437L250.381 88.0324C250.753 82.0057 252.039 81.8127 256.586 87.1024C260.269 91.3874 268.096 97.379 270.011 97.379C270.656 97.379 273.514 94.9255 276.362 91.9259C279.655 88.4568 282.768 86.2184 284.921 85.772C288.298 85.0723 288.305 85.058 288.305 78.8558C288.305 71.5317 289.558 69.1726 295.737 64.8601C298.201 63.1415 300.217 61.3735 300.218 60.9326C300.221 59.5847 295.179 58.636 287.841 58.6042C281.688 58.5768 280.257 58.9881 275.791 62.0689C270.656 65.6103 264.492 67.7391 264.456 65.9843C264.364 61.6017 262.387 50.8556 261.441 49.5955C259.956 47.6191 259.114 47.6279 255.56 49.658ZM239.29 60.1693C237.852 61.4185 236.666 63.0231 236.656 63.7337C236.646 64.4434 234.189 69.1638 231.195 74.2231C228.202 79.2825 225.752 83.7923 225.752 84.2464C225.752 84.6994 227.38 85.4079 229.368 85.8202C231.972 86.3598 233.401 86.1098 234.469 84.9308C235.942 83.3021 235.752 81.9838 233.555 78.6299C231.757 75.8836 233.243 72.0943 238.639 65.6608C241.381 62.3924 243.625 59.3072 243.625 58.806C243.625 57.2815 242.041 57.7795 239.29 60.1693ZM92.4049 67.6996C92.5469 71.0689 93.6302 74.029 96.2683 78.2592C99.5667 83.55 99.8716 84.6303 99.3215 89.0667C98.7555 93.6292 98.9075 94.1008 101.371 95.4125C102.834 96.1923 105.984 99.6712 108.37 103.141C115.658 113.745 117.208 113.801 127.184 103.814L133.698 97.2934L136.037 99.7205L138.376 102.149V99.692C138.376 96.7407 140.143 92.7759 141.997 91.5662C144.296 90.0658 143.489 88.8802 139.626 88.0796C134.221 86.9587 134.041 86.5693 137.358 83.1475C142.014 78.3426 140.74 69.8076 134.929 66.8837C130.966 64.8886 130.476 65.1233 125.014 71.6052C121.222 76.1052 119.235 77.6373 117.19 77.6373C112.548 77.6373 108.91 74.6695 105.133 67.8005C100.586 59.5332 99.0921 58.5231 95.1851 61.0741C92.5479 62.796 92.2292 63.555 92.4049 67.6996ZM154.6 85.3146C152.016 87.1243 150.403 88.6049 151.013 88.6049C151.625 88.6049 153.388 89.7751 154.931 91.2042C157.068 93.1828 158.271 93.5842 159.972 92.8845C161.201 92.3799 162.206 91.6374 162.206 91.2349C162.206 90.0559 159.934 82.0244 159.601 82.0244C159.434 82.0244 157.183 83.505 154.6 85.3146ZM224.015 88.8791C224.515 90.5407 227.25 91.2404 229.505 90.2841C230.929 89.6808 230.955 89.4428 229.696 88.5632C227.512 87.0366 223.526 87.2592 224.015 88.8791ZM166.178 94.8586C166.178 95.2831 169.476 102.069 173.507 109.939C177.54 117.81 183.013 129.16 185.671 135.16C191.207 147.659 199.177 158.315 200.889 155.507C202.684 152.562 201.954 144.178 199.12 135.185C194.568 120.739 183.306 103.578 174.189 97.1903C170.012 94.2653 166.178 93.1488 166.178 94.8586ZM37.1894 98.0162C30.2728 101.073 30.3224 103.576 37.6213 119.991C44.1805 134.74 45.9637 140.153 44.2628 140.153C42.9264 140.153 32.5555 119.971 30.5479 113.46C29.2869 109.373 28.1559 107.827 25.214 106.169C19.4769 102.936 12.7987 101.43 7.84009 102.252L3.37698 102.991L12.3638 114.169C25.0581 129.958 34.6654 146.651 32.0759 148.419C31.5626 148.77 31.1426 149.587 31.1426 150.236C31.1426 150.885 32.06 150.128 33.182 148.553C36.4814 143.919 41.8163 142.957 52.8168 145.009C57.9908 145.975 62.4092 146.562 62.6346 146.313C62.86 146.064 60.6696 145.009 57.7674 143.968C51.0146 141.548 49.9572 140.451 52.4315 138.434C55.2911 136.102 59.8872 136.544 64.7545 139.617C69.4956 142.611 70.8589 142.956 70.8589 141.162C70.8589 138.162 54.8512 103.974 51.7414 100.331C47.7777 95.69 43.8617 95.067 37.1894 98.0162ZM146.319 107.141C139.996 114.231 134.047 124.942 131.448 133.92C129.865 139.384 130.877 140.438 132.806 135.336C135.195 129.02 136.684 130.317 136.223 138.31C135.877 144.288 135.333 145.912 132.266 150.1C127.817 156.178 125.993 159.894 127.459 159.894C129.22 159.894 135.909 155.813 139.272 152.687C143.764 148.513 145.068 145.084 146.66 133.258C147.435 127.51 148.729 121.405 149.537 119.689C150.345 117.975 152.408 113.684 154.124 110.154C155.839 106.625 157.242 102.289 157.242 100.519C157.242 97.5281 157.085 97.3932 155.008 98.603C153.778 99.318 149.869 103.16 146.319 107.141ZM251.538 104.782C252.012 106.44 252.672 118.656 253.006 131.927L253.614 156.055L257.453 160.313L261.292 164.571L262.037 153.733C262.909 141.062 260.682 118.462 257.98 112.567C256.235 108.76 251.763 101.766 251.072 101.766C250.856 101.766 251.065 103.124 251.538 104.782ZM7.33966 118.431C18.2219 131.988 19.5147 133.309 13.6784 124.905C7.20761 115.59 0.225464 107.036 -0.371246 107.695C-0.635376 107.987 2.83487 112.818 7.33966 118.431ZM371.985 118.184C369.099 119.564 363.643 131.659 353.721 158.673C349.376 170.504 344.03 184.92 341.841 190.709L337.861 201.232L307.87 201.953C278.849 202.648 272.419 203.163 272.419 204.792C272.419 205.899 287.687 207.988 305.89 209.372C320.706 210.499 339.594 210.039 348.361 208.339L352.318 207.571L349.236 205.146C347.54 203.814 344.943 202.214 343.463 201.593C341.065 200.585 340.848 200.078 341.459 196.904C342.348 192.285 349.024 174.314 359.284 148.927C363.794 137.767 367.775 127.591 368.132 126.314C369.101 122.848 371.587 120.915 377.791 118.805C384.61 116.487 386.832 116.852 387.607 120.416C388.186 123.084 388.231 123.058 389.388 119.425C391.466 112.897 391.342 112.82 382.383 115.071C377.878 116.204 373.199 117.604 371.985 118.184ZM17.3025 125.895C20.6823 130.72 23.67 134.669 23.9411 134.669C24.507 134.669 24.3958 134.499 17.3422 124.524C14.4628 120.451 11.8931 117.121 11.632 117.121C11.3709 117.121 13.9226 121.069 17.3025 125.895ZM378.191 121.39C374.929 122.516 371.924 124.111 371.513 124.939C371.101 125.766 366.241 137.747 360.713 151.564C350.118 178.049 343.908 195.017 343.908 197.488C343.908 198.304 345.361 199.796 347.135 200.804C348.91 201.812 351.301 203.395 352.448 204.323C354.462 205.949 354.645 205.761 357.674 198.967C359.399 195.093 364.411 181.386 368.809 168.506C373.208 155.627 378.559 140.86 380.7 135.693C384.747 125.926 386.484 119.302 384.99 119.331C384.512 119.339 381.453 120.266 378.191 121.39ZM93.2439 135.747C91.832 136.34 88.33 138.782 85.4625 141.174C79.0493 146.522 76.1322 147.775 72.657 146.674C70.837 146.097 69.6197 146.288 68.8859 147.264C67.2536 149.437 78.9193 153.438 83.0607 152.126C86.4395 151.055 87.7531 151.294 99.4198 155.102C110.322 158.661 115.879 158.761 119.063 155.457C120.402 154.067 121.497 152.335 121.497 151.606C121.497 149.123 113.412 141.342 107.359 138.001C101.033 134.51 97.5244 133.949 93.2439 135.747ZM374.705 158.669C370.837 169.758 367.858 179.037 368.086 179.289C368.315 179.541 368.969 178.366 369.541 176.676C370.988 172.405 378.984 149.644 381.603 142.346C382.792 139.028 383.311 136.807 382.752 137.411C382.195 138.014 378.574 147.58 374.705 158.669ZM55.9652 140.153C55.9652 140.756 56.7477 141.251 57.7029 141.254C58.658 141.256 60.9387 142.267 62.7706 143.5C64.6025 144.734 66.5943 145.562 67.197 145.339C68.6328 144.81 59.9597 139.08 57.7029 139.066C56.7477 139.06 55.9652 139.549 55.9652 140.153ZM229.54 156.496C223.695 160.592 223.388 161.26 225.797 164.643C226.899 166.191 228.927 170.32 230.303 173.821C234.789 185.226 236.037 187.46 238.808 189.043C242.654 191.239 253.88 191.011 269.599 188.417C276.884 187.214 285.884 186.227 289.599 186.224C293.313 186.22 299.478 185.431 303.298 184.471C309.042 183.028 310.044 182.462 309.091 181.194C307.782 179.452 308.645 178.891 313.624 178.249L316.603 177.866L313.873 176.585C312.371 175.879 311.142 174.797 311.142 174.179C311.142 172.374 307.163 172.864 298.184 175.774C287.54 179.223 283.985 179.206 270.761 175.637C260.928 172.984 249.257 171.798 245.651 173.086C244.534 173.485 244.039 172.051 243.484 166.815C242.033 153.113 238.307 150.356 229.54 156.496ZM248.589 156.604C249.639 158.77 251.568 159.622 251.568 157.92C251.568 156.766 249.411 154.41 248.356 154.41C247.899 154.41 248.004 155.397 248.589 156.604ZM48.022 170.849L44.5468 171.665L48.2384 173.457C53.4145 175.969 57.6572 175.807 58.4445 173.065C59.7204 168.627 58.5418 168.375 48.022 170.849ZM363.781 190.055C362.056 194.881 359.568 200.877 358.251 203.379C356.182 207.311 356.007 208.405 356.956 211.414C358.398 215.985 359.463 214.568 360.641 206.506C361.171 202.887 362.985 195.759 364.671 190.668C366.358 185.576 367.738 181.175 367.738 180.888C367.738 179.506 366.655 182.016 363.781 190.055ZM87.9467 188.714C86.7781 190.087 84.4626 194.853 82.8005 199.305C81.1384 203.758 79.2846 208.057 78.6809 208.861C77.833 209.99 78.119 210.557 79.93 211.346C83.2682 212.802 86.1585 208.604 88.5137 198.884C90.1441 192.153 90.705 191.109 92.8398 190.825C96.4927 190.339 99.3979 193.474 108.039 207.223C112.342 214.067 119.029 223.397 122.9 227.958C126.77 232.517 133.164 240.24 137.108 245.119C143.972 253.611 150.476 258.602 154.676 258.602C155.996 258.602 155.218 257.112 151.632 252.762C148.984 249.55 144.154 241.529 140.9 234.94C135.663 224.332 133.612 221.462 123.028 209.921C102.822 187.887 93.4614 182.229 87.9467 188.714ZM47.0986 205.319C40.7053 213.751 29.41 225.423 25.3172 227.825C23.3612 228.972 22.7118 228.922 21.4449 227.521C20.0757 226.009 19.4164 226.561 14.9364 232.972C9.81003 240.307 6.65952 242.665 -2.36798 245.927C-5.2345 246.964 -7.58075 248.039 -7.58075 248.318C-7.58075 248.598 0.350586 248.493 10.0433 248.087C25.1375 247.453 28.2195 247.604 31.512 249.136C36.119 251.279 38.4871 251.398 39.8722 249.554C41.4013 247.52 38.9171 241.853 35.2234 238.946C30.0951 234.913 30.8993 231.817 39.8424 221.168C44.0811 216.121 48.5612 210.415 49.7983 208.489C52.636 204.072 55.2762 197.184 54.1314 197.184C53.6548 197.184 50.4894 200.845 47.0986 205.319ZM261.731 207.536C263.224 208.397 265.447 209.876 266.668 210.82C269.706 213.171 270.628 212.978 270.254 210.071C269.944 207.666 267.335 206.548 261 206.109C259.427 206 259.579 206.297 261.731 207.536ZM272.809 209.887C273.141 210.841 273.412 212.075 273.412 212.628C273.412 213.906 305.871 213.974 306.585 212.698C306.874 212.182 302.097 211.398 295.97 210.957C289.843 210.515 282.819 209.765 280.362 209.29C273.072 207.881 272.138 207.954 272.809 209.887ZM238.872 212.787C228.045 217.101 219.643 223.94 216.348 231.122C208.232 248.813 219.411 258.883 250.575 261.952C256.855 262.569 264.785 262.752 268.199 262.357C274.136 261.668 274.405 261.508 274.405 258.644C274.405 256.999 275.186 254.885 276.142 253.948C278.295 251.836 303.741 242.737 312.29 241.021C316.488 240.178 323.592 240.016 333.59 240.531C346.711 241.209 349.044 241.067 352.217 239.404C354.391 238.264 356.079 236.47 356.43 234.925C357.2 231.538 353.679 225.251 350.094 223.61C348.391 222.832 334.784 222.011 313.991 221.435C276.823 220.404 280.647 221.16 262.986 211.357C255.845 207.394 251.813 207.633 238.872 212.787ZM294.263 215.854C282.324 215.885 278.366 216.208 279.673 217.047C281.19 218.022 342.561 220.324 343.798 219.452C344.009 219.303 342.892 218.62 341.316 217.936C337.234 216.163 324.677 214.829 317.1 215.36C313.55 215.609 303.273 215.832 294.263 215.854ZM85.4774 216.991C80.8187 218.42 75.2534 223.688 74.3906 227.486C74.0332 229.059 73.912 230.535 74.1216 230.765C74.3311 230.997 77.9988 230.198 82.2723 228.991C92.5558 226.086 103.896 226.086 110.812 228.989C113.686 230.195 116.148 231.182 116.284 231.182C116.42 231.183 116.533 230.059 116.533 228.686C116.533 223.88 111.931 219.309 104.624 216.853C100.901 215.603 89.7429 215.683 85.4774 216.991ZM354.862 223.232C354.879 223.685 355.549 225.013 356.351 226.183C357.787 228.281 357.809 228.28 357.809 226.092C357.809 224.87 357.511 223.542 357.146 223.141C356.255 222.155 354.822 222.212 354.862 223.232ZM86.2489 230.59L81.2844 231.98L87.8634 232.036C95.7987 232.102 98.6384 233.742 98.7158 238.302L98.7724 241.603L99.9569 237.764C101.088 234.101 101.382 233.91 106.355 233.594C109.222 233.411 111.568 232.844 111.568 232.332C111.568 229.369 94.7432 228.212 86.2489 230.59ZM102.399 237.077C101.997 237.756 101.663 240.656 101.654 243.522C101.644 247.136 101.232 248.731 100.309 248.731C98.6344 248.731 96.6744 244.091 96.6744 240.125C96.6744 238.465 96.1382 236.514 95.4829 235.79C91.8032 231.725 62.9156 238.116 62.9156 242.995C62.9156 243.879 64.5906 246.452 66.639 248.713C71.4586 254.032 76.862 255.326 93.9926 255.264C110.914 255.202 115.212 254.273 118.739 249.914C122.132 245.719 122.237 242.194 119.091 238.064C116.792 235.045 116.39 234.928 109.907 235.375C106.178 235.633 102.8 236.398 102.399 237.077ZM331.243 243.069L312.631 242.856L300.717 246.824C282.77 252.803 278.104 254.749 276.971 256.735C274.672 260.762 277.645 260.925 291.221 257.521C306.054 253.802 318.089 252.044 328.819 252.031C339.277 252.017 349.257 249.255 353.416 245.221C357.776 240.993 357.745 239.64 353.335 241.676C350.632 242.923 345.687 243.236 331.243 243.069ZM297.241 258.533C292.053 259.83 286.025 261.414 283.844 262.054L279.88 263.217L283.496 265.266C285.484 266.393 288.957 267.641 291.212 268.039C295.281 268.758 295.324 268.73 296.902 264.294C298.652 259.37 300.702 257.864 302.904 259.884C303.889 260.786 304.153 262.326 303.741 264.753C303.017 269.011 303.388 269.318 310.347 270.221C320.997 271.603 336.461 266.665 336.461 261.882C336.461 261.018 335.419 259.737 334.144 259.036C332.869 258.334 331.305 257.159 330.669 256.425C328.926 254.416 308.573 255.699 297.241 258.533Z" fill="#000C37"/>
</svg>
