<svg width="359" height="463" viewBox="0 0 359 463" fill="none" xmlns="http://www.w3.org/2000/svg">
<path fill-rule="evenodd" clip-rule="evenodd" d="M111.491 5.08902C86.1344 15.5124 74.7327 30.1405 73.1953 54.2233L72.1186 71.0974H64.1068C40.0785 71.0974 20.9824 102.209 20.9824 141.359C20.9824 150.218 19.5155 153.864 13.7135 159.441C-6.34643 178.717 -3.80513 250.369 17.4561 264.97C20.0421 266.745 22.6022 268.545 23.1476 268.973C23.6907 269.401 21.6618 273.172 18.641 277.352C0.372361 302.626 24.9366 377.246 54.0122 384.806C58.5611 385.989 62.3624 389.708 64.4923 395.058C78.0216 429.066 130.437 443.737 148.919 418.689C159.877 403.841 164.649 402.432 166.983 413.347C167.928 417.763 168.718 418.814 168.852 415.838C168.981 413.005 168.079 407.242 166.847 403.028C165.321 397.812 165.556 391.165 167.585 382.203L170.564 369.038L172.125 399.037C174.652 447.673 180.621 455.957 208.998 450.237C233.179 445.36 249.861 446.237 265.821 453.226C273.689 456.669 280.565 458.918 281.101 458.222C285.869 452.025 246.88 443.202 224.77 445.473C180.922 449.98 179.701 449.363 176.105 420.813C173.429 399.578 173.046 275.812 175.519 231.527L177.226 200.969L178.78 219.304C179.633 229.388 180.447 265.957 180.585 300.567C180.91 380.198 183.254 438.105 186.061 435.85C187.245 434.9 187.553 431.878 186.745 429.14C185.936 426.402 184.302 369.964 183.113 303.723C181.925 237.483 180.397 182.567 179.72 181.687C176.744 177.815 175.646 186.65 173.037 235.555L170.263 287.54L164.804 281.783L159.343 276.026L164.541 249.193C170.361 219.151 171.845 161.479 167.176 146.759C165.53 141.57 165.293 135.761 166.551 131.48C168.509 124.815 168.638 124.895 170.216 133.741C172.748 147.942 173.902 150.136 172.63 138.325C171.995 132.443 170.486 110.441 169.273 89.4322C164.658 9.4741 150.633 -11.0028 111.491 5.08902ZM150.76 11.439C153.964 15.601 158.346 26.1068 160.502 34.7792C165.133 53.4165 168.239 88.4483 164.4 78.7369C162.585 74.1471 162.425 75.6658 163.753 84.8485C168.462 117.359 165.401 140.177 157.568 130.961C146.733 118.215 129.755 132.229 138.824 146.432C142.25 151.798 156.95 150.188 159.829 144.131C171.074 120.479 168.746 242.002 157.427 269.492C154.178 277.385 136.231 279.952 123.762 274.305C110.753 268.414 110.315 268.499 110.315 276.89C110.315 296.967 140.393 305.089 152.474 288.276C166.222 269.15 173.911 297.025 169.04 348.335C164.693 394.114 162.444 398.258 157.241 370.068C149.42 327.693 123.645 314.572 77.991 329.722C64.6522 334.147 53.14 336.989 52.4065 336.035C49.3081 332.008 54.9266 327.828 67.8987 324.512C122.975 310.428 112.159 230.61 55.07 229.843C29.5678 229.501 16.4359 218.68 30.3859 209.507C39.2628 203.67 48.363 204.715 68.2091 213.852C106.911 231.674 113.964 188.776 76.148 165.552C54.4306 152.214 44.8837 126.887 54.8773 109.121C59.3933 101.093 60.9684 104.091 63.1335 124.834C65.435 146.875 71.1876 153.995 93.763 162.735C118.337 172.248 123.711 183.97 116.193 211.664C110.934 231.038 111.651 244.236 118.438 253.055C132.881 271.83 159.942 250.996 156.938 223.414C155.791 212.881 147.577 213.895 145.322 224.847C142.844 236.893 138.869 242.222 132.362 242.222C119.305 242.222 127.665 191.713 142.203 182.747C158.083 172.95 158.468 155.471 142.64 162.912C131.539 168.128 122.949 164.632 112.048 150.463C98.3025 132.595 100.115 128.482 127.705 114.945C154.766 101.668 158.008 44.9459 132.604 29.2024C118.111 20.2183 103.641 35.2895 115.139 47.3935L120.749 53.2974L113.769 52.2676C103.778 50.7885 102.786 37.7678 111.949 28.3804C125.859 14.1281 145.01 26.5377 156.646 57.3463C160.81 68.3686 161.997 70.0707 160.906 63.4579C154.249 23.0205 110.717 2.34185 104.126 36.4843C101.241 51.4272 114.745 62.7062 121.971 51.3905C124.534 47.3752 124.273 46.651 120.257 46.651C113.762 46.651 111.303 37.1688 116.515 32.2154C133.004 16.5452 151.874 51.4761 145.823 86.4742C143.105 102.193 137.238 108.925 120.72 115.266C103.376 121.928 98.7045 129.527 104.107 142.298C113.125 163.621 129.579 173.152 144.577 165.742C148.073 164.015 151.399 163.208 151.973 163.951C154.312 166.995 147.657 177.476 142.271 179.233C132.585 182.393 126.25 197.507 124.987 220.468C123.269 251.653 135.952 256.841 146.359 229.211C151.355 215.952 154.982 214.418 154.982 225.568C154.982 243.821 144.979 257.501 131.628 257.501C116.117 257.501 111.517 240.386 118.875 210.042C125.709 181.867 119.472 169.632 93.0718 159.41C74.413 152.186 65.649 142.686 65.649 129.677C65.649 104.717 61.6337 97.1328 53.4926 106.713C40.5769 121.906 51.5931 152.651 75.7671 168.883C94.2802 181.314 96.1256 184.278 96.175 201.675C96.2244 219.307 90.1074 221.208 67.8376 210.476C48.8967 201.351 40.7321 200.627 28.9543 207.023C11.1652 216.685 27.1793 233.043 54.4353 233.049C109.899 233.067 119.472 306.953 65.9428 321.878C52.4065 325.649 44.9966 332.72 49.0542 337.994C50.8361 340.311 59.2382 338.844 78.0028 332.937C110.765 322.627 115.718 322.642 131.6 333.132C149.963 345.258 165.032 381.582 150.087 377.698C141.533 375.474 140.632 383.785 148.092 396.113C163.201 421.082 133.429 436.764 97.957 422.521C69.314 411.022 55.0771 386.077 77.0507 385.891C84.7803 385.827 99.1253 366.63 98.145 357.661C96.4571 342.208 72.9602 352.033 66.2414 371C55.3192 401.845 13.9298 350.312 13.9298 305.869C13.9298 284.31 30.5458 260.771 40.2572 268.573C41.837 269.844 42.2037 269.275 41.1858 267.136C37.7723 259.952 66.8244 253.514 74.1121 259.839C85.8312 270.012 83.6378 312.506 71.3921 312.506C68.8179 312.506 67.9998 308.139 67.9998 294.388C67.9998 272.536 64.4195 266.455 51.9645 267.158L43.3157 267.647L51.5343 268.936C63.8694 270.87 65.649 274.29 65.649 296.072C65.649 326.951 81.9852 322.205 83.7765 290.81C85.7348 256.456 70.835 246.07 39.9093 260.227C17.703 270.391 5.18695 255.564 2.75615 216.214C0.275984 176.046 17.1623 139.086 25.7218 165.95C31.5802 184.33 51.5437 192.321 51.5437 176.287C51.5437 164.843 39.7118 150.548 30.2378 150.548H22.6751L24.0198 133.604C27.4732 90.1228 68.162 48.4631 73.4703 82.9723C78.3672 114.798 126.772 110.117 126.772 77.8171C126.772 58.9353 114.902 58.535 106.448 77.1357C100.618 89.967 97.0942 90.6271 85.4691 81.0563C73.3622 71.0944 71.1265 53.5296 79.6507 35.3568C91.9481 9.14408 137.266 -6.10132 150.76 11.439ZM236.933 11.7171C208.382 23.1427 178.749 86.6881 178.531 136.95C178.51 142.078 177.325 147.786 175.902 149.635C174.254 151.777 173.986 156.724 175.167 163.233C176.768 172.086 177.412 169.546 179.936 144.437C189.97 44.6617 222.882 -0.0661073 275.899 14.0273C330.173 28.4537 360.514 78.303 356.202 145.965L355.034 164.299L357.472 149.02C370.378 68.0966 299.057 -13.1449 236.933 11.7171ZM124.042 72.3564C127.797 97.5271 99.1559 112.198 82.2861 93.744C69.6619 79.9348 72.4383 73.0134 85.8547 84.8485C97.2282 94.8807 97.6231 94.7738 108.747 78.6819C118.492 64.5855 122.627 62.8743 124.042 72.3564ZM157.544 134.071C160.21 138.249 160.008 139.627 156.207 143.239C146.763 152.214 135.757 146.004 139.377 133.741C141.185 127.618 153.567 127.844 157.544 134.071ZM43.4215 161.106C51.0853 171.065 51.1347 181.106 43.5249 181.106C37.5349 181.106 25.6842 165.726 25.6842 157.952C25.6842 150.86 37.1 152.889 43.4215 161.106ZM349.425 181.864C340.795 217.452 331.163 232.095 245.352 340.1C217.68 374.924 185.706 423.743 188.331 427.156C188.914 427.914 194.578 419.272 200.918 407.954C212.334 387.578 246.128 342.352 298.503 277.364C331.852 235.985 358.318 184.107 354.225 168.144C353.809 166.521 351.649 172.694 349.425 181.864ZM127.947 279.283C131.826 280.832 138.968 281.254 143.815 280.224C153.494 278.171 154.639 280.111 148.74 288.582C142.189 297.994 120.182 294.914 114.465 283.781C111.164 277.355 112.467 272.019 116.78 274.299C119.044 275.494 124.068 277.737 127.947 279.283ZM95.0489 355.315C99.4004 364.47 87.3099 380.293 73.2893 383.788C67.0195 385.35 65.649 384.733 65.649 380.339C65.649 365.231 89.9358 344.561 95.0489 355.315ZM157.241 386.423C162.331 393.521 163.593 401.124 159.684 401.124C158.391 401.124 157.258 398.719 157.168 395.776C157.023 391.086 156.785 391.153 155.231 396.299C153.555 401.867 153.259 401.793 149.521 394.857C141.667 380.28 147.934 373.435 157.241 386.423ZM167.583 431.526C164.802 449.598 138.566 459.105 105.508 454.014C94.5317 452.324 77.4033 457.339 77.4033 462.243C77.4033 463.664 80.3137 463.025 83.8682 460.819C88.0951 458.2 100.251 456.801 118.969 456.776C150.548 456.737 162.352 453.311 166.224 443.062C169.797 433.607 172.031 422.515 170.361 422.515C169.597 422.515 168.347 426.57 167.583 431.526Z" fill="#000C37" fill-opacity="0.22"/>
</svg>
