<svg width="374" height="410" viewBox="0 0 374 410" fill="none" xmlns="http://www.w3.org/2000/svg">
<path fill-rule="evenodd" clip-rule="evenodd" d="M116.149 4.895C89.7334 14.0959 77.8553 27.0083 76.2536 48.2666L75.1319 63.1617H66.7853C41.7531 63.1617 21.8591 90.624 21.8591 125.183C21.8591 133.003 20.3309 136.221 14.2865 141.144C-6.6116 158.159 -3.96412 221.408 18.1855 234.296C20.8795 235.863 23.5466 237.452 24.1148 237.83C24.6805 238.207 22.5669 241.536 19.4198 245.226C0.387919 267.536 25.9785 333.404 56.2689 340.078C61.0079 341.121 64.9681 344.404 67.187 349.127C81.2815 379.147 135.887 392.097 155.141 369.986C166.557 356.88 171.528 355.636 173.96 365.271C174.945 369.169 175.768 370.097 175.907 367.47C176.042 364.969 175.101 359.882 173.818 356.162C172.229 351.558 172.474 345.691 174.587 337.779L177.69 326.159L179.316 352.639C181.949 395.571 188.167 402.884 217.73 397.835C242.922 393.529 260.301 394.304 276.927 400.473C285.125 403.513 292.288 405.498 292.847 404.883C297.813 399.412 257.195 391.625 234.161 393.629C188.481 397.608 187.21 397.063 183.463 371.861C180.676 353.117 180.276 243.866 182.853 204.776L184.631 177.802L186.25 193.986C187.139 202.887 187.986 235.167 188.131 265.718C188.469 336.01 190.91 387.126 193.835 385.135C195.069 384.296 195.39 381.628 194.547 379.212C193.705 376.795 192.003 326.976 190.763 268.505C189.527 210.033 187.935 161.558 187.229 160.781C184.129 157.363 182.985 165.161 180.267 208.331L177.377 254.219L171.69 249.137L166.001 244.055L171.416 220.369C177.48 193.851 179.025 142.943 174.161 129.95C172.447 125.369 172.199 120.242 173.51 116.462C175.55 110.579 175.684 110.65 177.328 118.459C179.965 130.993 181.168 132.93 179.843 122.505C179.182 117.312 177.609 97.8908 176.346 79.3462C171.538 8.76578 156.927 -9.30955 116.149 4.895ZM157.059 10.5002C160.397 14.1741 164.962 23.4478 167.208 31.103C172.033 47.5545 175.268 78.4776 171.269 69.9052C169.378 65.8537 169.211 67.1943 170.595 75.3C175.501 103.998 172.312 124.139 164.152 116.004C152.864 104.753 135.176 117.123 144.625 129.661C148.193 134.398 163.507 132.976 166.508 127.63C178.222 106.752 175.797 214.022 164.005 238.288C160.62 245.256 141.924 247.521 128.934 242.537C115.38 237.336 114.925 237.412 114.925 244.819C114.925 262.541 146.258 269.71 158.844 254.869C173.167 237.986 181.178 262.592 176.103 307.884C171.575 348.294 169.231 351.952 163.811 327.068C155.663 289.663 128.811 278.08 81.2497 291.454C67.3535 295.36 55.3603 297.869 54.5962 297.027C51.3683 293.472 57.2216 289.782 70.7357 286.855C128.113 274.423 116.845 203.966 57.371 203.289C30.8032 202.987 17.1226 193.436 31.6555 185.338C40.9033 180.186 50.3838 181.109 71.059 189.174C111.378 204.905 118.726 167.039 79.3296 146.539C56.7049 134.764 46.7591 112.408 57.1702 96.7255C61.8749 89.6395 63.5158 92.2856 65.7714 110.596C68.1691 130.052 74.162 136.337 97.6807 144.052C123.281 152.449 128.88 162.796 121.048 187.242C115.569 204.344 116.316 215.994 123.386 223.779C138.434 240.352 166.625 221.961 163.495 197.614C162.3 188.316 153.743 189.212 151.394 198.879C148.813 209.512 144.671 214.217 137.892 214.217C124.29 214.217 132.999 169.631 148.144 161.717C164.688 153.069 165.09 137.64 148.6 144.208C137.035 148.812 128.086 145.727 116.73 133.219C102.41 117.447 104.298 113.816 133.041 101.867C161.232 90.1466 164.61 40.0773 138.145 26.1802C123.046 18.2499 107.972 31.5535 119.95 42.2379L125.794 47.4493L118.522 46.5403C108.114 45.2347 107.08 33.7411 116.627 25.4546C131.118 12.8739 151.068 23.8281 163.192 51.0234C167.529 60.7529 168.766 62.2554 167.629 56.4182C160.693 20.7234 115.344 2.47002 108.476 32.6082C105.471 45.7985 119.539 55.7546 127.067 45.7661C129.737 42.2217 129.465 41.5824 125.282 41.5824C118.515 41.5824 115.953 33.2124 121.383 28.8399C138.561 15.0076 158.22 45.8416 151.916 76.7351C149.085 90.6105 142.972 96.5529 125.764 102.15C107.695 108.03 102.829 114.739 108.457 126.011C117.851 144.834 134.993 153.247 150.618 146.706C154.26 145.182 157.725 144.47 158.323 145.125C160.76 147.812 153.826 157.064 148.215 158.615C138.125 161.404 131.525 174.745 130.21 195.014C128.419 222.541 141.632 227.121 152.474 202.731C157.679 191.027 161.458 189.673 161.458 199.516C161.458 215.627 151.037 227.704 137.128 227.704C120.969 227.704 116.176 212.595 123.842 185.81C130.961 160.94 124.464 150.14 96.9606 141.117C77.5222 134.74 68.392 126.354 68.392 114.871C68.392 92.8386 64.2089 86.1436 55.7277 94.6C42.2723 108.011 53.7488 135.15 78.9329 149.479C98.2195 160.452 100.142 163.068 100.193 178.425C100.245 193.989 93.8723 195.666 70.6721 186.193C50.9397 178.139 42.434 177.499 30.164 183.145C11.6317 191.674 28.3149 206.114 56.7098 206.119C114.491 206.135 124.464 271.356 68.6981 284.53C54.5962 287.858 46.8766 294.1 51.1038 298.756C52.9602 300.801 61.7133 299.506 81.262 294.292C115.393 285.191 120.553 285.204 137.099 294.464C156.229 305.168 171.927 337.232 156.359 333.803C147.446 331.84 146.508 339.177 154.279 350.058C170.02 372.099 139.004 385.942 102.05 373.369C72.2101 363.219 57.3784 341.2 80.2701 341.035C88.3227 340.979 103.267 324.033 102.246 316.116C100.487 302.476 76.0086 311.148 69.0091 327.891C57.6306 355.118 14.5119 309.629 14.5119 270.398C14.5119 251.368 31.8221 230.59 41.9393 237.476C43.5851 238.598 43.9671 238.097 42.9067 236.208C39.3506 229.867 69.6165 224.183 77.2087 229.767C89.4174 238.747 87.1324 276.257 74.3751 276.257C71.6933 276.257 70.841 272.402 70.841 260.264C70.841 240.975 67.1111 235.607 54.1358 236.227L45.1255 236.659L53.6876 237.797C66.538 239.505 68.392 242.523 68.392 261.75C68.392 289.008 85.4107 284.818 87.2769 257.105C89.317 226.781 73.7946 217.613 41.5768 230.11C18.4426 239.081 5.40368 225.993 2.87131 191.259C0.287516 155.801 17.8794 123.176 26.7965 146.889C32.8997 163.114 53.6974 170.168 53.6974 156.015C53.6974 145.913 41.3711 133.294 31.5012 133.294H23.6225L25.0234 118.337C28.6211 79.9558 71.01 43.182 76.5401 73.6438C81.6415 101.737 132.068 97.6049 132.068 69.0933C132.068 52.426 119.703 52.0727 110.896 68.4918C104.822 79.8182 101.151 80.4008 89.0403 71.9526C76.4274 63.159 74.0983 47.6543 82.9788 31.6128C95.79 8.47446 143.001 -4.9829 157.059 10.5002ZM246.833 10.7457C217.089 20.8313 186.218 76.9239 185.99 121.291C185.968 125.817 184.734 130.856 183.252 132.488C181.535 134.379 181.256 138.746 182.485 144.491C184.153 152.306 184.824 150.064 187.455 127.899C197.907 39.8264 232.195 0.344479 287.427 12.7849C343.969 25.5194 375.577 69.5222 371.085 129.248L369.868 145.433L372.408 131.946C385.853 60.5128 311.553 -11.2004 246.833 10.7457ZM129.225 64.273C133.136 86.4916 103.299 99.4418 85.7242 83.1522C72.5725 70.9626 75.4649 64.853 89.4419 75.3C101.291 84.1556 101.702 84.0612 113.291 69.8567C123.443 57.4135 127.751 55.903 129.225 64.273ZM164.127 118.75C166.904 122.437 166.694 123.654 162.734 126.842C152.896 134.764 141.429 129.283 145.2 118.459C147.084 113.053 159.983 113.253 164.127 118.75ZM45.2357 142.614C53.2198 151.405 53.2712 160.268 45.3435 160.268C39.1032 160.268 26.7573 146.692 26.7573 139.83C26.7573 133.569 38.6501 135.361 45.2357 142.614ZM364.025 160.937C355.034 192.351 345 205.277 255.603 300.615C226.775 331.354 193.465 374.448 196.2 377.461C196.808 378.13 202.708 370.502 209.313 360.51C221.206 342.524 256.411 302.603 310.975 245.237C345.718 208.711 373.29 162.917 369.026 148.826C368.592 147.394 366.342 152.842 364.025 160.937ZM133.293 246.931C137.334 248.298 144.774 248.671 149.824 247.762C159.907 245.949 161.1 247.662 154.955 255.139C148.13 263.447 125.204 260.728 119.247 250.901C115.809 245.229 117.166 240.519 121.66 242.531C124.018 243.586 129.252 245.566 133.293 246.931ZM99.0203 314.045C103.554 322.126 90.9579 336.094 76.3515 339.179C69.8198 340.558 68.392 340.013 68.392 336.134C68.392 322.798 93.6936 304.553 99.0203 314.045ZM163.811 341.504C169.113 347.771 170.429 354.482 166.356 354.482C165.009 354.482 163.828 352.359 163.735 349.761C163.583 345.621 163.336 345.68 161.717 350.223C159.971 355.137 159.662 355.073 155.768 348.949C147.586 336.083 154.115 330.041 163.811 341.504ZM174.585 381.318C171.687 397.271 144.356 405.662 109.916 401.168C98.4815 399.677 80.6374 404.103 80.6374 408.433C80.6374 409.687 83.6694 409.123 87.3724 407.176C91.7759 404.864 104.44 403.629 123.94 403.607C156.839 403.572 169.135 400.548 173.169 391.501C176.892 383.155 179.218 373.364 177.48 373.364C176.684 373.364 175.381 376.943 174.585 381.318Z" fill="#30C5A2" fill-opacity="0.25"/>
</svg>
